<svg width="112" height="29" viewBox="0 0 112 29" fill="none" xmlns="http://www.w3.org/2000/svg">
<path d="M20.0593 0L31.8596 28.1536V0H20.0593ZM0 0V28.1536L11.8003 0H0ZM10.7885 22.4123H16.1769L18.5416 28.1419H23.4241L15.8474 10.2826L10.7885 22.4123Z" fill="#CED3D9"/>
<path d="M51.6366 18.1651L50.3424 22.0593C50.2954 22.2005 50.2248 22.2475 50.0836 22.2475H47.7188C47.5776 22.2475 47.5306 22.1769 47.5541 22.0122L52.4248 8.16482C52.5189 7.92952 52.5895 7.69422 52.6366 6.8942C52.6366 6.80008 52.6837 6.72949 52.7778 6.72949H56.0602C56.1779 6.72949 56.2014 6.75302 56.2249 6.87067L61.6839 22.0475C61.7074 22.1887 61.6839 22.2593 61.5427 22.2593H58.8956C58.7779 22.2593 58.7073 22.2122 58.6603 22.1181L57.2838 18.1768H51.6366V18.1651ZM56.5308 15.5885C56.0367 14.0238 54.919 10.7414 54.4484 9.09426H54.4249C54.0484 10.6825 53.0954 13.4473 52.3895 15.5885H56.5308Z" fill="#CED3D9"/>
<path d="M62.5309 16.5297C62.5309 13.1061 65.0839 10.3649 69.2488 10.3649C69.5782 10.3649 69.8605 10.3884 70.2605 10.4355V5.58829C70.2605 5.47064 70.3076 5.42358 70.4017 5.42358H72.9783C73.0959 5.42358 73.0959 5.47064 73.0959 5.56476V19.8357C73.0959 20.3063 73.143 20.9181 73.19 21.3534C73.19 21.471 73.1665 21.5181 73.0489 21.5652C71.5076 22.224 70.0017 22.4828 68.5782 22.4828C65.1545 22.4946 62.5309 20.5063 62.5309 16.5297ZM70.2605 12.9179C69.9547 12.8002 69.5782 12.7532 69.1546 12.7532C67.0487 12.7532 65.4722 14.1062 65.4722 16.3886C65.4722 18.9651 67.0134 20.0239 68.8958 20.0239C69.3664 20.0239 69.837 19.9769 70.2723 19.8357V12.9179H70.2605Z" fill="#CED3D9"/>
<path d="M86.7316 16.365C86.7316 20.0239 84.3903 22.4828 81.0608 22.4828C77.1078 22.4828 75.3666 19.4357 75.3666 16.4356C75.3666 13.0826 77.5666 10.3649 81.1079 10.3649C84.755 10.3649 86.7316 13.1296 86.7316 16.365ZM78.249 16.3885C78.249 18.5651 79.3079 20.071 81.1079 20.071C82.5785 20.071 83.8256 18.871 83.8256 16.4356C83.8256 14.4709 82.9785 12.7532 80.9667 12.7532C79.3902 12.7532 78.249 14.1414 78.249 16.3885Z" fill="#CED3D9"/>
<path d="M91.6022 5.42358C91.7669 5.42358 91.814 5.44711 91.814 5.61182L91.8375 10.6943C92.4728 10.4825 93.214 10.3649 93.9905 10.3649C97.3906 10.3649 99.5671 12.7767 99.5671 15.9415C99.5671 20.3181 96.167 22.4828 92.6611 22.4828C91.4375 22.4828 90.2492 22.3181 89.1198 21.9652C89.0257 21.9416 88.9551 21.824 88.9551 21.7534V5.58829C88.9551 5.47064 89.0257 5.42358 89.1198 5.42358H91.6022ZM93.4964 12.8002C92.6728 12.8002 92.2257 12.9179 91.8375 13.0591V19.9651C92.1669 20.0592 92.5199 20.0828 92.9199 20.0828C94.8611 20.0828 96.6494 18.8592 96.6494 16.2356C96.6612 13.9767 95.367 12.8002 93.4964 12.8002Z" fill="#CED3D9"/>
<path d="M104.132 17.0828C104.203 18.7416 105.285 20.0593 107.697 20.0593C108.756 20.0593 109.732 19.8711 110.626 19.4946C110.697 19.4475 110.767 19.471 110.767 19.5887V21.5535C110.767 21.6946 110.72 21.7652 110.626 21.8123C109.732 22.2358 108.685 22.4947 107.085 22.4947C102.779 22.4947 101.25 19.4711 101.25 16.5651C101.25 13.2827 103.238 10.3767 106.803 10.3767C110.297 10.3767 111.65 13.118 111.65 15.3651C111.65 16.0239 111.626 16.5651 111.556 16.8357C111.532 16.9298 111.485 16.9769 111.367 17.0004C111.038 17.071 110.097 17.0945 108.932 17.0945H104.132V17.0828ZM107.65 15.0474C108.544 15.0474 108.85 15.0474 108.944 15.0239C108.944 14.9533 108.944 14.8592 108.944 14.8356C108.944 14.1533 108.473 12.6356 106.673 12.6356C105.038 12.6356 104.308 13.8827 104.12 15.0474H107.65Z" fill="#CED3D9"/>
</svg>
