<svg width="23" height="11" viewBox="0 0 23 11" fill="none" xmlns="http://www.w3.org/2000/svg">
<path fill-rule="evenodd" clip-rule="evenodd" d="M0.223389 5.5C0.223389 5.08579 0.559175 4.75 0.973389 4.75H22.0267C22.4409 4.75 22.7767 5.08579 22.7767 5.5C22.7767 5.91421 22.4409 6.25 22.0267 6.25H0.973389C0.559175 6.25 0.223389 5.91421 0.223389 5.5Z" fill="#153CF5"/>
<path fill-rule="evenodd" clip-rule="evenodd" d="M16.7464 0.21967C17.0393 -0.0732233 17.5142 -0.0732233 17.8071 0.21967L22.5571 4.96967C22.85 5.26256 22.85 5.73744 22.5571 6.03033L17.8071 10.7803C17.5142 11.0732 17.0393 11.0732 16.7464 10.7803C16.4535 10.4874 16.4535 10.0126 16.7464 9.71967L20.9661 5.5L16.7464 1.28033C16.4535 0.987437 16.4535 0.512563 16.7464 0.21967Z" fill="#153CF5"/>
</svg>
