<svg width="23" height="12" viewBox="0 0 23 12" fill="none" xmlns="http://www.w3.org/2000/svg">
<path fill-rule="evenodd" clip-rule="evenodd" d="M22.8032 5.75C22.8032 5.33579 22.4674 5 22.0532 5H0.999945C0.585732 5 0.249945 5.33579 0.249945 5.75C0.249945 6.16421 0.585732 6.5 0.999945 6.5H22.0532C22.4674 6.5 22.8032 6.16421 22.8032 5.75Z" fill="#153CF5"/>
<path fill-rule="evenodd" clip-rule="evenodd" d="M6.28033 0.46967C5.98744 0.176777 5.51256 0.176777 5.21967 0.46967L0.46967 5.21967C0.176777 5.51256 0.176777 5.98744 0.46967 6.28033L5.21967 11.0303C5.51256 11.3232 5.98744 11.3232 6.28033 11.0303C6.57322 10.7374 6.57322 10.2626 6.28033 9.96967L2.06066 5.75L6.28033 1.53033C6.57322 1.23744 6.57322 0.762563 6.28033 0.46967Z" fill="#153CF5"/>
</svg>
