<svg width="40" height="40" viewBox="0 0 40 40" fill="none" xmlns="http://www.w3.org/2000/svg">
<circle opacity="0.08" cx="20" cy="20" r="20" fill="#153CF5"/>
<path d="M28.7158 14.1266H25.277C25.2162 14.1266 25.1579 14.1024 25.1149 14.0594C25.0719 14.0164 25.0478 13.9581 25.0478 13.8973V13.6681C25.0478 12.6952 24.6613 11.7622 23.9734 11.0744C23.2855 10.3865 22.3525 10 21.3797 10H18.6287C17.6558 10 16.7228 10.3865 16.035 11.0744C15.3471 11.7622 14.9606 12.6952 14.9606 13.6681V13.8973C14.9606 13.9581 14.9364 14.0164 14.8935 14.0594C14.8505 14.1024 14.7922 14.1266 14.7313 14.1266H11.2925C10.6845 14.1266 10.1014 14.3681 9.67147 14.798C9.24153 15.228 9 15.8111 9 16.4191V20.5457C9 20.9105 9.14492 21.2604 9.40288 21.5183C9.66084 21.7763 10.0107 21.9212 10.3755 21.9212H17.8951C17.9306 21.9211 17.9657 21.9127 17.9975 21.8968C18.0293 21.8809 18.057 21.8579 18.0785 21.8295C18.2846 21.5073 18.5686 21.2421 18.9042 21.0585C19.2397 20.8748 19.6161 20.7785 19.9987 20.7785C20.3812 20.7785 20.7576 20.8748 21.0932 21.0585C21.4288 21.2421 21.7127 21.5073 21.9189 21.8295C21.9404 21.8579 21.9681 21.8809 21.9999 21.8968C22.0317 21.9127 22.0668 21.9211 22.1023 21.9212H29.6219C29.8034 21.9227 29.9835 21.8882 30.1516 21.8197C30.3198 21.7512 30.4727 21.6501 30.6016 21.5222C30.7305 21.3944 30.8328 21.2422 30.9026 21.0746C30.9724 20.907 31.0084 20.7272 31.0084 20.5457V16.4191C31.0084 16.118 30.9491 15.8199 30.8339 15.5418C30.7187 15.2636 30.5498 15.0109 30.3369 14.798C30.124 14.5852 29.8713 14.4163 29.5932 14.3011C29.315 14.1859 29.0169 14.1266 28.7158 14.1266ZM18.6287 11.834H21.3797C21.8208 11.8339 22.2471 11.9927 22.5806 12.2814C22.9141 12.5701 23.1323 12.9693 23.1954 13.4058C23.2001 13.4384 23.1978 13.4716 23.1886 13.5032C23.1793 13.5349 23.1633 13.5641 23.1417 13.589C23.1202 13.6139 23.0935 13.6338 23.0635 13.6475C23.0335 13.6611 23.0009 13.6681 22.968 13.6681H17.0404C17.0075 13.6681 16.9749 13.6611 16.9449 13.6475C16.9149 13.6338 16.8882 13.6139 16.8666 13.589C16.8451 13.5641 16.8291 13.5349 16.8198 13.5032C16.8106 13.4716 16.8082 13.4384 16.813 13.4058C16.876 12.9693 17.0943 12.5701 17.4278 12.2814C17.7613 11.9927 18.1876 11.8339 18.6287 11.834Z" fill="#153CF5"/>
<path d="M20.0044 26.7356C19.277 26.6691 18.605 26.3193 18.1333 25.7618C17.6615 25.2042 17.4278 24.4836 17.4826 23.7553C17.4826 23.6828 17.4826 23.6113 17.489 23.5398C17.4909 23.5085 17.4863 23.4772 17.4756 23.4478C17.465 23.4184 17.4484 23.3915 17.4269 23.3687C17.4054 23.3459 17.3795 23.3278 17.3508 23.3154C17.322 23.3031 17.291 23.2967 17.2597 23.2968H10.8342C10.7231 23.2957 10.6153 23.3349 10.531 23.4073C10.4467 23.4796 10.3915 23.5802 10.3757 23.6902C10.3198 24.0799 10.2519 24.4761 10.185 24.8713C9.8695 26.7163 9.57239 28.4596 10.4142 29.4564C10.6462 29.7061 10.9314 29.9004 11.2488 30.0247C11.5662 30.149 11.9075 30.2002 12.2473 30.1744H27.7614C28.1004 30.1997 28.4407 30.1485 28.7572 30.0245C29.0737 29.9005 29.3583 29.707 29.5899 29.4582C30.4327 28.4596 30.1346 26.7163 29.8192 24.8731C29.7522 24.4779 29.6844 24.0817 29.6284 23.692C29.6132 23.5825 29.5588 23.4821 29.4754 23.4095C29.392 23.3369 29.2851 23.2968 29.1745 23.2968H22.749C22.7177 23.2969 22.6868 23.3033 22.6581 23.3157C22.6294 23.3281 22.6036 23.3463 22.5821 23.369C22.5607 23.3917 22.5441 23.4186 22.5333 23.448C22.5226 23.4773 22.518 23.5086 22.5197 23.5398C22.5197 23.6113 22.5262 23.6828 22.5262 23.7553C22.5809 24.4836 22.3472 25.2042 21.8755 25.7618C21.4037 26.3193 20.7317 26.6691 20.0044 26.7356Z" fill="#0D2AB1"/>
<path d="M20.0043 25.3599C20.6374 25.3599 21.1506 24.6415 21.1506 23.7552C21.1506 22.8689 20.6374 22.1504 20.0043 22.1504C19.3712 22.1504 18.858 22.8689 18.858 23.7552C18.858 24.6415 19.3712 25.3599 20.0043 25.3599Z" fill="#153CF5"/>
</svg>
