<svg width="24" height="24" viewBox="0 0 24 24" fill="none" xmlns="http://www.w3.org/2000/svg">
<path d="M21.5 5.49646H17.75C17.6837 5.49646 17.6201 5.47012 17.5732 5.42324C17.5263 5.37635 17.5 5.31276 17.5 5.24646V4.99646C17.5 3.93559 17.0786 2.91818 16.3284 2.16803C15.5783 1.41789 14.5609 0.99646 13.5 0.99646H10.5C9.43913 0.99646 8.42172 1.41789 7.67157 2.16803C6.92143 2.91818 6.5 3.93559 6.5 4.99646V5.24646C6.5 5.31276 6.47366 5.37635 6.42678 5.42324C6.37989 5.47012 6.3163 5.49646 6.25 5.49646H2.5C1.83696 5.49646 1.20107 5.75985 0.732233 6.22869C0.263392 6.69753 0 7.33342 0 7.99646L0 12.4965C0 12.8943 0.158035 13.2758 0.43934 13.5571C0.720644 13.8384 1.10218 13.9965 1.5 13.9965H9.7C9.73878 13.9963 9.77701 13.9872 9.8117 13.9699C9.84639 13.9525 9.87661 13.9274 9.9 13.8965C10.1248 13.5451 10.4345 13.2559 10.8004 13.0556C11.1664 12.8553 11.5768 12.7504 11.994 12.7504C12.4112 12.7504 12.8216 12.8553 13.1876 13.0556C13.5535 13.2559 13.8632 13.5451 14.088 13.8965C14.1114 13.9274 14.1416 13.9525 14.1763 13.9699C14.211 13.9872 14.2492 13.9963 14.288 13.9965H22.488C22.686 13.998 22.8823 13.9604 23.0657 13.8857C23.2491 13.8111 23.4159 13.7008 23.5564 13.5614C23.697 13.4219 23.8086 13.256 23.8847 13.0733C23.9608 12.8905 24 12.6945 24 12.4965V7.99646C24 7.66816 23.9353 7.34307 23.8097 7.03975C23.6841 6.73644 23.4999 6.46084 23.2678 6.22869C23.0356 5.99655 22.76 5.8124 22.4567 5.68676C22.1534 5.56112 21.8283 5.49646 21.5 5.49646ZM10.5 2.99646H13.5C13.981 2.99633 14.4459 3.16953 14.8095 3.48433C15.1732 3.79912 15.4112 4.23443 15.48 4.71046C15.4852 4.74601 15.4826 4.78226 15.4725 4.81673C15.4624 4.85121 15.445 4.8831 15.4215 4.91024C15.3979 4.93738 15.3688 4.95913 15.3361 4.97401C15.3034 4.98889 15.2679 4.99655 15.232 4.99646H8.768C8.73208 4.99655 8.69655 4.98889 8.66386 4.97401C8.63116 4.95913 8.60205 4.93738 8.57852 4.91024C8.55498 4.8831 8.53757 4.85121 8.52747 4.81673C8.51738 4.78226 8.51483 4.74601 8.52 4.71046C8.58878 4.23443 8.82681 3.79912 9.19046 3.48433C9.55411 3.16953 10.019 2.99633 10.5 2.99646Z" fill="#153CF5"/>
<path d="M12 19.2465C11.2069 19.174 10.474 18.7926 9.95959 18.1846C9.44513 17.5766 9.19028 16.7907 9.25001 15.9965C9.25001 15.9175 9.25001 15.8395 9.25701 15.7615C9.25906 15.7275 9.25411 15.6933 9.24247 15.6613C9.23082 15.6292 9.21273 15.5998 9.18931 15.575C9.16589 15.5502 9.13763 15.5304 9.10628 15.5169C9.07493 15.5034 9.04114 15.4965 9.00701 15.4965H2.00001C1.87884 15.4953 1.76134 15.5381 1.66937 15.6171C1.5774 15.696 1.51721 15.8056 1.50001 15.9255C1.43901 16.3505 1.36501 16.7825 1.29201 17.2135C0.948012 19.2255 0.624012 21.1265 1.54201 22.2135C1.79495 22.4859 2.10603 22.6977 2.45211 22.8333C2.7982 22.9688 3.17039 23.0246 3.54101 22.9965H20.459C20.8287 23.0241 21.1998 22.9683 21.5449 22.8331C21.8901 22.6979 22.2004 22.4868 22.453 22.2155C23.372 21.1265 23.047 19.2255 22.703 17.2155C22.63 16.7845 22.556 16.3525 22.495 15.9275C22.4784 15.8081 22.4191 15.6987 22.3281 15.6195C22.2372 15.5403 22.1206 15.4966 22 15.4965H14.993C14.9589 15.4966 14.9252 15.5037 14.8939 15.5172C14.8626 15.5307 14.8344 15.5505 14.811 15.5753C14.7877 15.6001 14.7696 15.6294 14.7579 15.6614C14.7462 15.6934 14.7411 15.7275 14.743 15.7615C14.743 15.8395 14.75 15.9175 14.75 15.9965C14.8097 16.7907 14.5549 17.5766 14.0404 18.1846C13.526 18.7926 12.7931 19.174 12 19.2465Z" fill="#0D2AB1"/>
<path d="M12.0001 17.7465C12.6905 17.7465 13.2501 16.963 13.2501 15.9965C13.2501 15.03 12.6905 14.2465 12.0001 14.2465C11.3098 14.2465 10.7501 15.03 10.7501 15.9965C10.7501 16.963 11.3098 17.7465 12.0001 17.7465Z" fill="#153CF5"/>
</svg>
