<svg width="40" height="40" viewBox="0 0 40 40" fill="none" xmlns="http://www.w3.org/2000/svg">
<circle opacity="0.08" cx="20" cy="20" r="20" fill="#153CF5"/>
<path d="M17.5457 14.5C17.5845 14.5001 17.6227 14.4903 17.6566 14.4717C17.6906 14.453 17.7193 14.426 17.74 14.3932C17.7607 14.3604 17.7727 14.3229 17.775 14.2842C17.7773 14.2455 17.7697 14.2068 17.7529 14.1719L15.3925 9.25944C15.3502 9.18758 15.29 9.128 15.2176 9.08661C15.1453 9.04521 15.0633 9.02344 14.98 9.02344C14.8966 9.02344 14.8147 9.04521 14.7424 9.08661C14.67 9.128 14.6097 9.18758 14.5675 9.25944L12.2089 14.1719C12.1923 14.2065 12.1847 14.2449 12.1867 14.2833C12.1888 14.3217 12.2005 14.359 12.2208 14.3916C12.2411 14.4243 12.2693 14.4514 12.3027 14.4703C12.3362 14.4893 12.3739 14.4995 12.4124 14.5H17.5457Z" fill="#153CF5"/>
<path d="M12.2292 27.5625C12.1684 27.5625 12.1101 27.5866 12.0671 27.6296C12.0241 27.6726 12 27.7309 12 27.7917V28.0208C12 28.811 12.3139 29.5687 12.8726 30.1274C13.4313 30.6861 14.189 31 14.9792 31C15.7693 31 16.5271 30.6861 17.0858 30.1274C17.6445 29.5687 17.9583 28.811 17.9583 28.0208V27.7917C17.9583 27.7309 17.9342 27.6726 17.8912 27.6296C17.8482 27.5866 17.7899 27.5625 17.7292 27.5625H12.2292Z" fill="#153CF5"/>
<path d="M26.6667 9H22.0834C21.7187 9 21.369 9.14487 21.1111 9.40273C20.8532 9.66059 20.7084 10.0103 20.7084 10.375V11.5208C20.7084 11.5816 20.7325 11.6399 20.7755 11.6829C20.8185 11.7259 20.8768 11.75 20.9375 11.75H22.5417C22.6633 11.75 22.7798 11.7983 22.8658 11.8842C22.9518 11.9702 23 12.0868 23 12.2083C23 12.3299 22.9518 12.4465 22.8658 12.5324C22.7798 12.6184 22.6633 12.6667 22.5417 12.6667H20.9375C20.8768 12.6667 20.8185 12.6908 20.7755 12.7338C20.7325 12.7768 20.7084 12.8351 20.7084 12.8958V15.1875C20.7084 15.2483 20.7325 15.3066 20.7755 15.3495C20.8185 15.3925 20.8768 15.4167 20.9375 15.4167H22.5417C22.6633 15.4167 22.7798 15.465 22.8658 15.5509C22.9518 15.6369 23 15.7534 23 15.875C23 15.9966 22.9518 16.1131 22.8658 16.1991C22.7798 16.285 22.6633 16.3333 22.5417 16.3333H20.9375C20.8768 16.3333 20.8185 16.3575 20.7755 16.4005C20.7325 16.4434 20.7084 16.5017 20.7084 16.5625V18.8542C20.7084 18.9149 20.7325 18.9732 20.7755 19.0162C20.8185 19.0592 20.8768 19.0833 20.9375 19.0833H22.5417C22.6633 19.0833 22.7798 19.1316 22.8658 19.2176C22.9518 19.3035 23 19.4201 23 19.5417C23 19.6632 22.9518 19.7798 22.8658 19.8658C22.7798 19.9517 22.6633 20 22.5417 20H20.9375C20.8768 20 20.8185 20.0241 20.7755 20.0671C20.7325 20.1101 20.7084 20.1684 20.7084 20.2292V22.5208C20.7084 22.5816 20.7325 22.6399 20.7755 22.6829C20.8185 22.7259 20.8768 22.75 20.9375 22.75H22.5417C22.6633 22.75 22.7798 22.7983 22.8658 22.8842C22.9518 22.9702 23 23.0868 23 23.2083C23 23.3299 22.9518 23.4465 22.8658 23.5324C22.7798 23.6184 22.6633 23.6667 22.5417 23.6667H20.9375C20.8768 23.6667 20.8185 23.6908 20.7755 23.7338C20.7325 23.7768 20.7084 23.8351 20.7084 23.8958V29.625C20.7084 29.9897 20.8532 30.3394 21.1111 30.5973C21.369 30.8551 21.7187 31 22.0834 31H26.6667C27.0314 31 27.3811 30.8551 27.639 30.5973C27.8968 30.3394 28.0417 29.9897 28.0417 29.625V10.375C28.0417 10.0103 27.8968 9.66059 27.639 9.40273C27.3811 9.14487 27.0314 9 26.6667 9V9ZM24.375 26.875C24.6017 26.875 24.8232 26.9422 25.0116 27.0681C25.2001 27.194 25.3469 27.373 25.4337 27.5823C25.5204 27.7917 25.5431 28.0221 25.4989 28.2444C25.4546 28.4666 25.3455 28.6708 25.1853 28.8311C25.025 28.9913 24.8209 29.1004 24.5986 29.1446C24.3763 29.1889 24.1459 29.1662 23.9365 29.0794C23.7272 28.9927 23.5482 28.8459 23.4223 28.6574C23.2964 28.469 23.2292 28.2475 23.2292 28.0208C23.2297 27.7171 23.3506 27.4259 23.5653 27.2111C23.7801 26.9964 24.0713 26.8755 24.375 26.875V26.875Z" fill="#0D2AB1"/>
<path d="M16.8129 15.4166H12.9626C12.431 15.4166 12 15.5192 12 15.6458V26.4166C12 26.5432 12.431 26.6458 12.9626 26.6458H16.8129C17.3445 26.6458 17.7754 26.5432 17.7754 26.4166V15.6458C17.7754 15.5192 17.3445 15.4166 16.8129 15.4166Z" fill="#153CF5"/>
</svg>
