<svg width="24" height="24" viewBox="0 0 24 24" fill="none" xmlns="http://www.w3.org/2000/svg">
<path d="M9.52486 6.50002C9.56363 6.5001 9.6018 6.49035 9.63577 6.47166C9.66975 6.45298 9.69843 6.42598 9.71913 6.39319C9.73983 6.3604 9.75187 6.32289 9.75413 6.28418C9.75638 6.24547 9.74878 6.20683 9.73203 6.17185L7.37161 1.25944C7.32936 1.18758 7.26908 1.128 7.19673 1.08661C7.12438 1.04521 7.04247 1.02344 6.95911 1.02344C6.87575 1.02344 6.79384 1.04521 6.72149 1.08661C6.64914 1.128 6.58885 1.18758 6.54661 1.25944L4.18803 6.17185C4.1714 6.20655 4.16378 6.24486 4.16586 6.28327C4.16794 6.32169 4.17966 6.35896 4.19993 6.39165C4.22021 6.42434 4.24838 6.4514 4.28187 6.47034C4.31535 6.48928 4.35306 6.49949 4.39153 6.50002H9.52486Z" fill="#153CF5"/>
<path d="M4.20829 19.5625C4.14751 19.5625 4.08922 19.5866 4.04625 19.6296C4.00327 19.6726 3.97913 19.7309 3.97913 19.7917V20.0208C3.97913 20.811 4.293 21.5687 4.8517 22.1274C5.41041 22.6861 6.16817 23 6.95829 23C7.74842 23 8.50618 22.6861 9.06488 22.1274C9.62358 21.5687 9.93746 20.811 9.93746 20.0208V19.7917C9.93746 19.7309 9.91331 19.6726 9.87034 19.6296C9.82736 19.5866 9.76907 19.5625 9.70829 19.5625H4.20829Z" fill="#153CF5"/>
<path d="M18.6458 1H14.0625C13.6978 1 13.3481 1.14487 13.0902 1.40273C12.8324 1.66059 12.6875 2.01033 12.6875 2.375V3.52083C12.6875 3.58161 12.7116 3.6399 12.7546 3.68288C12.7976 3.72586 12.8559 3.75 12.9167 3.75H14.5208C14.6424 3.75 14.759 3.79829 14.8449 3.88424C14.9309 3.9702 14.9792 4.08678 14.9792 4.20833C14.9792 4.32989 14.9309 4.44647 14.8449 4.53242C14.759 4.61838 14.6424 4.66667 14.5208 4.66667H12.9167C12.8559 4.66667 12.7976 4.69081 12.7546 4.73379C12.7116 4.77677 12.6875 4.83505 12.6875 4.89583V7.1875C12.6875 7.24828 12.7116 7.30657 12.7546 7.34955C12.7976 7.39252 12.8559 7.41667 12.9167 7.41667H14.5208C14.6424 7.41667 14.759 7.46496 14.8449 7.55091C14.9309 7.63686 14.9792 7.75344 14.9792 7.875C14.9792 7.99656 14.9309 8.11314 14.8449 8.19909C14.759 8.28504 14.6424 8.33333 14.5208 8.33333H12.9167C12.8559 8.33333 12.7976 8.35748 12.7546 8.40045C12.7116 8.44343 12.6875 8.50172 12.6875 8.5625V10.8542C12.6875 10.9149 12.7116 10.9732 12.7546 11.0162C12.7976 11.0592 12.8559 11.0833 12.9167 11.0833H14.5208C14.6424 11.0833 14.759 11.1316 14.8449 11.2176C14.9309 11.3035 14.9792 11.4201 14.9792 11.5417C14.9792 11.6632 14.9309 11.7798 14.8449 11.8658C14.759 11.9517 14.6424 12 14.5208 12H12.9167C12.8559 12 12.7976 12.0241 12.7546 12.0671C12.7116 12.1101 12.6875 12.1684 12.6875 12.2292V14.5208C12.6875 14.5816 12.7116 14.6399 12.7546 14.6829C12.7976 14.7259 12.8559 14.75 12.9167 14.75H14.5208C14.6424 14.75 14.759 14.7983 14.8449 14.8842C14.9309 14.9702 14.9792 15.0868 14.9792 15.2083C14.9792 15.3299 14.9309 15.4465 14.8449 15.5324C14.759 15.6184 14.6424 15.6667 14.5208 15.6667H12.9167C12.8559 15.6667 12.7976 15.6908 12.7546 15.7338C12.7116 15.7768 12.6875 15.8351 12.6875 15.8958V21.625C12.6875 21.9897 12.8324 22.3394 13.0902 22.5973C13.3481 22.8551 13.6978 23 14.0625 23H18.6458C19.0105 23 19.3602 22.8551 19.6181 22.5973C19.876 22.3394 20.0208 21.9897 20.0208 21.625V2.375C20.0208 2.01033 19.876 1.66059 19.6181 1.40273C19.3602 1.14487 19.0105 1 18.6458 1V1ZM16.3542 18.875C16.5808 18.875 16.8023 18.9422 16.9908 19.0681C17.1792 19.194 17.3261 19.373 17.4128 19.5823C17.4995 19.7917 17.5222 20.0221 17.478 20.2444C17.4338 20.4666 17.3246 20.6708 17.1644 20.8311C17.0041 20.9913 16.8 21.1004 16.5777 21.1446C16.3554 21.1889 16.125 21.1662 15.9157 21.0794C15.7063 20.9927 15.5273 20.8459 15.4014 20.6574C15.2755 20.469 15.2083 20.2475 15.2083 20.0208C15.2088 19.7171 15.3297 19.4259 15.5445 19.2111C15.7593 18.9964 16.0504 18.8755 16.3542 18.875V18.875Z" fill="#0D2AB1"/>
<path d="M8.792 7.41663H4.9417C4.41009 7.41663 3.97913 7.51923 3.97913 7.64579V18.4166C3.97913 18.5432 4.41009 18.6458 4.9417 18.6458H8.792C9.32362 18.6458 9.75457 18.5432 9.75457 18.4166V7.64579C9.75457 7.51923 9.32362 7.41663 8.792 7.41663Z" fill="#153CF5"/>
</svg>
