<svg width="40" height="40" viewBox="0 0 40 40" fill="none" xmlns="http://www.w3.org/2000/svg">
<circle opacity="0.08" cx="20" cy="20" r="20" fill="#153CF5"/>
<path d="M32 26.3637C32 26.219 31.9425 26.0803 31.8402 25.978C31.7379 25.8757 31.5992 25.8182 31.4545 25.8182H22.7273C22.5826 25.8182 22.4439 25.8757 22.3416 25.978C22.2393 26.0803 22.1818 26.219 22.1818 26.3637V26.6353C22.1818 26.7077 22.1531 26.777 22.1019 26.8282C22.0508 26.8793 21.9814 26.908 21.9091 26.908H18.0909C18.0186 26.908 17.9492 26.8793 17.8981 26.8282C17.8469 26.777 17.8182 26.7077 17.8182 26.6353V26.3626C17.8182 26.2179 17.7607 26.0792 17.6584 25.9769C17.5561 25.8746 17.4174 25.8171 17.2727 25.8171H8.54545C8.40079 25.8171 8.26205 25.8746 8.15976 25.9769C8.05747 26.0792 8 26.2179 8 26.3626V28.5444C8 28.9784 8.1724 29.3946 8.47928 29.7015C8.78616 30.0084 9.20237 30.1808 9.63636 30.1808H30.3636C30.7976 30.1808 31.2138 30.0084 31.5207 29.7015C31.8276 29.3946 32 28.9784 32 28.5444V26.3637Z" fill="#0D2AB1"/>
<path d="M10.7273 24.1818C11.0166 24.1818 11.2941 24.0669 11.4987 23.8623C11.7032 23.6577 11.8182 23.3802 11.8182 23.0909V13.2727C11.8182 12.9834 11.9331 12.7059 12.1377 12.5013C12.3423 12.2968 12.6198 12.1818 12.9091 12.1818H27.0909C27.3802 12.1818 27.6577 12.2968 27.8623 12.5013C28.0669 12.7059 28.1818 12.9834 28.1818 13.2727V23.0909C28.1818 23.3802 28.2967 23.6577 28.5013 23.8623C28.7059 24.0669 28.9834 24.1818 29.2727 24.1818C29.562 24.1818 29.8395 24.0669 30.0441 23.8623C30.2487 23.6577 30.3636 23.3802 30.3636 23.0909V13.2727C30.3636 12.4047 30.0188 11.5723 29.4051 10.9586C28.7913 10.3448 27.9589 10 27.0909 10H12.9091C12.0411 10 11.2087 10.3448 10.5949 10.9586C9.98116 11.5723 9.63635 12.4047 9.63635 13.2727V23.0909C9.63635 23.3802 9.75129 23.6577 9.95587 23.8623C10.1605 24.0669 10.4379 24.1818 10.7273 24.1818Z" fill="#153CF5"/>
</svg>
