<svg width="24" height="21" viewBox="0 0 24 21" fill="none" xmlns="http://www.w3.org/2000/svg">
<path d="M24 16.7734C24 16.6287 23.9425 16.4899 23.8402 16.3877C23.7379 16.2854 23.5992 16.2279 23.4545 16.2279H14.7273C14.5826 16.2279 14.4439 16.2854 14.3416 16.3877C14.2393 16.4899 14.1818 16.6287 14.1818 16.7734V17.045C14.1818 17.1173 14.1531 17.1867 14.1019 17.2378C14.0508 17.289 13.9814 17.3177 13.9091 17.3177H10.0909C10.0186 17.3177 9.94921 17.289 9.89806 17.2378C9.84692 17.1867 9.81818 17.1173 9.81818 17.045V16.7723C9.81818 16.6276 9.76072 16.4889 9.65842 16.3866C9.55613 16.2843 9.41739 16.2268 9.27273 16.2268H0.545455C0.400791 16.2268 0.262052 16.2843 0.15976 16.3866C0.0574673 16.4889 0 16.6276 0 16.7723V18.9541C0 19.3881 0.172402 19.8043 0.47928 20.1112C0.786158 20.418 1.20237 20.5904 1.63636 20.5904H22.3636C22.7976 20.5904 23.2138 20.418 23.5207 20.1112C23.8276 19.8043 24 19.3881 24 18.9541V16.7734Z" fill="#0D2AB1"/>
<path d="M2.72726 14.5914C3.01659 14.5914 3.29407 14.4765 3.49865 14.2719C3.70324 14.0673 3.81817 13.7898 3.81817 13.5005V3.68233C3.81817 3.39301 3.93311 3.11553 4.13769 2.91095C4.34228 2.70636 4.61975 2.59143 4.90908 2.59143H19.0909C19.3802 2.59143 19.6577 2.70636 19.8623 2.91095C20.0669 3.11553 20.1818 3.39301 20.1818 3.68233V13.5005C20.1818 13.7898 20.2967 14.0673 20.5013 14.2719C20.7059 14.4765 20.9834 14.5914 21.2727 14.5914C21.562 14.5914 21.8395 14.4765 22.0441 14.2719C22.2487 14.0673 22.3636 13.7898 22.3636 13.5005V3.68233C22.3636 2.81435 22.0188 1.98192 21.4051 1.36817C20.7913 0.754411 19.9589 0.409607 19.0909 0.409607H4.90908C4.0411 0.409607 3.20867 0.754411 2.59491 1.36817C1.98116 1.98192 1.63635 2.81435 1.63635 3.68233V13.5005C1.63635 13.7898 1.75129 14.0673 1.95587 14.2719C2.16046 14.4765 2.43793 14.5914 2.72726 14.5914Z" fill="#153CF5"/>
</svg>
