<svg width="124" height="25" viewBox="0 0 124 25" fill="none" xmlns="http://www.w3.org/2000/svg">
<path d="M9.7046 3.85951C8.25181 3.85951 7.81598 4.49874 7.81598 5.92247V8.27598H11.7094L11.3317 12.1113H7.81598V23.7045H3.13801V12.1113H0V8.30503H3.13801V6.00963C3.13801 2.11617 4.70702 0.0822754 9.03632 0.0822754C9.93704 0.0822754 10.8668 0.140387 11.7676 0.25661V3.85951" fill="#CED3D9"/>
<path d="M12.0291 15.5108C12.0291 11.2105 14.063 7.9563 18.3632 7.9563C20.6877 7.9563 22.1114 9.14758 22.8087 10.6585V8.30497H27.2833V23.7335H22.7797V21.4091C22.1404 22.8909 20.6586 24.0532 18.3341 24.0532C14.063 24.0532 12 20.828 12 16.4987L12.0291 15.5108ZM16.707 16.5568C16.707 18.8522 17.5496 20.3921 19.7288 20.3921C21.6465 20.3921 22.6053 18.9975 22.6053 16.7892V15.2202C22.6053 13.012 21.6174 11.6173 19.7288 11.6173C17.5496 11.6173 16.707 13.1282 16.707 15.4527V16.5568V16.5568Z" fill="#CED3D9"/>
<path d="M36.9879 7.9563C38.7893 7.9563 40.5327 8.33402 41.4624 9.0023L40.4164 12.3147C39.4576 11.8498 38.3825 11.6173 37.3075 11.6173C34.7796 11.6173 33.6755 13.0701 33.6755 15.5689V16.4696C33.6755 18.9684 34.7796 20.4212 37.3075 20.4212C38.3825 20.4212 39.4576 20.1597 40.4164 19.6948L41.4624 23.0071C40.5327 23.6464 38.8184 24.0532 36.9879 24.0532C31.4963 24.0532 29.0266 21.1185 29.0266 16.3824V15.6561C29.0266 10.92 31.4963 7.9563 36.9879 7.9563" fill="#CED3D9"/>
<path d="M42.0726 16.5858V15.2202C42.0726 10.8328 44.5714 7.9563 49.6562 7.9563C54.4504 7.9563 56.5714 10.8619 56.5714 15.1621V17.6318H46.7506C46.8378 19.7529 47.7966 20.6827 50.3826 20.6827C52.0678 20.6827 53.753 20.3631 55.3511 19.7529L56.1937 22.949C54.9734 23.5883 52.4455 24.0822 50.2082 24.0822C44.2809 24.0531 42.0726 21.1185 42.0726 16.5858V16.5858ZM46.7506 14.5519H52.3874V14.1742C52.3874 12.489 51.7191 11.1524 49.6562 11.1524C47.5642 11.1524 46.7506 12.489 46.7506 14.5519Z" fill="#CED3D9"/>
<path d="M73.8886 16.4987C73.8886 20.799 71.8257 24.0532 67.5255 24.0532C65.201 24.0532 63.5739 22.891 62.9347 21.4091V23.7336H58.5182V0.54716L63.1962 0.140381V10.4551C63.8644 9.08953 65.3753 7.98542 67.5545 7.98542C71.8257 7.98542 73.9177 11.2106 73.9177 15.5399L73.8886 16.4987ZM69.2107 15.4237C69.2107 13.2445 68.3681 11.6174 66.1308 11.6174C64.2131 11.6174 63.1962 12.983 63.1962 15.1912V16.8183C63.1962 19.0266 64.2422 20.3922 66.1308 20.3922C68.3681 20.3922 69.2107 18.7651 69.2107 16.5859V15.4237Z" fill="#CED3D9"/>
<path d="M75.4286 16.3824V15.5979C75.4286 11.1524 77.9564 7.9563 83.0993 7.9563C88.2421 7.9563 90.77 11.1524 90.77 15.5979V16.3824C90.77 20.828 88.2421 24.0241 83.0993 24.0241C77.9564 24.0241 75.4286 20.857 75.4286 16.3824V16.3824ZM86.1211 15.2783C86.1211 13.2444 85.2785 11.6173 83.0993 11.6173C80.9201 11.6173 80.0775 13.2444 80.0775 15.2783V16.7311C80.0775 18.765 80.9201 20.3921 83.0993 20.3921C85.2785 20.3921 86.1211 18.765 86.1211 16.7311V15.2783V15.2783Z" fill="#CED3D9"/>
<path d="M92.368 16.3824V15.5979C92.368 11.1524 94.8959 7.9563 100.039 7.9563C105.182 7.9563 107.709 11.1524 107.709 15.5979V16.3824C107.709 20.828 105.182 24.0241 100.039 24.0241C94.8959 24.0241 92.368 20.857 92.368 16.3824V16.3824ZM103.061 15.2783C103.061 13.2444 102.218 11.6173 100.039 11.6173C97.8596 11.6173 97.017 13.2444 97.017 15.2783V16.7311C97.017 18.765 97.8596 20.3921 100.039 20.3921C102.218 20.3921 103.061 18.765 103.061 16.7311V15.2783V15.2783Z" fill="#CED3D9"/>
<path d="M114.131 15.6561L118.751 8.27598H123.69L118.867 15.9176L123.893 23.7336H118.925L114.131 16.1791V23.7336H109.482V0.547163L114.131 0.111328" fill="#CED3D9"/>
</svg>
