<svg width="24" height="25" viewBox="0 0 24 25" fill="none" xmlns="http://www.w3.org/2000/svg">
<path d="M12 0C9.62663 0 7.30655 0.716238 5.33316 2.05814C3.35977 3.40004 1.8217 5.30734 0.913451 7.53884C0.00519943 9.77034 -0.232441 12.2258 0.230582 14.5948C0.693605 16.9637 1.83649 19.1397 3.51472 20.8477C5.19295 22.5556 7.33115 23.7187 9.65892 24.1899C11.9867 24.6611 14.3995 24.4193 16.5922 23.495C18.7849 22.5706 20.6591 21.0054 21.9776 18.9971C23.2962 16.9888 24 14.6276 24 12.2123C23.9963 8.97454 22.7308 5.87049 20.4812 3.58106C18.2316 1.29163 15.1815 0.00377077 12 0V0ZM18.927 8.34506L12.082 17.7984C12.0012 17.9075 11.8998 17.9991 11.7838 18.068C11.6678 18.1368 11.5395 18.1814 11.4064 18.1992C11.2733 18.217 11.138 18.2077 11.0085 18.1717C10.879 18.1357 10.7578 18.0739 10.652 17.9897L5.764 14.0126C5.66144 13.929 5.57605 13.8258 5.5127 13.7087C5.44936 13.5915 5.4093 13.4629 5.39481 13.33C5.36556 13.0617 5.44224 12.7925 5.608 12.5817C5.77376 12.3709 6.01502 12.2357 6.2787 12.206C6.40925 12.1912 6.54139 12.2028 6.66755 12.24C6.79372 12.2773 6.91144 12.3394 7.014 12.4229L11.09 15.7416L17.317 7.14113C17.392 7.02665 17.489 6.92882 17.6021 6.85356C17.7153 6.77831 17.8423 6.72718 17.9754 6.70328C18.1085 6.67937 18.245 6.68319 18.3767 6.71449C18.5083 6.74579 18.6323 6.80392 18.7413 6.88538C18.8502 6.96684 18.9418 7.06994 19.0105 7.18843C19.0792 7.30693 19.1235 7.43836 19.1409 7.5748C19.1582 7.71123 19.1482 7.84983 19.1115 7.98222C19.0747 8.11461 19.012 8.23804 18.927 8.34506Z" fill="#858C95"/>
</svg>
