<svg width="24" height="25" viewBox="0 0 24 25" fill="none" xmlns="http://www.w3.org/2000/svg">
<path d="M12 0C9.62663 0 7.30655 0.716239 5.33316 2.05815C3.35977 3.40005 1.8217 5.30735 0.913451 7.53886C0.00519943 9.77037 -0.232441 12.2259 0.230582 14.5948C0.693605 16.9638 1.83649 19.1398 3.51472 20.8477C5.19295 22.5556 7.33115 23.7187 9.65892 24.19C11.9867 24.6612 14.3995 24.4193 16.5922 23.495C18.7849 22.5707 20.6591 21.0054 21.9776 18.9971C23.2962 16.9888 24 14.6277 24 12.2123C23.9963 8.97456 22.7308 5.8705 20.4812 3.58107C18.2316 1.29163 15.1815 0.00377078 12 0V0ZM18.927 8.34508L12.082 17.7984C12.0012 17.9075 11.8998 17.9992 11.7838 18.068C11.6678 18.1368 11.5395 18.1814 11.4064 18.1992C11.2733 18.2171 11.138 18.2077 11.0085 18.1717C10.879 18.1358 10.7578 18.0739 10.652 17.9897L5.764 14.0126C5.66144 13.9291 5.57605 13.8258 5.5127 13.7087C5.44936 13.5916 5.4093 13.4629 5.39481 13.33C5.36556 13.0617 5.44224 12.7925 5.608 12.5817C5.77376 12.3709 6.01502 12.2358 6.2787 12.206C6.40925 12.1913 6.54139 12.2028 6.66755 12.2401C6.79372 12.2773 6.91144 12.3394 7.014 12.423L11.09 15.7417L17.317 7.14115C17.392 7.02667 17.489 6.92884 17.6021 6.85358C17.7153 6.77832 17.8423 6.7272 17.9754 6.70329C18.1085 6.67939 18.245 6.6832 18.3767 6.7145C18.5083 6.7458 18.6323 6.80394 18.7413 6.8854C18.8502 6.96686 18.9418 7.06996 19.0105 7.18845C19.0792 7.30695 19.1235 7.43838 19.1409 7.57482C19.1582 7.71125 19.1482 7.84985 19.1115 7.98224C19.0747 8.11464 19.012 8.23807 18.927 8.34508Z" fill="white"/>
</svg>
