<svg width="27" height="26" viewBox="0 0 27 26" fill="none" xmlns="http://www.w3.org/2000/svg">
<path d="M0.118652 2.98034C0.118652 2.11646 0.41892 1.40377 1.01943 0.842271C1.61994 0.280748 2.40063 0 3.36145 0C4.30513 0 5.06863 0.27642 5.652 0.829313C6.25251 1.39947 6.55278 2.14237 6.55278 3.05809C6.55278 3.8874 6.26111 4.57848 5.67774 5.13137C5.07723 5.70153 4.28797 5.9866 3.30998 5.9866H3.28424C2.34056 5.9866 1.57706 5.70153 0.993694 5.13137C0.410324 4.56122 0.118652 3.8442 0.118652 2.98034ZM0.453227 25.6569V8.34496H6.16673V25.6569H0.453227ZM9.33232 25.6569H15.0458V15.9902C15.0458 15.3855 15.1145 14.919 15.2517 14.5907C15.4919 14.0033 15.8565 13.5066 16.3455 13.1006C16.8345 12.6945 17.4479 12.4915 18.1857 12.4915C20.1073 12.4915 21.0682 13.796 21.0682 16.4048V25.6569H26.7817V15.731C26.7817 13.174 26.1812 11.2346 24.9801 9.91288C23.7791 8.59116 22.192 7.9303 20.2189 7.9303C18.0055 7.9303 16.2812 8.8892 15.0458 10.807V10.8588H15.0201L15.0458 10.807V8.34496H9.33232C9.36663 8.89783 9.38379 10.6169 9.38379 13.5023C9.38379 16.3876 9.36663 20.4391 9.33232 25.6569Z" fill="#1A83BB"/>
</svg>
