<svg width="26" height="27" viewBox="0 0 26 27" fill="none" xmlns="http://www.w3.org/2000/svg">
<path d="M7.39697 18.6193L18.5925 7.42377" stroke="#153CF5" stroke-width="2" stroke-linecap="round" stroke-linejoin="round"/>
<path d="M8.4477 13.045C7.77704 13.0064 7.10578 13.1099 6.47791 13.3487C5.85005 13.5876 5.27974 13.9565 4.80436 14.4311L2.40533 16.8301C1.50551 17.73 1 18.9504 1 20.2229C1 20.853 1.12411 21.4769 1.36523 22.0591C1.60636 22.6412 1.95979 23.1701 2.40533 23.6157C2.85087 24.0612 3.37981 24.4146 3.96194 24.6558C4.54408 24.8969 5.168 25.021 5.7981 25.021C7.07063 25.021 8.29105 24.5155 9.19086 23.6157L11.5899 21.2166C12.0645 20.7413 12.4334 20.171 12.6723 19.5431C12.9111 18.9152 13.0146 18.244 12.976 17.5733" stroke="#153CF5" stroke-width="2" stroke-linecap="round" stroke-linejoin="round"/>
<path d="M17.5428 12.997C18.2135 13.0356 18.8847 12.932 19.5126 12.6932C20.1404 12.4543 20.7107 12.0855 21.1861 11.6109L23.5852 9.21186C24.485 8.31204 24.9905 7.09163 24.9905 5.81909C24.9905 4.54656 24.485 3.32614 23.5852 2.42633C22.6854 1.52651 21.4649 1.021 20.1924 1.021C18.9199 1.021 17.6995 1.52651 16.7996 2.42633L14.4006 4.82536C13.9271 5.30132 13.5593 5.87185 13.3214 6.49967C13.0835 7.12748 12.9807 7.79844 13.0198 8.46869" stroke="#153CF5" stroke-width="2" stroke-linecap="round" stroke-linejoin="round"/>
</svg>
