<svg width="31" height="31" viewBox="0 0 31 31" fill="none" xmlns="http://www.w3.org/2000/svg">
<path d="M15.0749 0C12.0934 0 9.17882 0.88413 6.69976 2.54058C4.2207 4.19704 2.2885 6.55142 1.14752 9.30601C0.00653176 12.0606 -0.292002 15.0917 0.289667 18.0159C0.871337 20.9402 2.30709 23.6263 4.41535 25.7345C6.52362 27.8428 9.20972 29.2785 12.134 29.8602C15.0582 30.4419 18.0893 30.1433 20.8439 29.0024C23.5985 27.8614 25.9528 25.9292 27.6093 23.4501C29.2657 20.9711 30.1499 18.0565 30.1499 15.0749C30.1452 11.0782 28.5555 7.24658 25.7294 4.42049C22.9033 1.5944 19.0716 0.00465467 15.0749 0V0ZM23.7769 10.3012L15.178 21.9705C15.0764 22.1052 14.9491 22.2183 14.8034 22.3032C14.6577 22.3882 14.4965 22.4433 14.3293 22.4652C14.162 22.4872 13.9921 22.4757 13.8294 22.4313C13.6667 22.3869 13.5144 22.3105 13.3815 22.2066L7.241 17.2972C7.11216 17.1941 7.00488 17.0667 6.92531 16.9221C6.84573 16.7775 6.7954 16.6187 6.7772 16.4547C6.74045 16.1234 6.83679 15.7912 7.04503 15.531C7.25326 15.2707 7.55634 15.1039 7.88758 15.0672C8.05159 15.049 8.21759 15.0632 8.37608 15.1092C8.53457 15.1552 8.68246 15.2319 8.81131 15.335L13.9318 19.4316L21.7544 8.81507C21.8486 8.67375 21.9704 8.55299 22.1126 8.4601C22.2547 8.3672 22.4143 8.30409 22.5815 8.27458C22.7487 8.24507 22.9202 8.24978 23.0856 8.28842C23.251 8.32705 23.4068 8.39882 23.5436 8.49937C23.6805 8.59993 23.7955 8.72719 23.8818 8.87346C23.9681 9.01973 24.0238 9.18198 24.0456 9.35039C24.0674 9.51881 24.0549 9.6899 24.0087 9.85332C23.9625 10.0167 23.8837 10.1691 23.7769 10.3012Z" fill="#153CF5"/>
</svg>
