<svg width="32" height="37" viewBox="0 0 32 37" fill="none" xmlns="http://www.w3.org/2000/svg">
<path d="M28.6923 31.0001C28.6923 32.2242 28.206 33.3981 27.3405 34.2637C26.4749 35.1292 25.301 35.6155 24.0769 35.6155H5.61538C4.39131 35.6155 3.21737 35.1292 2.35182 34.2637C1.48626 33.3981 1 32.2242 1 31.0001V17.154C1 15.9299 1.48626 14.7559 2.35182 13.8904C3.21737 13.0248 4.39131 12.5386 5.61538 12.5386H24.0769C25.301 12.5386 26.4749 13.0248 27.3405 13.8904C28.206 14.7559 28.6923 15.9299 28.6923 17.154" stroke="#153CF5" stroke-width="1.5" stroke-linecap="round" stroke-linejoin="round"/>
<path d="M7.92285 12.5385V7.92308C7.92285 6.08696 8.65225 4.32605 9.95057 3.02772C11.2489 1.72939 13.0098 1 14.8459 1C16.682 1 18.443 1.72939 19.7413 3.02772C21.0396 4.32605 21.769 6.08696 21.769 7.92308V12.5385" stroke="#153CF5" stroke-width="1.5" stroke-linecap="round" stroke-linejoin="round"/>
<path d="M21.7695 21.769H31.0003" stroke="#153CF5" stroke-width="1.5" stroke-linecap="round" stroke-linejoin="round"/>
<path d="M21.7695 26.3848H31.0003" stroke="#153CF5" stroke-width="1.5" stroke-linecap="round" stroke-linejoin="round"/>
</svg>
