<svg width="26" height="26" viewBox="0 0 26 26" fill="none" xmlns="http://www.w3.org/2000/svg">
<path d="M6.59292 25.908C5.04669 25.8377 4.20673 25.5804 3.64805 25.3625C2.90778 25.0743 2.38 24.7312 1.82441 24.1764C1.26882 23.6215 0.924956 23.0938 0.638274 22.3535C0.420364 21.7948 0.163046 20.9549 0.0927274 19.4086C0.0154546 17.7372 0 17.2357 0 13.0012C0 8.76661 0.017 8.26588 0.0919547 6.59292C0.162273 5.04669 0.421137 4.20828 0.637501 3.64805C0.925729 2.90778 1.26959 2.38 1.82364 1.82364C2.37846 1.26882 2.90623 0.924183 3.64728 0.637501C4.20596 0.419592 5.04592 0.162273 6.59215 0.0919547C8.26433 0.0154546 8.76661 0 12.9996 0C17.2342 0 17.7349 0.017 19.4079 0.0919547C20.9541 0.162273 21.7925 0.421137 22.3527 0.637501C23.093 0.924183 23.6208 1.26882 24.1764 1.82364C24.732 2.37846 25.0743 2.90701 25.3625 3.64728C25.5804 4.20596 25.8377 5.04592 25.908 6.59215C25.9845 8.26511 26 8.76583 26 13.0004C26 17.2334 25.9845 17.7357 25.908 19.4086C25.8377 20.9549 25.5789 21.7948 25.3625 22.3535C25.0743 23.0938 24.7312 23.6215 24.1764 24.1764C23.6215 24.7312 23.093 25.0743 22.3527 25.3625C21.794 25.5804 20.9541 25.8377 19.4079 25.908C17.7364 25.9845 17.2342 26 12.9996 26C8.76661 26 8.26433 25.9853 6.59292 25.908" fill="url(#paint0_radial)"/>
<path d="M6.59292 25.908C5.04669 25.8377 4.20673 25.5804 3.64805 25.3625C2.90778 25.0743 2.38 24.7312 1.82441 24.1764C1.26882 23.6215 0.924956 23.0938 0.638274 22.3535C0.420364 21.7948 0.163046 20.9549 0.0927274 19.4086C0.0154546 17.7372 0 17.2357 0 13.0012C0 8.76661 0.017 8.26588 0.0919547 6.59292C0.162273 5.04669 0.421137 4.20828 0.637501 3.64805C0.925729 2.90778 1.26959 2.38 1.82364 1.82364C2.37846 1.26882 2.90623 0.924183 3.64728 0.637501C4.20596 0.419592 5.04592 0.162273 6.59215 0.0919547C8.26433 0.0154546 8.76661 0 12.9996 0C17.2342 0 17.7349 0.017 19.4079 0.0919547C20.9541 0.162273 21.7925 0.421137 22.3527 0.637501C23.093 0.924183 23.6208 1.26882 24.1764 1.82364C24.732 2.37846 25.0743 2.90701 25.3625 3.64728C25.5804 4.20596 25.8377 5.04592 25.908 6.59215C25.9845 8.26511 26 8.76583 26 13.0004C26 17.2334 25.9845 17.7357 25.908 19.4086C25.8377 20.9549 25.5789 21.7948 25.3625 22.3535C25.0743 23.0938 24.7312 23.6215 24.1764 24.1764C23.6215 24.7312 23.093 25.0743 22.3527 25.3625C21.794 25.5804 20.9541 25.8377 19.4079 25.908C17.7364 25.9845 17.2342 26 12.9996 26C8.76661 26 8.26433 25.9853 6.59292 25.908" fill="url(#paint1_radial)"/>
<path d="M9.80784 13.0556C9.80784 11.2775 11.2489 9.83563 13.027 9.83563C14.8052 9.83563 16.247 11.2775 16.247 13.0556C16.247 14.8337 14.8052 16.2756 13.027 16.2756C11.2489 16.2756 9.80784 14.8337 9.80784 13.0556V13.0556ZM8.06719 13.0556C8.06719 15.7949 10.2877 18.0154 13.027 18.0154C15.7664 18.0154 17.9869 15.7949 17.9869 13.0556C17.9869 10.3163 15.7664 8.09576 13.027 8.09576C10.2877 8.09576 8.06727 10.3161 8.06727 13.0556H8.06719ZM17.0242 7.8991C17.0241 8.12834 17.092 8.35247 17.2193 8.54313C17.3466 8.73379 17.5275 8.88243 17.7393 8.97024C17.9511 9.05806 18.1841 9.08111 18.409 9.03647C18.6338 8.99184 18.8404 8.88153 19.0026 8.71949C19.1647 8.55745 19.2752 8.35097 19.32 8.12614C19.3648 7.90132 19.342 7.66825 19.2543 7.45642C19.1667 7.24459 19.0182 7.06351 18.8276 6.93607C18.6371 6.80863 18.413 6.74056 18.1838 6.74047H18.1833C17.876 6.74061 17.5813 6.86271 17.364 7.07995C17.1467 7.29719 17.0245 7.59181 17.0242 7.8991V7.8991ZM9.12475 20.918C8.18302 20.8751 7.67117 20.7182 7.33101 20.5857C6.88005 20.4101 6.55828 20.201 6.21998 19.8632C5.88168 19.5253 5.67227 19.2039 5.49748 18.7529C5.36488 18.4129 5.20802 17.9009 5.16521 16.9592C5.11838 15.941 5.10903 15.6352 5.10903 13.0557C5.10903 10.4763 5.11915 10.1713 5.16521 9.15231C5.2081 8.21058 5.36612 7.69958 5.49748 7.35857C5.67305 6.90761 5.88215 6.58584 6.21998 6.24754C6.55782 5.90924 6.87928 5.69983 7.33101 5.52504C7.67101 5.39244 8.18302 5.23558 9.12475 5.19277C10.1429 5.14594 10.4487 5.13659 13.027 5.13659C15.6053 5.13659 15.9115 5.14656 16.9305 5.19292C17.8722 5.23581 18.3832 5.39383 18.7242 5.5252C19.1752 5.69999 19.4969 5.90986 19.8352 6.2477C20.1735 6.58554 20.3822 6.90776 20.5577 7.35873C20.6903 7.69873 20.8472 8.21074 20.89 9.15246C20.9368 10.1715 20.9462 10.4765 20.9462 13.0559C20.9462 15.6353 20.9368 15.9403 20.89 16.9593C20.8471 17.9011 20.6895 18.4129 20.5577 18.7531C20.3822 19.204 20.1731 19.5258 19.8352 19.8633C19.4974 20.2009 19.1752 20.4103 18.7242 20.5858C18.3842 20.7184 17.8722 20.8753 16.9305 20.9181C15.9123 20.9649 15.6065 20.9743 13.027 20.9743C10.4476 20.9743 10.1426 20.9649 9.12475 20.9181V20.918ZM9.04477 3.45498C8.0165 3.50181 7.31386 3.66485 6.70024 3.90363C6.06513 4.1502 5.52677 4.48101 4.98918 5.01775C4.45159 5.55448 4.12164 6.09292 3.87506 6.7288C3.63629 7.34281 3.47324 8.04507 3.42642 9.07334C3.37882 10.1032 3.36792 10.4325 3.36792 13.0556C3.36792 15.6787 3.37882 16.008 3.42642 17.0378C3.47324 18.0662 3.63629 18.7684 3.87506 19.3824C4.12164 20.0175 4.45167 20.5569 4.98918 21.0934C5.52669 21.6299 6.06436 21.9603 6.70024 22.2076C7.31502 22.4463 8.0165 22.6094 9.04477 22.6562C10.0752 22.703 10.4039 22.7147 13.027 22.7147C15.6501 22.7147 15.9794 22.7038 17.0093 22.6562C18.0376 22.6094 18.7398 22.4463 19.3538 22.2076C19.9889 21.9603 20.5273 21.6302 21.0649 21.0934C21.6025 20.5567 21.9317 20.0175 22.179 19.3824C22.4178 18.7684 22.5816 18.0661 22.6276 17.0378C22.6745 16.0072 22.6854 15.6787 22.6854 13.0556C22.6854 10.4325 22.6745 10.1032 22.6276 9.07334C22.5808 8.04499 22.4178 7.34242 22.179 6.7288C21.9317 6.09369 21.6016 5.55533 21.0649 5.01775C20.5281 4.48016 19.9889 4.1502 19.3546 3.90363C18.7398 3.66485 18.0376 3.50103 17.0101 3.45498C15.98 3.40792 15.6509 3.39648 13.0282 3.39648C10.4055 3.39648 10.0756 3.40738 9.04516 3.45498" fill="white"/>
<defs>
<radialGradient id="paint0_radial" cx="0" cy="0" r="1" gradientUnits="userSpaceOnUse" gradientTransform="translate(1.68269 25.4304) scale(33.0103)">
<stop offset="0.09" stop-color="#FA8F21"/>
<stop offset="0.78" stop-color="#D82D7E"/>
</radialGradient>
<radialGradient id="paint1_radial" cx="0" cy="0" r="1" gradientUnits="userSpaceOnUse" gradientTransform="translate(18.0093 24.5956) scale(29.0494)">
<stop offset="0.64" stop-color="#8C3AAA" stop-opacity="0"/>
<stop offset="1" stop-color="#8C3AAA"/>
</radialGradient>
</defs>
</svg>
