<svg width="22" height="22" viewBox="0 0 22 22" fill="none" xmlns="http://www.w3.org/2000/svg">
<path fill-rule="evenodd" clip-rule="evenodd" d="M11 1.46667C5.73489 1.46667 1.46667 5.73489 1.46667 11C1.46667 16.2651 5.73489 20.5333 11 20.5333C16.2651 20.5333 20.5333 16.2651 20.5333 11C20.5333 5.73489 16.2651 1.46667 11 1.46667ZM0 11C0 4.92487 4.92487 0 11 0C17.0751 0 22 4.92487 22 11C22 17.0751 17.0751 22 11 22C4.92487 22 0 17.0751 0 11Z" fill="#153CF5"/>
<path fill-rule="evenodd" clip-rule="evenodd" d="M11.0002 6.60004C11.4052 6.60004 11.7335 6.92836 11.7335 7.33337V11C11.7335 11.405 11.4052 11.7334 11.0002 11.7334C10.5952 11.7334 10.2668 11.405 10.2668 11V7.33337C10.2668 6.92836 10.5952 6.60004 11.0002 6.60004Z" fill="#153CF5"/>
<path fill-rule="evenodd" clip-rule="evenodd" d="M10.4817 10.4814C10.7681 10.195 11.2324 10.1951 11.5188 10.4815L16.1016 15.0653C16.388 15.3517 16.3879 15.8161 16.1015 16.1024C15.8151 16.3888 15.3508 16.3887 15.0644 16.1023L10.4816 11.5185C10.1952 11.2321 10.1953 10.7677 10.4817 10.4814Z" fill="#153CF5"/>
</svg>
