<svg width="22" height="22" viewBox="0 0 22 22" fill="none" xmlns="http://www.w3.org/2000/svg">
<path fill-rule="evenodd" clip-rule="evenodd" d="M11 1.75C5.89137 1.75 1.75 5.89137 1.75 11C1.75 16.1086 5.89137 20.25 11 20.25C16.1086 20.25 20.25 16.1086 20.25 11C20.25 5.89137 16.1086 1.75 11 1.75ZM0.25 11C0.25 5.06294 5.06294 0.25 11 0.25C16.9371 0.25 21.75 5.06294 21.75 11C21.75 16.9371 16.9371 21.75 11 21.75C5.06294 21.75 0.25 16.9371 0.25 11Z" fill="#153CF5"/>
<path fill-rule="evenodd" clip-rule="evenodd" d="M11 6.67859C11.4142 6.67859 11.75 7.01438 11.75 7.42859V11C11.75 11.4142 11.4142 11.75 11 11.75C10.5858 11.75 10.25 11.4142 10.25 11V7.42859C10.25 7.01438 10.5858 6.67859 11 6.67859Z" fill="#153CF5"/>
<path fill-rule="evenodd" clip-rule="evenodd" d="M10.4697 10.4696C10.7627 10.1768 11.2375 10.1768 11.5304 10.4697L15.9942 14.9345C16.2871 15.2274 16.287 15.7023 15.9941 15.9951C15.7012 16.288 15.2263 16.288 14.9334 15.995L10.4696 11.5303C10.1768 11.2373 10.1768 10.7625 10.4697 10.4696Z" fill="#153CF5"/>
</svg>
