<svg width="18" height="22" viewBox="0 0 18 22" fill="none" xmlns="http://www.w3.org/2000/svg">
<path fill-rule="evenodd" clip-rule="evenodd" d="M8.97549 5.52335C7.06896 5.52335 5.52341 7.0689 5.52341 8.97543C5.52341 10.882 7.06896 12.4275 8.97549 12.4275C10.882 12.4275 12.4276 10.882 12.4276 8.97543C12.4276 7.0689 10.882 5.52335 8.97549 5.52335ZM4.14258 8.97543C4.14258 6.30629 6.30635 4.14252 8.97549 4.14252C11.6446 4.14252 13.8084 6.30629 13.8084 8.97543C13.8084 11.6446 11.6446 13.8083 8.97549 13.8083C6.30635 13.8083 4.14258 11.6446 4.14258 8.97543Z" fill="#153CF5"/>
<path fill-rule="evenodd" clip-rule="evenodd" d="M8.97541 1.38083C6.9612 1.38083 5.02949 2.18097 3.60523 3.60523C2.18097 5.02949 1.38083 6.9612 1.38083 8.97541C1.38083 12.3944 2.87792 15.0766 4.59483 17.0333C6.31503 18.9938 8.22846 20.1923 8.97495 20.619C9.7211 20.1929 11.635 18.9949 13.3556 17.0343C15.0727 15.0778 16.57 12.3953 16.57 8.97541C16.57 6.9612 15.7699 5.02949 14.3456 3.60523C12.9213 2.18097 10.9896 1.38083 8.97541 1.38083ZM2.62884 2.62884C4.31205 0.945621 6.59499 0 8.97541 0C11.3558 0 13.6388 0.945621 15.322 2.62884C17.0052 4.31205 17.9508 6.59498 17.9508 8.97541C17.9508 12.8279 16.2575 15.8211 14.3934 17.9452C12.5332 20.0648 10.4757 21.3521 9.65938 21.8183C9.45093 21.9374 9.21501 22 8.97495 22C8.73489 22 8.49898 21.9374 8.29052 21.8183L8.29035 21.8182C7.47421 21.3517 5.41696 20.0639 3.55691 17.9441C1.6931 15.8199 0 12.827 0 8.97541C5.48694e-08 6.59498 0.945621 4.31205 2.62884 2.62884Z" fill="#153CF5"/>
</svg>
