<svg width="142" height="37" viewBox="0 0 142 37" fill="none" xmlns="http://www.w3.org/2000/svg">
<path fill-rule="evenodd" clip-rule="evenodd" d="M45.3145 28.732L47.071 24.6502C48.9684 26.069 51.4963 26.8065 53.9904 26.8065C55.8315 26.8065 56.9969 26.0971 56.9969 25.0218C56.9687 22.0153 45.9675 24.3687 45.8831 16.83C45.8549 13.0016 49.2555 10.0514 54.0749 10.0514C56.9406 10.0514 59.8007 10.7608 61.8444 12.3766L60.2004 16.5429C58.3312 15.3493 56.006 14.4992 53.7934 14.4992C52.2901 14.4992 51.2992 15.2086 51.2992 16.115C51.3274 19.0652 62.413 17.4493 62.5256 24.6502C62.5256 28.5631 59.2095 31.3162 54.4464 31.3162C50.9558 31.3106 47.7523 30.4886 45.3145 28.732V28.732ZM112.768 23.1751C111.89 24.7065 110.246 25.7537 108.343 25.7537C105.534 25.7537 103.271 23.4848 103.271 20.681C103.271 17.8772 105.539 15.6083 108.343 15.6083C110.241 15.6083 111.89 16.6555 112.768 18.1869L117.616 15.4957C115.803 12.264 112.312 10.0514 108.343 10.0514C102.471 10.0514 97.708 14.8145 97.708 20.6866C97.708 26.5588 102.471 31.3219 108.343 31.3219C112.341 31.3219 115.803 29.1374 117.616 25.8776L112.768 23.1751ZM64.9634 1.22906H71.0327V30.9165H64.9634V1.22906ZM119.998 1.22906V30.9165H126.067V22.0097L133.268 30.9165H141.037L131.877 20.3376L140.356 10.468H132.924L126.061 18.6598V1.22906H119.998Z" fill="black"/>
<path d="M89.0652 23.2314C88.1869 24.6783 86.374 25.7537 84.3303 25.7537C81.5209 25.7537 79.2576 23.4848 79.2576 20.681C79.2576 17.8772 81.5265 15.6083 84.3303 15.6083C86.374 15.6083 88.1869 16.7399 89.0652 18.215V23.2314ZM89.0652 10.4736V12.8833C88.0743 11.2112 85.6084 10.0457 83.0241 10.0457C77.6925 10.0457 73.498 14.7525 73.498 20.6528C73.498 26.5532 77.6925 31.3162 83.0241 31.3162C85.6027 31.3162 88.0687 30.1564 89.0652 28.4786V30.8883H95.1345V10.4736H89.0652Z" fill="black"/>
<path fill-rule="evenodd" clip-rule="evenodd" d="M7.80149 23.2033C7.80149 25.2751 6.12935 26.9473 4.05748 26.9473C1.98561 26.9473 0.313477 25.2695 0.313477 23.2033C0.313477 21.137 1.98561 19.4593 4.05748 19.4593H7.80149V23.2033ZM9.67068 23.2033C9.67068 21.1314 11.3428 19.4593 13.4147 19.4593C15.4866 19.4593 17.1587 21.1314 17.1587 23.2033V32.5605C17.1587 34.6323 15.4866 36.3045 13.4147 36.3045C11.3428 36.3045 9.67068 34.6323 9.67068 32.5605V23.2033Z" fill="#E01E5A"/>
<path fill-rule="evenodd" clip-rule="evenodd" d="M13.4145 8.17655C11.3426 8.17655 9.67051 6.50441 9.67051 4.43254C9.67051 2.36067 11.3426 0.688538 13.4145 0.688538C15.4864 0.688538 17.1585 2.36067 17.1585 4.43254V8.17655H13.4145ZM13.4145 10.0739C15.4864 10.0739 17.1585 11.746 17.1585 13.8179C17.1585 15.8898 15.4864 17.5619 13.4145 17.5619H4.02916C1.95729 17.5619 0.285156 15.8841 0.285156 13.8179C0.285156 11.7517 1.95729 10.0739 4.02916 10.0739H13.4145Z" fill="#36C5F0"/>
<path fill-rule="evenodd" clip-rule="evenodd" d="M28.4129 13.8179C28.4129 11.7461 30.085 10.0739 32.1569 10.0739C34.2287 10.0739 35.9009 11.7461 35.9009 13.8179C35.9009 15.8898 34.2287 17.5619 32.1569 17.5619H28.4129V13.8179ZM26.5437 13.8179C26.5437 15.8898 24.8715 17.5619 22.7997 17.5619C20.7278 17.5619 19.0557 15.8898 19.0557 13.8179V4.43257C19.0557 2.3607 20.7278 0.688568 22.7997 0.688568C24.8715 0.688568 26.5437 2.3607 26.5437 4.43257V13.8179Z" fill="#2EB67D"/>
<path fill-rule="evenodd" clip-rule="evenodd" d="M22.7997 28.8165C24.8715 28.8165 26.5437 30.4886 26.5437 32.5605C26.5437 34.6323 24.8715 36.3045 22.7997 36.3045C20.7278 36.3045 19.0557 34.6323 19.0557 32.5605V28.8165H22.7997ZM22.7997 26.9473C20.7278 26.9473 19.0557 25.2751 19.0557 23.2033C19.0557 21.1314 20.7278 19.4593 22.7997 19.4593H32.185C34.2569 19.4593 35.929 21.1314 35.929 23.2033C35.929 25.2751 34.2569 26.9473 32.185 26.9473H22.7997Z" fill="#ECB22E"/>
</svg>
