<svg width="141" height="41" viewBox="0 0 141 41" fill="none" xmlns="http://www.w3.org/2000/svg">
<path d="M15.8978 1.2685C16.1792 1.2685 16.3199 1.40919 16.6013 1.54988C14.913 2.25332 13.2247 4.08228 12.3806 8.02156L9.28545 8.86569C10.2703 6.05192 12.2399 1.2685 15.8978 1.2685ZM17.4454 2.67539C17.7268 3.51952 18.0081 4.50434 18.0081 6.05192C18.0081 6.1926 18.0081 6.1926 18.0081 6.33329L13.9282 7.4588C14.7723 4.50434 16.1792 3.23814 17.4454 2.67539ZM21.1033 5.20778L19.2743 5.77054C19.2743 5.62985 19.2743 5.48916 19.2743 5.34847C19.2743 4.08228 19.1336 3.09745 18.8523 2.25332C19.8371 2.5347 20.6812 3.8009 21.1033 5.20778ZM30.248 7.4588C30.248 7.31811 30.1074 7.17742 29.9667 7.17742C29.6853 7.17742 26.7308 6.89605 26.7308 6.89605C26.7308 6.89605 24.6205 4.78572 24.3391 4.64503C24.0577 4.36365 23.6357 4.50434 23.495 4.50434C23.495 4.50434 23.0729 4.64503 22.3695 4.92641C21.666 2.95677 20.3998 1.12781 18.2895 1.12781H18.1488C17.5861 0.283683 16.7419 0.00230627 16.0385 0.00230627C10.9737 -0.138382 8.582 6.1926 7.73787 9.42844C6.61236 9.70982 5.48685 10.1319 4.22066 10.5539C3.09515 10.8353 3.09515 10.976 2.95446 11.9608C2.81377 12.6643 0 34.8931 0 34.8931L22.3695 39.1137L34.4687 36.4406C34.4687 36.4406 30.248 7.74018 30.248 7.4588Z" fill="#8DB849"/>
<path d="M29.8259 7.17748C29.6852 7.17748 26.7307 6.8961 26.7307 6.8961C26.7307 6.8961 24.6204 4.78577 24.339 4.64508C24.1983 4.50439 24.1983 4.50439 24.0576 4.50439L22.3694 39.1138L34.4686 36.4407C34.4686 36.4407 30.2479 7.74023 30.2479 7.45885C30.2479 7.31817 29.9666 7.17748 29.8259 7.17748Z" fill="#5A863E"/>
<path d="M18.2894 13.9305L16.7418 18.4325C16.7418 18.4325 15.4756 17.7291 13.7873 17.7291C11.3956 17.7291 11.2549 19.136 11.2549 19.558C11.2549 21.5277 16.6011 22.3718 16.6011 27.1552C16.6011 30.9538 14.2094 33.3455 10.9736 33.3455C7.17496 33.3455 5.20532 30.9538 5.20532 30.9538L6.19014 27.5773C6.19014 27.5773 8.15978 29.2655 9.84805 29.2655C10.9736 29.2655 11.3956 28.4214 11.3956 27.718C11.3956 25.0449 7.03427 24.9042 7.03427 20.5428C7.03427 16.8849 9.70736 13.3677 14.9128 13.3677C17.3045 13.227 18.2894 13.9305 18.2894 13.9305Z" fill="#FFFFFE"/>
<path d="M48.6782 22.2312C47.412 21.5278 46.8492 20.965 46.8492 20.2616C46.8492 19.2768 47.6934 18.714 49.1003 18.714C50.6478 18.714 52.0547 19.4174 52.0547 19.4174L53.1802 16.0409C53.1802 16.0409 52.1954 15.1968 49.2409 15.1968C45.0203 15.1968 42.2065 17.5885 42.2065 20.965C42.2065 22.9347 43.6134 24.3416 45.3017 25.3264C46.7086 26.1705 47.2713 26.7333 47.2713 27.5774C47.2713 28.4215 46.5679 29.2656 45.161 29.2656C43.1913 29.2656 41.2217 28.2808 41.2217 28.2808L40.0962 31.6574C40.0962 31.6574 41.7845 32.7829 44.7389 32.7829C48.9596 32.7829 52.0547 30.6725 52.0547 26.8739C52.0547 24.7636 50.5071 23.216 48.6782 22.2312ZM65.7015 15.0561C63.5912 15.0561 61.9029 16.0409 60.6367 17.5885L62.4657 8.02168H57.6823L53.0395 32.3608H57.823L59.3705 24.0602C59.9333 20.965 61.6215 18.9954 63.1691 18.9954C64.2946 18.9954 64.7167 19.6988 64.7167 20.8243C64.7167 21.5278 64.7167 22.2312 64.576 22.9347L62.7471 32.5015H67.5305L69.3594 22.6533C69.5001 21.6685 69.6408 20.4023 69.6408 19.5581C69.6408 16.7444 68.2339 15.0561 65.7015 15.0561ZM77.9414 28.9843C76.2532 28.9843 75.6904 27.5774 75.6904 25.8891C75.6904 23.216 77.0973 18.714 79.6297 18.714C81.3179 18.714 81.8807 20.1209 81.8807 21.5278C81.8807 24.6229 80.4738 28.9843 77.9414 28.9843ZM80.3331 15.0561C74.5649 15.0561 70.7663 20.2616 70.7663 26.0298C70.7663 29.6877 73.0173 32.6422 77.3787 32.6422C83.0062 32.6422 86.8048 27.5774 86.8048 21.6685C86.8048 18.2919 84.8352 15.0561 80.3331 15.0561ZM94.402 29.125C93.1358 29.125 92.4323 28.4215 92.4323 28.4215L93.2765 23.9195C93.8392 20.965 95.3868 18.9954 97.0751 18.9954C98.482 18.9954 99.0447 20.4023 99.0447 21.6685C98.904 24.7636 97.0751 29.125 94.402 29.125ZM99.0447 15.0561C95.8089 15.0561 93.9799 17.8699 93.9799 17.8699L94.2613 15.3375H90.0406C89.9 17.0257 89.4779 19.6988 89.0558 21.6685L85.6793 39.1138H90.4627L91.7289 32.0794H91.8696C91.8696 32.0794 92.8544 32.6422 94.6834 32.6422C100.311 32.6422 103.969 26.8739 103.969 21.1057C103.969 18.0106 102.562 15.0561 99.0447 15.0561ZM110.722 8.30305C109.174 8.30305 108.049 9.56925 108.049 11.1168C108.049 12.5237 108.893 13.5085 110.3 13.5085C111.847 13.5085 113.114 12.5237 113.114 10.6948C113.114 9.28787 112.129 8.30305 110.722 8.30305ZM104.109 32.3608H108.893L112.129 15.4782H107.345L104.109 32.3608ZM124.228 15.4782H120.851L120.992 14.634C121.274 12.9458 122.258 11.5389 123.806 11.5389C124.65 11.5389 125.353 11.8203 125.353 11.8203L126.338 8.02168C126.338 8.02168 125.494 7.59961 123.806 7.59961C122.118 7.59961 120.429 8.02167 119.163 9.14718C117.475 10.5541 116.771 12.5237 116.349 14.4933L116.209 15.3375H113.958L113.254 18.9954H115.505L112.973 32.3608H117.756L120.289 18.9954H123.525L124.228 15.4782ZM135.624 15.4782C135.624 15.4782 132.669 22.9347 131.262 27.0146C131.122 25.7484 130.137 15.4782 130.137 15.4782H125.072L127.886 30.9539C127.886 31.2353 127.886 31.5167 127.745 31.798C127.182 32.9236 126.198 33.9084 125.213 34.6118C124.369 35.3153 123.243 35.7373 122.54 36.0187L123.806 40.0987C124.791 39.958 126.76 39.1138 128.449 37.5663C130.559 35.5966 132.669 32.3608 134.639 28.1401L140.407 15.6189L135.624 15.4782Z" fill="#1A1919"/>
</svg>
