<svg width="149" height="38" viewBox="0 0 149 38" fill="none" xmlns="http://www.w3.org/2000/svg">
<path d="M48.0923 14.5511C48.0923 11.8979 45.5124 9.08012 41.0478 9.08012C36.0343 9.08012 30.5268 12.7579 29.6851 20.0952C28.8251 27.5057 33.4361 30.7992 38.0836 30.7992C42.7312 30.7992 45.1647 28.9878 47.6532 26.5725C45.5124 23.8828 42.7495 25.127 42.2188 25.4015C41.6333 25.6942 40.8831 26.0968 39.3461 26.0968C37.553 26.0968 35.7232 25.2917 35.7232 21.9432C47.214 20.8088 48.0923 17.2042 48.0923 14.5511V14.5511ZM42.4018 14.9902C42.3286 15.8136 41.9993 17.2225 36.1807 18.0093C37.4066 13.6545 39.7487 13.3251 40.8282 13.3251C41.8346 13.3251 42.475 14.1119 42.4018 14.9902ZM22.9333 15.7038C22.9333 15.7038 20.4632 23.4619 20.2619 24.1023C20.1887 23.4436 18.3772 9.51926 18.3772 9.51926C14.1688 9.51926 11.9182 12.52 10.7289 15.6855C10.7289 15.6855 7.72811 23.4619 7.47195 24.1206C7.45365 23.5168 7.01451 15.777 7.01451 15.777C6.75835 11.8979 3.20864 9.53756 0.335938 9.53756L3.81246 30.6345C8.22215 30.6162 10.6008 27.6338 11.845 24.4683C11.845 24.4683 14.4982 17.6067 14.608 17.2957C14.6263 17.5884 16.5109 30.6345 16.5109 30.6345C20.9389 30.6345 23.3176 27.835 24.5984 24.7793L30.8012 9.53756C26.4281 9.53756 24.1226 12.52 22.9333 15.7038V15.7038ZM64.3405 9.04353C61.6142 9.04353 59.5282 10.5256 57.7717 12.703V12.6847L59.3453 0.00457764C55.7224 0.00457764 52.7765 3.15174 52.2093 7.83589L49.4646 30.4699C51.5506 30.4699 53.7645 29.866 54.9539 28.3291C56.0151 29.7014 57.607 30.7992 59.9674 30.7992C66.0787 30.7992 70.2689 23.6998 70.2689 17.0395C70.2323 10.9648 67.2864 9.04353 64.3405 9.04353V9.04353ZM63.7733 19.9305C63.1329 23.6449 61.0652 26.17 59.0708 26.17C57.0581 26.17 56.1981 25.2734 56.1981 25.2734C56.5824 22.0164 56.8202 20.022 57.5521 18.302C58.284 16.5821 60.0223 13.8375 61.8337 13.8375C63.6086 13.8375 64.4137 16.1978 63.7733 19.9305V19.9305ZM85.529 9.53756H81.2656L81.2839 9.31799C81.5767 6.53677 82.2354 5.07298 84.4128 4.83511C85.8949 4.68873 86.5536 3.92024 86.7183 3.07855C86.8464 2.41984 87.2489 0.13266 87.2489 0.13266C78.6857 0.0777675 75.996 3.77386 75.3007 9.40948L75.2824 9.53756H75.1909C73.8003 9.53756 72.2633 11.1111 72.0071 13.1056L71.9156 13.8375H74.77L72.3731 33.6353L71.6412 37.185C71.7327 37.185 71.8424 37.2033 71.9339 37.2033C75.9411 37.057 78.5027 33.8915 79.0699 29.2988L80.9363 13.8375H82.272C83.5894 13.8375 85.1264 12.52 85.4009 10.3243L85.529 9.53756ZM107.705 9.17161C102.783 9.17161 98.1359 12.7945 96.7087 18.485C95.2815 24.1755 97.4406 30.909 104.686 30.909C111.914 30.909 116.086 23.9011 116.086 18.0642C116.086 12.2639 112.152 9.17161 107.705 9.17161V9.17161ZM109.7 19.7475C109.444 22.3275 108.309 26.2431 105.199 26.2431C102.07 26.2431 102.509 21.6688 102.82 19.4914C103.149 17.1676 104.449 13.8558 107.248 13.8558C109.755 13.8558 109.993 16.8382 109.7 19.7475ZM140.403 15.7038C140.403 15.7038 137.933 23.4619 137.732 24.1023C137.658 23.4436 135.847 9.51926 135.847 9.51926C131.639 9.51926 129.388 12.52 128.199 15.6855C128.199 15.6855 125.198 23.4619 124.942 24.1206C124.923 23.5168 124.484 15.777 124.484 15.777C124.228 11.8979 120.678 9.53756 117.806 9.53756L121.264 30.6345C125.674 30.6162 128.052 27.6338 129.296 24.4683C129.296 24.4683 131.95 17.6067 132.041 17.2957C132.078 17.5884 133.944 30.6345 133.944 30.6345C138.372 30.6345 140.751 27.835 142.032 24.7793L148.234 9.53756C143.88 9.53756 141.574 12.52 140.403 15.7038V15.7038ZM89.5544 0.13266L85.9681 29.061L85.2362 32.629C85.3277 32.629 85.4375 32.6473 85.529 32.6473C89.3897 32.5924 92.1343 29.2073 92.6467 24.944L94.7143 8.34822C95.3364 3.27982 92.3173 0.13266 89.5544 0.13266V0.13266Z" fill="#153CF5"/>
</svg>
