<svg width="151" height="31" viewBox="0 0 151 31" fill="none" xmlns="http://www.w3.org/2000/svg">
<path d="M9.56588 29.6243H3.87618V15.4406H0.000244141V10.8227H3.87602V7.53668C3.87602 3.64278 5.59029 0.850098 11.2646 0.850098C12.4647 0.850098 14.3488 1.09199 14.3488 1.09199V5.38H12.3699C10.3535 5.38 9.56618 5.99334 9.56618 7.68903V10.8227H14.2733L13.8542 15.4406H9.56603L9.56588 29.6243ZM22.621 10.4536C22.5381 10.4536 22.4528 10.4567 22.3684 10.4588C17.0926 10.4588 14.6788 14.4273 14.6788 20.0606C14.6788 27.1572 17.8098 29.9974 22.4096 29.9974C25.0414 29.9974 26.7704 28.8897 27.8214 26.8226V29.6263H33.2331V10.8246H27.8214V13.7161C26.9633 11.8558 25.1859 10.4757 22.621 10.4536ZM23.9971 14.8964C26.2129 14.8964 27.5429 16.442 27.5429 19.071L27.5481 21.7562C27.5481 23.5281 26.4496 25.6012 23.9971 25.6012C20.2267 25.6012 20.3274 21.53 20.3274 20.174C20.3274 15.6129 22.3363 14.8964 23.9971 14.8964ZM35.4186 20.2264C35.4186 17.9417 35.3093 10.4659 45.0492 10.4659C48.9589 10.4659 50.5915 11.709 50.5915 11.709L49.2793 15.7788C49.2793 15.7788 47.6489 14.881 45.5244 14.881C42.8032 14.881 41.0669 16.4585 41.0669 19.2339L41.07 21.2241C41.07 23.891 42.7453 25.6712 45.5299 25.6712C47.4654 25.6712 49.2493 24.7649 49.2493 24.7649L50.5581 28.7497C50.5581 28.7497 49.0654 30.0007 45.0765 30.0007C35.8026 30.0007 35.4188 23.2935 35.4188 20.2264H35.4186ZM82.3224 10.4588C87.5983 10.4588 90.0502 14.4273 90.0502 20.0606C90.0502 27.1572 86.919 29.9974 82.3192 29.9974C79.6875 29.9974 77.742 28.8899 76.6911 26.8226V29.6263L71.3475 29.6242V1.42177L77.021 0.926955V13.4613C77.8399 11.2684 80.5309 10.4588 82.3225 10.4588H82.3224ZM80.7318 14.8964C78.5159 14.8964 77.021 16.442 77.021 19.071L77.0157 21.7562C77.0124 23.5281 78.051 25.6012 80.7318 25.6012C84.5022 25.6012 84.4014 21.53 84.4014 20.174C84.4014 15.6129 82.3927 14.8964 80.7318 14.8964ZM60.4356 10.4743C54.4516 10.4743 51.2924 13.7369 51.2924 19.5349V20.6121C51.2924 28.1373 55.7289 30.0747 61.018 30.0747C66.1589 30.0747 68.486 28.6368 68.486 28.6368L67.4243 24.8075C67.4243 24.8075 64.687 25.9722 61.6982 25.9722C58.5998 25.9722 57.2672 25.1824 56.9257 22.2048H68.9395V19.1328C68.9395 12.8435 65.394 10.4742 60.4354 10.4742L60.4356 10.4743ZM60.5798 14.3087C62.6511 14.3087 63.9933 15.5789 63.9197 18.5247H56.9361C57.0572 15.4243 58.5046 14.3089 60.5798 14.3089V14.3087ZM101.363 10.4485C95.2179 10.4485 91.9828 13.9115 91.9828 20.1173C91.9828 28.632 97.5594 30.0026 101.373 30.0026C106.957 30.0026 110.671 26.9967 110.671 20.1946C110.671 13.1148 106.495 10.4485 101.363 10.4485V10.4485ZM101.286 14.9118C103.988 14.9118 105.059 16.9341 105.059 19.236V21.2152C105.059 24.0038 103.56 25.6167 101.275 25.6167C99.1386 25.6167 97.6367 24.108 97.6367 21.2152V19.236C97.6367 16.1509 99.4238 14.9118 101.286 14.9118V14.9118ZM121.974 10.4485C115.829 10.4485 112.594 13.9115 112.594 20.1173C112.594 28.632 118.17 30.0026 121.984 30.0026C127.567 30.0026 131.282 26.9967 131.282 20.1946C131.282 13.1148 127.105 10.4485 121.974 10.4485V10.4485ZM121.896 14.9118C124.599 14.9118 125.669 16.9341 125.669 19.236V21.2152C125.669 24.0038 124.171 25.6167 121.886 25.6167C119.749 25.6167 118.247 24.108 118.247 21.2152V19.236C118.247 16.1509 120.035 14.9118 121.896 14.9118V14.9118ZM133.426 29.6243V1.42177L139.116 0.926955V19.8301L144.761 10.8227H150.77L144.881 20.1517L150.997 29.6243H144.971L139.116 20.4265V29.6243H133.426Z" fill="#1877F2"/>
</svg>
