<svg width="119" height="60" viewBox="0 0 119 60" fill="none" xmlns="http://www.w3.org/2000/svg">
<path d="M41.7679 56.2732L48.1204 35.8938L34.8646 25.7224L0.568359 59.3209H37.3982L41.7312 56.3467L41.7679 56.2732V56.2732ZM84.2526 25.7224L70.9968 35.8938L77.386 56.3467L81.6822 59.3209H118.549L84.2526 25.7224V25.7224Z" fill="#6D91A3"/>
<path d="M78.0839 14.1186L64.0937 14.0819L59.5771 0.679199L55.0239 14.0819L41.0337 14.1186L52.1965 22.7477L48.1206 35.9301L59.5771 28.0721L70.997 35.9301L66.8844 22.7477L78.0839 14.1186V14.1186ZM59.6139 44.2288L59.5771 44.1921L37.3984 59.3206H81.6824L59.6139 44.2288Z" fill="#0DB14B"/>
</svg>
