<svg width="159" height="37" viewBox="0 0 159 37" fill="none" xmlns="http://www.w3.org/2000/svg">
<path fill-rule="evenodd" clip-rule="evenodd" d="M53.7938 24.3535L53.7628 23.946H50.3398L50.3589 24.4043C50.5694 29.503 54.032 32.8815 60.1894 32.8815C66.0624 32.8815 70.0564 29.8516 70.0564 25.2652C70.0564 22.7857 69.19 21.0306 67.5388 19.8329C66.2681 18.9109 64.7504 18.3907 62.2321 17.849L61.6785 17.7315L61.1297 17.6171C56.5552 16.6665 55.105 15.8381 55.105 13.3761C55.105 10.8292 57.2017 9.20744 60.7199 9.20744C64.1429 9.20744 66.3055 11.2827 66.4063 14.55L66.4198 14.9764H69.8182L69.8079 14.5269C69.6895 9.43378 66.2483 6.00606 60.6858 6.00606C55.2337 6.00606 51.6336 9.26383 51.6336 13.481C51.6336 15.9541 52.4992 17.6759 54.1528 18.8259C55.4123 19.7027 56.8721 20.1681 59.4468 20.6843C59.7098 20.7372 59.9729 20.7891 60.2363 20.84C62.672 21.3181 63.7466 21.6135 64.7274 22.1798C65.9449 22.8826 66.5485 23.8865 66.5485 25.4415C66.5485 28.1418 64.2628 29.6801 60.2601 29.6801C56.4289 29.6801 54.0511 27.7725 53.7938 24.3535V24.3535ZM77.2097 5.60658V5.1666H73.832V32.4614H77.2097V27.311L80.7661 23.8452L87.1165 32.2858L87.2483 32.4606H91.4504L90.9143 31.7545L83.159 21.5309L90.3115 14.407L91.066 13.6541H86.4755L86.3461 13.7844L77.2097 22.993V5.60658V5.60658ZM109.009 24.1803H109.426L109.452 23.7658C109.466 23.542 109.477 23.318 109.484 23.0939C109.487 22.9795 109.489 22.8755 109.489 22.7833C109.489 17.2335 105.8 13.145 100.348 13.145C94.9075 13.145 91.031 17.4972 91.031 22.9954C91.031 28.6532 94.732 32.8815 100.384 32.8815C104.658 32.8815 107.96 30.3544 109.15 26.5216L109.328 25.949H105.786L105.681 26.2428C104.934 28.3411 102.911 29.7333 100.419 29.7333C97.163 29.7333 94.8916 27.504 94.4826 24.1803H109.01H109.009ZM94.3865 21.5436C94.9567 18.5146 97.132 16.5045 100.094 16.5045C103.146 16.5045 105.253 18.4486 105.713 21.5436H94.3873H94.3865ZM120.376 16.6101H120.815V13.6223H116.698V8.52602H113.321V13.6223H109.908V16.6101H113.321V27.1363C113.321 30.5894 115.114 32.4614 118.405 32.4614C118.979 32.4614 119.475 32.4272 119.89 32.3692C120.148 32.3335 120.325 32.2962 120.422 32.2692L120.745 32.1802V29.0519L120.211 29.1671C120.055 29.1987 119.897 29.2263 119.739 29.2496C119.403 29.3008 119.063 29.3286 118.722 29.333C117.28 29.333 116.698 28.6564 116.698 26.9608V16.6101H120.376V16.6101ZM130.853 32.8815C135.491 32.8815 138.767 29.9072 139.589 25.6988L139.693 25.1707H136.312L136.226 25.4995C135.522 28.1846 133.609 29.7325 130.853 29.7325C127.414 29.7325 125.041 26.9846 125.041 23.0311C125.041 19.0467 127.409 16.2932 130.853 16.2932C133.609 16.2932 135.522 17.8419 136.226 20.527L136.312 20.8558H139.693L139.589 20.3277C138.767 16.1185 135.491 13.145 130.853 13.145C125.464 13.145 121.654 17.5282 121.654 23.0311C121.654 28.5031 125.47 32.8815 130.853 32.8815V32.8815ZM145.999 5.60578V5.1666H142.629V32.4614H145.999V21.4197C145.999 18.1905 147.959 16.2956 150.933 16.2956C153.773 16.2956 155.199 17.9451 155.199 21.0679V32.4614H158.57V20.5739C158.57 16.1622 155.847 13.2308 151.355 13.2308C149.044 13.2308 147.186 14.0806 145.999 15.2989V5.60658V5.60578Z" fill="black"/>
<path fill-rule="evenodd" clip-rule="evenodd" d="M8.78614 1.73651L20.1351 0.547607L31.4849 1.73651L40.2718 13.4246L20.1359 36.6603L0 13.4246L8.78614 1.73651Z" fill="#FDB300"/>
<path fill-rule="evenodd" clip-rule="evenodd" d="M8.15634 13.5652L20.1359 36.6602L0 13.5652H8.15634Z" fill="#EA6C00"/>
<path fill-rule="evenodd" clip-rule="evenodd" d="M32.1179 13.5652L20.1375 36.6602L40.2734 13.5652H32.1179Z" fill="#EA6C00"/>
<path fill-rule="evenodd" clip-rule="evenodd" d="M7.97363 13.5652H31.8851L19.9294 36.6602L7.97363 13.5652Z" fill="#FDAD00"/>
<path fill-rule="evenodd" clip-rule="evenodd" d="M19.7197 0.547577L8.59151 1.74919L7.97363 13.5652L19.7197 0.547577Z" fill="#FDD231"/>
<path fill-rule="evenodd" clip-rule="evenodd" d="M20.1328 0.547577L31.261 1.74919L31.8789 13.5652L20.1328 0.547577Z" fill="#FDD231"/>
<path fill-rule="evenodd" clip-rule="evenodd" d="M40.2734 13.5652L31.4635 1.80716L32.0957 13.5652H40.2734Z" fill="#FDAD00"/>
<path fill-rule="evenodd" clip-rule="evenodd" d="M0 13.5652L8.80917 1.80716L8.17699 13.5652H0Z" fill="#FDAD00"/>
<path fill-rule="evenodd" clip-rule="evenodd" d="M19.9294 0.547577L7.97363 13.5652H31.8851L19.9294 0.547577Z" fill="#FEEEB7"/>
</svg>
