<svg width="157" height="39" viewBox="0 0 157 39" fill="none" xmlns="http://www.w3.org/2000/svg">
<path d="M68.9848 4.5685C66.3206 1.90426 62.7048 0.381836 58.8988 0.381836H38.0606V38.4424H52.3333V14.6546H56.9006C58.1376 14.6546 59.3745 15.1303 60.2309 16.0818L65.1788 21.0297C66.0352 21.8861 66.6061 23.123 66.6061 24.36V38.4424H80.8788V22.3618C80.8788 18.5558 79.3564 14.94 76.6921 12.2758L68.9848 4.5685V4.5685ZM142.727 0.381836V14.4643C142.727 15.7012 142.252 16.9382 141.3 17.7946L136.352 22.7424C135.496 23.5988 134.259 24.1697 133.022 24.1697H126.171C127.598 21.8861 128.455 19.2218 128.455 16.4624V0.381836H114.182V14.4643C114.182 15.7012 113.706 16.9382 112.755 17.7946L107.807 22.7424C106.95 23.5988 105.713 24.1697 104.476 24.1697H99.9091V0.381836H85.6364V38.4424H106.475C110.281 38.4424 113.896 36.92 116.561 34.2558L121.318 29.4982V38.4424H135.02C138.826 38.4424 142.442 36.92 145.106 34.2558L152.813 26.5485C155.478 23.8843 157 20.2685 157 16.4624V0.381836H142.727ZM0 14.6546H9.51515V38.4424H23.7879V14.6546H33.303V0.381836H0V14.6546Z" fill="#FF4422"/>
</svg>
