<svg width="108" height="38" viewBox="0 0 108 38" fill="none" xmlns="http://www.w3.org/2000/svg">
<path d="M6.69282 26.5734C7.14576 27.7754 7.77283 28.8032 8.57417 29.6566C9.3755 30.5102 10.3248 31.1635 11.4222 31.6164C12.5197 32.0693 13.7129 32.2957 15.002 32.2957C16.2562 32.2957 17.432 32.0605 18.5294 31.5901C19.6269 31.1197 20.5849 30.4579 21.4036 29.6044C22.2223 28.7508 22.8581 27.7318 23.3111 26.5473C23.764 25.3627 23.9904 24.039 23.9904 22.5756V0H29.4775V36.5808H24.0427V33.184C22.8233 34.473 21.3861 35.4659 19.7313 36.1628C18.0764 36.8595 16.291 37.2079 14.3749 37.2079C12.4238 37.2079 10.6035 36.8682 8.91378 36.1888C7.22416 35.5095 5.76082 34.5428 4.52413 33.2885C3.28744 32.0343 2.31185 30.5277 1.5977 28.7682C0.883441 27.0089 0.526367 25.0493 0.526367 22.8891V0H6.01348V22.5756C6.01348 24.039 6.23989 25.3714 6.69282 26.5734ZM38.9358 0V13.3258C40.1552 12.1065 41.5662 11.1398 43.1688 10.4256C44.7713 9.71129 46.5133 9.35422 48.3946 9.35422C50.3456 9.35422 52.1745 9.71996 53.8817 10.4516C55.5888 11.1832 57.0693 12.1761 58.3236 13.4304C59.5779 14.6846 60.5708 16.1652 61.3024 17.8723C62.034 19.5795 62.3998 21.3911 62.3998 23.3073C62.3998 25.2233 62.034 27.0262 61.3024 28.7159C60.5708 30.4056 59.5779 31.8776 58.3236 33.1316C57.0693 34.3859 55.5888 35.3788 53.8817 36.1105C52.1745 36.8421 50.3455 37.2078 48.3946 37.2078C46.5132 37.2078 44.7627 36.8507 43.1427 36.1365C41.5226 35.4223 40.1029 34.4555 38.8836 33.2362V36.5807H33.6578V0H38.9358ZM39.5368 26.913C40.007 28.028 40.6604 29.0034 41.4965 29.8396C42.3326 30.6757 43.3081 31.3377 44.4229 31.8255C45.5379 32.3132 46.7398 32.5571 48.0288 32.5571C49.2831 32.5571 50.4675 32.3132 51.5823 31.8255C52.6971 31.3377 53.6638 30.6758 54.4827 29.8396C55.3014 29.0036 55.9546 28.028 56.4424 26.913C56.9301 25.7982 57.174 24.5963 57.174 23.3073C57.174 22.0182 56.9301 20.8075 56.4424 19.6752C55.9546 18.543 55.3014 17.5588 54.4827 16.7227C53.664 15.8867 52.6973 15.2333 51.5823 14.763C50.4674 14.2928 49.283 14.0575 48.0288 14.0575C46.7747 14.0575 45.5901 14.2927 44.4753 14.763C43.3605 15.2334 42.385 15.8867 41.5488 16.7227C40.7128 17.5588 40.0508 18.543 39.563 19.6752C39.0753 20.8075 38.8314 22.0182 38.8314 23.3073C38.8313 24.5963 39.0665 25.7982 39.5368 26.913V26.913ZM65.378 17.9247C66.0747 16.2524 67.0329 14.7805 68.2522 13.5089C69.4714 12.2373 70.9174 11.2357 72.5897 10.5041C74.2619 9.77246 76.0736 9.40671 78.0245 9.40671C79.9407 9.40671 81.7175 9.75512 83.3549 10.4518C84.9923 11.1486 86.4032 12.1154 87.5878 13.3522C88.7723 14.5889 89.6957 16.0522 90.3574 17.7419C91.0194 19.4316 91.3504 21.2693 91.3504 23.2552V24.9798H69.6632C69.8375 26.0598 70.1859 27.0614 70.7084 27.9845C71.2311 28.9077 71.8842 29.709 72.6681 30.3884C73.4519 31.0678 74.3403 31.5992 75.3333 31.9822C76.3262 32.3655 77.38 32.5572 78.4949 32.5572C81.6653 32.5572 84.226 31.2506 86.177 28.6377L89.9918 31.4596C88.6679 33.2364 87.0306 34.63 85.0796 35.6403C83.1285 36.6506 80.9337 37.1558 78.495 37.1558C76.5091 37.1558 74.654 36.8073 72.9295 36.1106C71.205 35.4139 69.7069 34.4383 68.4353 33.184C67.1637 31.9298 66.1621 30.4579 65.4305 28.7682C64.6989 27.0786 64.333 25.2408 64.333 23.255C64.3328 21.3738 64.6813 19.597 65.378 17.9247V17.9247ZM72.7203 15.8604C71.2396 17.0972 70.2555 18.7434 69.7678 20.7988H86.0202C85.5672 18.7434 84.6004 17.0972 83.1197 15.8604C81.6391 14.6237 79.9059 14.0053 77.9201 14.0053C75.9342 14.0053 74.201 14.6237 72.7203 15.8604V15.8604ZM101.227 16.4613C100.112 17.6807 99.5546 19.3355 99.5546 21.4259V36.581H94.2764V9.92914H99.5022V13.2214C100.164 12.1414 101.026 11.2878 102.089 10.6607C103.152 10.0336 104.415 9.71996 105.878 9.71996H107.707V14.6323H105.512C103.77 14.6324 102.342 15.242 101.227 16.4613Z" fill="#010202"/>
</svg>
