<svg width="247" height="35" viewBox="0 0 247 35" fill="none" xmlns="http://www.w3.org/2000/svg">
<path d="M81.3555 8.11792H98.3115V12.9531H92.5492V28.3856H87.0518V12.8868H81.3555V8.11792Z" fill="#0A9202"/>
<path d="M104.67 12.8215C96.1595 12.8215 95.4302 28.9165 104.64 28.9165C108.908 28.9165 110.83 26.9949 110.83 26.9949L109.041 23.6169C109.041 23.6169 107.551 25.0415 105.3 25.1073C103.046 25.1728 102.617 23.4183 102.55 22.226H111.426C111.426 22.2263 112.286 12.8215 104.67 12.8215ZM102.649 19.0469C102.649 19.0469 103.047 16.6962 104.769 16.6962C106.492 16.6962 106.89 19.0469 106.89 19.0469H102.649Z" fill="#0A9202"/>
<path d="M123.779 19.0138L127.157 16.3313C127.157 16.3313 125.666 12.8215 121.229 12.8215C116.791 12.8215 114.142 16.6957 114.142 20.7028C114.142 24.7098 116.493 28.9165 120.898 28.9165C125.302 28.9165 127.157 25.3059 127.157 25.3059L124.11 22.6896C124.11 22.6896 123.182 24.544 121.262 24.544C119.341 24.544 119.341 21.6296 119.341 20.6693C119.341 19.7088 119.771 17.1259 121.295 17.1259C122.818 17.1261 123.779 19.0138 123.779 19.0138Z" fill="#0A9202"/>
<path d="M130.452 9.45954L135.618 7.22412V14.0793C135.618 14.0793 137.407 12.8215 139.443 12.8215C141.48 12.8215 144.369 15.1066 144.369 17.7473C144.369 20.8353 144.369 28.3858 144.369 28.3858H139.195V18.6991C139.195 18.6991 138.905 17.1592 137.411 17.1592C135.916 17.1592 135.618 18.4507 135.618 19.2455C135.618 20.0403 135.618 28.3858 135.618 28.3858H130.452V9.45954Z" fill="#0A9202"/>
<path d="M226.41 18.7484L229.788 16.066C229.788 16.066 228.297 12.5562 223.86 12.5562C219.422 12.5562 216.772 16.4303 216.772 20.4374C216.772 24.4444 219.124 28.6511 223.528 28.6511C227.933 28.6511 229.787 25.0408 229.787 25.0408L226.741 22.4244C226.741 22.4244 225.813 24.2789 223.893 24.2789C221.972 24.2789 221.972 21.3645 221.972 20.4042C221.972 19.444 222.402 16.8607 223.926 16.8607C225.449 16.8607 226.41 18.7484 226.41 18.7484Z" fill="black"/>
<path d="M233.083 9.19416L238.249 6.95874V13.8139C238.249 13.8139 240.038 12.5561 242.074 12.5561C244.111 12.5561 247 14.8413 247 17.482C247 20.5699 247 28.1204 247 28.1204H241.826V18.4337C241.826 18.4337 241.536 16.8938 240.042 16.8938C238.547 16.8938 238.249 18.1853 238.249 18.9801C238.249 19.7749 238.249 28.1204 238.249 28.1204H233.083V9.19416V9.19416Z" fill="black"/>
<path d="M160.307 15.7187L165.175 13.6324C165.175 13.6324 163.735 7.87012 157.078 7.87012C150.422 7.87012 147.689 14.328 147.689 17.8052C147.689 21.2824 149.031 28.9168 156.432 28.9168C163.834 28.9168 165.175 23.7664 165.175 23.7664L160.605 21.1335C160.605 21.1335 159.512 23.8159 157.028 23.8159C154.545 23.8159 153.551 19.7426 153.551 17.8052C153.551 15.8679 154.445 12.5893 156.929 12.5893C159.413 12.5893 160.307 15.7187 160.307 15.7187Z" fill="black"/>
<path d="M168.521 13.2182H173.687V14.2116C173.687 14.2116 175.136 13.011 176.75 13.011C178.042 13.011 179.25 13.5152 179.25 13.5152L178.257 18.7816C178.257 18.7816 176.932 17.457 175.806 17.5233C174.68 17.5896 173.753 18.2606 173.753 19.0797C173.753 19.9076 173.736 28.3857 173.736 28.3857H168.521V13.2182Z" fill="black"/>
<path d="M181.966 13.0115H187.231V22.7231C187.231 22.7231 187.281 24.437 188.945 24.437C190.609 24.437 190.808 22.6734 190.808 22.6734V13.0115H195.875V28.3862H190.709V27.3928C190.709 27.3928 188.821 28.9169 186.735 28.9169C184.648 28.9169 181.966 27.045 181.966 23.9156C181.966 20.7857 181.966 13.0115 181.966 13.0115Z" fill="black"/>
<path d="M213.659 28.6512H208.394V18.9396C208.394 18.9396 208.344 17.2258 206.68 17.2258C205.016 17.2258 204.817 18.9893 204.817 18.9893V28.6512H199.75V13.2765H204.916V14.2699C204.916 14.2699 206.804 12.7458 208.89 12.7458C210.977 12.7458 213.659 14.6177 213.659 17.7471C213.659 20.8765 213.659 28.6512 213.659 28.6512Z" fill="black"/>
<path d="M33.5172 0.424805H0V11.5185H11.0953V34.3994H22.4218V11.5185H33.5172V0.424805ZM44.6125 0.424805H67.0343V11.5185H44.6125V0.424805ZM44.6125 22.7161V11.5185H33.5172V34.3994H67.0343V22.7325L44.6125 22.7161Z" fill="#0A9202"/>
</svg>
