<svg width="72" height="72" viewBox="0 0 72 72" fill="none" xmlns="http://www.w3.org/2000/svg">
<path d="M72 0H0V72H72V0Z" fill="#F26625"/>
<path d="M33.6001 40.8L21.1201 17.52H26.8801L34.0801 32.16C34.0801 32.4 34.3201 32.64 34.5601 32.88C34.8001 33.12 34.8001 33.36 35.0401 33.84L35.2801 34.08V34.32C35.5201 34.8 35.5201 35.04 35.7601 35.52C36.0001 35.76 36.0001 36.24 36.2401 36.48C36.4801 35.76 36.9601 35.28 37.2001 34.32C37.4401 33.6 37.9201 32.88 38.4001 32.16L45.6001 17.52H50.8801L38.4001 41.04V55.92H33.6001V40.8Z" fill="white"/>
</svg>
