<svg width="149" height="33" viewBox="0 0 149 33" fill="none" xmlns="http://www.w3.org/2000/svg">
<path d="M148.065 15.1038V12.5087H144.843V8.47434L144.734 8.50774L141.707 9.43386L141.648 9.45199V12.5088H136.87V10.8059C136.87 10.013 137.047 9.40617 137.397 9.00149C137.744 8.60167 138.24 8.3984 138.873 8.3984C139.328 8.3984 139.799 8.5056 140.274 8.717L140.393 8.7701V6.03715L140.337 6.01659C139.894 5.85758 139.293 5.7775 138.547 5.7775C137.607 5.7775 136.753 5.98205 136.008 6.38744C135.263 6.7934 134.676 7.37293 134.266 8.10977C133.857 8.84576 133.649 9.69579 133.649 10.6365V12.5087H131.405V15.1038H133.649V26.0363H136.87V15.1038H141.648V22.0512C141.648 24.9125 142.997 26.3625 145.659 26.3625C146.096 26.3625 146.557 26.3112 147.027 26.2109C147.505 26.1078 147.831 26.0049 148.023 25.895L148.065 25.8699V23.2508L147.934 23.3375C147.759 23.4539 147.542 23.5491 147.287 23.6199C147.03 23.692 146.816 23.7281 146.65 23.7281C146.027 23.7281 145.565 23.5601 145.279 23.2285C144.99 22.8939 144.843 22.3088 144.843 21.4904V15.1038H148.065ZM124.211 23.7286C123.042 23.7286 122.12 23.3409 121.471 22.5772C120.817 21.8097 120.486 20.7154 120.486 19.3251C120.486 17.8907 120.817 16.768 121.471 15.9869C122.121 15.211 123.034 14.8171 124.185 14.8171C125.302 14.8171 126.191 15.1933 126.828 15.9357C127.468 16.6819 127.793 17.7956 127.793 19.2467C127.793 20.7157 127.487 21.8441 126.885 22.5989C126.287 23.348 125.387 23.7286 124.211 23.7286V23.7286ZM124.354 12.1828C122.124 12.1828 120.352 12.8364 119.089 14.1255C117.826 15.4148 117.186 17.1989 117.186 19.4289C117.186 21.5469 117.811 23.2505 119.044 24.4917C120.276 25.7332 121.953 26.3622 124.028 26.3622C126.191 26.3622 127.927 25.6994 129.19 24.3925C130.452 23.0869 131.092 21.3196 131.092 19.1418C131.092 16.9907 130.492 15.2743 129.307 14.0415C128.122 12.808 126.456 12.1828 124.354 12.1828V12.1828ZM111.993 12.1828C110.475 12.1828 109.22 12.5709 108.261 13.3362C107.297 14.106 106.807 15.1156 106.807 16.3373C106.807 16.9724 106.913 17.5365 107.121 18.015C107.33 18.495 107.653 18.9177 108.083 19.2724C108.51 19.6243 109.169 19.9928 110.041 20.3678C110.775 20.6697 111.322 20.9251 111.67 21.1264C112.01 21.3236 112.251 21.5219 112.387 21.715C112.519 21.904 112.586 22.1627 112.586 22.4818C112.586 23.3907 111.906 23.8329 110.505 23.8329C109.986 23.8329 109.393 23.7244 108.744 23.5106C108.1 23.3 107.492 22.9916 106.941 22.5962L106.807 22.5003V25.6016L106.856 25.6245C107.312 25.8349 107.887 26.0123 108.564 26.1519C109.24 26.2917 109.854 26.3627 110.388 26.3627C112.034 26.3627 113.36 25.9728 114.328 25.203C115.301 24.4279 115.795 23.3944 115.795 22.1304C115.795 21.2186 115.529 20.4366 115.006 19.806C114.486 19.1805 113.583 18.6062 112.324 18.0986C111.321 17.6961 110.679 17.3619 110.414 17.1054C110.158 16.8576 110.028 16.5072 110.028 16.0634C110.028 15.67 110.189 15.3548 110.517 15.0996C110.849 14.8431 111.31 14.7126 111.888 14.7126C112.425 14.7126 112.974 14.7974 113.52 14.9636C114.066 15.1297 114.545 15.3523 114.945 15.6245L115.077 15.7144V12.7725L115.026 12.7508C114.657 12.5925 114.171 12.457 113.579 12.3471C112.991 12.2379 112.457 12.1828 111.993 12.1828V12.1828ZM98.4096 23.7286C97.2407 23.7286 96.3186 23.3409 95.6691 22.5772C95.0153 21.8097 94.6847 20.7157 94.6847 19.3251C94.6847 17.8907 95.0157 16.768 95.6698 15.9869C96.3193 15.211 97.2321 14.8171 98.3838 14.8171C99.5003 14.8171 100.389 15.1933 101.027 15.9357C101.667 16.6819 101.991 17.7956 101.991 19.2467C101.991 20.7157 101.686 21.8441 101.083 22.5989C100.485 23.348 99.5861 23.7286 98.4096 23.7286V23.7286ZM98.5532 12.1828C96.322 12.1828 94.5501 12.8364 93.2876 14.1255C92.0251 15.4148 91.3846 17.1989 91.3846 19.4289C91.3846 21.5477 92.0099 23.2505 93.2423 24.4917C94.4748 25.7332 96.1518 26.3622 98.2269 26.3622C100.389 26.3622 102.126 25.6994 103.388 24.3925C104.651 23.0869 105.291 21.3196 105.291 19.1418C105.291 16.9907 104.69 15.2743 103.506 14.0415C102.32 12.808 100.654 12.1828 98.5532 12.1828V12.1828ZM86.4948 14.8514V12.5087H83.3128V26.036H86.4948V19.1163C86.4948 17.9396 86.7616 16.973 87.2881 16.2428C87.8078 15.5214 88.5004 15.1559 89.346 15.1559C89.6326 15.1559 89.9544 15.2031 90.3028 15.2966C90.6477 15.3895 90.8975 15.4904 91.0448 15.5966L91.1785 15.6936V12.4856L91.127 12.4634C90.8307 12.3375 90.4114 12.274 89.881 12.274C89.0813 12.274 88.3658 12.531 87.7528 13.0368C87.2148 13.4815 86.826 14.0911 86.5287 14.8514H86.4948ZM77.6144 12.1828C76.1545 12.1828 74.8524 12.4958 73.7449 13.1129C72.6351 13.7314 71.7768 14.6144 71.1928 15.7372C70.6114 16.8573 70.3162 18.1657 70.3162 19.6248C70.3162 20.903 70.6024 22.0759 71.1681 23.1096C71.7341 24.1451 72.5352 24.9552 73.5492 25.517C74.5618 26.0781 75.7322 26.3626 77.028 26.3626C78.5402 26.3626 79.8313 26.0603 80.8665 25.464L80.9083 25.4401V22.5248L80.7746 22.6225C80.3057 22.964 79.7816 23.2367 79.2178 23.4331C78.6554 23.6294 78.1427 23.7286 77.693 23.7286C76.4445 23.7286 75.4421 23.3379 74.7146 22.5676C73.9854 21.7964 73.6157 20.7134 73.6157 19.3506C73.6157 17.9793 74.0013 16.8685 74.7611 16.0489C75.5186 15.2316 76.5228 14.8171 77.7456 14.8171C78.7914 14.8171 79.8106 15.1713 80.7748 15.8707L80.9083 15.9676V12.8959L80.8652 12.8717C80.5024 12.6686 80.0075 12.5008 79.3931 12.3736C78.7813 12.2467 78.1829 12.1828 77.6144 12.1828V12.1828ZM68.1247 12.5088H64.9427V26.036H68.1247V12.5088V12.5088ZM66.5662 6.74615C66.0425 6.74615 65.5857 6.92444 65.2104 7.27773C64.8336 7.63201 64.6425 8.07808 64.6425 8.60452C64.6425 9.12268 64.8313 9.56061 65.2046 9.90548C65.5754 10.2493 66.0336 10.4236 66.5664 10.4236C67.0989 10.4236 67.5589 10.2493 67.9341 9.90605C68.3118 9.56061 68.5034 9.12282 68.5034 8.60452C68.5034 8.0965 68.317 7.65499 67.9497 7.292C67.5827 6.92972 67.1171 6.74615 66.5662 6.74615ZM58.6269 11.5108V26.036H61.8743V7.16025H57.3797L51.6669 21.1806L46.1229 7.16025H41.4453V26.0359H44.497V11.5093H44.6018L50.4561 26.036H52.7591L58.5221 11.5108H58.6269V11.5108Z" fill="#706D6E"/>
<path d="M15.4741 15.8218H0.504883V0.852676H15.4741V15.8218Z" fill="#F1511B"/>
<path d="M32.0021 15.8217H17.0332V0.85257H32.0021V15.8217Z" fill="#80CC28"/>
<path d="M15.4736 32.3553H0.504883V17.3862H15.4736V32.3553Z" fill="#00ADEF"/>
<path d="M32.0021 32.3553H17.0332V17.3862H32.0021V32.3553Z" fill="#FBBC09"/>
</svg>
