<svg width="99" height="62" viewBox="0 0 99 62" fill="none" xmlns="http://www.w3.org/2000/svg">
<path d="M50.2308 36.2648H28.6751V25.7098H48.6506C48.9022 25.6837 49.1555 25.7409 49.3714 25.8726C49.5874 26.0044 49.754 26.2034 49.8459 26.4391C52.5809 31.9496 55.3564 37.4399 58.0711 42.9503C58.1614 43.1617 58.2079 43.3891 58.2079 43.6189C58.2079 43.8487 58.1614 44.0761 58.0711 44.2874C51.9934 55.8554 42.269 61.8116 29.1411 61.4874C21.7086 61.1459 14.6571 58.1002 9.31303 52.9234C3.969 47.7465 0.700842 40.7953 0.123342 33.3775C-0.454157 25.9596 1.69878 18.5863 6.17722 12.6448C10.6557 6.70324 17.1509 2.60289 24.441 1.11518C28.3899 0.29494 32.4652 0.29494 36.4141 1.11518C36.7501 1.19871 37.0406 1.40934 37.2245 1.70271C39.2504 5.75454 41.4384 10.0089 43.5251 14.1621C43.5725 14.3072 43.6065 14.4564 43.6264 14.6078L42.7147 14.0811C39.8114 12.2781 36.5302 11.1716 33.128 10.8483C29.7257 10.5249 26.2948 10.9935 23.1039 12.2172C18.9035 13.8039 15.3492 16.7411 12.9995 20.5674C10.6497 24.3936 9.63768 28.892 10.1223 33.3559C10.607 37.8198 12.5608 41.9962 15.677 45.229C18.7931 48.4618 22.8949 50.5677 27.338 51.216C32.237 51.9164 37.2252 50.8495 41.409 48.2063C45.5928 45.5631 48.6986 41.5165 50.17 36.7915C50.1903 36.67 50.1903 36.5484 50.2308 36.2648Z" fill="#222222"/>
<path d="M98.5689 1.17567L68.3625 61.3453L67.9168 60.5958C66.188 57.1787 64.4592 53.7617 62.7305 50.3446C62.6001 50.1274 62.5312 49.8788 62.5312 49.6254C62.5312 49.3721 62.6001 49.1234 62.7305 48.9062C70.591 33.2526 78.4448 17.5721 86.2918 1.86454C86.5147 1.4391 86.697 1.11492 87.2845 1.13518H98.0421L98.5689 1.17567Z" fill="#222222"/>
</svg>
