<svg width="73" height="72" viewBox="0 0 73 72" fill="none" xmlns="http://www.w3.org/2000/svg">
<path d="M36.0051 72H0.645296C-1.07415e-05 72 0 72 0 71.3581C0 47.8041 0 24.2439 0 0.677488C0 0 -4.1189e-06 0 0.694421 0H71.6596C71.9018 0 72.0423 0.111788 72.0271 0.37262V0.616516C72.0271 24.2157 72.0271 47.8148 72.0271 71.414C72.0271 71.9983 72.0271 71.9983 71.4461 71.9983L36.0051 72Z" fill="#080808"/>
<path d="M36.0556 4.59007H66.9084C67.4724 4.59007 67.4165 4.50031 67.4165 5.11343C67.4165 25.7091 67.4165 46.3041 67.4165 66.8986C67.4165 67.4271 67.4165 67.4271 66.9084 67.4271H5.12152C4.61341 67.4271 4.61341 67.4271 4.61341 66.8969C4.61341 46.3013 4.61341 25.7062 4.61341 5.11174C4.61341 4.5003 4.56429 4.59007 5.12152 4.59007H36.0556Z" fill="#FEFEFE"/>
<path d="M51.7081 27.0266C52.8582 27.0588 54.0099 27.0114 55.1616 27.0944C56.6978 27.2061 57.7886 27.9243 58.4322 29.3182C58.9403 30.4259 59.1351 31.6132 59.2519 32.8124C59.4257 34.6065 59.4523 36.4118 59.3316 38.2102C59.2367 39.6567 59.0792 41.0896 58.5271 42.453C57.8834 44.0383 56.7046 44.8445 55.0024 44.9174C52.8085 45.0111 50.6151 45.0111 48.4223 44.9174C46.6609 44.8428 45.482 43.9807 44.8452 42.3446C44.4082 41.2234 44.2337 40.0479 44.1389 38.8606C43.9876 36.9559 43.9876 35.0422 44.1389 33.1376C44.2388 31.8825 44.4133 30.6376 44.9197 29.4673C45.5599 27.987 46.6693 27.1977 48.297 27.0961C49.4352 27.0148 50.5717 27.0605 51.7081 27.0266V27.0266Z" fill="#080808"/>
<path d="M35.548 44.9836C34.3065 44.9531 33.0074 45.0378 31.71 44.8515C30.3872 44.6618 29.4878 43.9318 28.917 42.7581C28.3327 41.5572 28.1447 40.2581 28.038 38.9489C27.8793 36.9902 27.8793 35.0219 28.038 33.0632C28.1346 31.8624 28.3073 30.67 28.7748 29.5454C29.4048 28.0312 30.5159 27.1742 32.1842 27.0996C34.5112 26.9816 36.8427 26.9862 39.1691 27.1132C39.8032 27.1303 40.4205 27.3211 40.9536 27.6649C41.4867 28.0086 41.9152 28.4921 42.1924 29.0627C42.7141 30.0467 42.9376 31.1154 43.0731 32.2062C43.3455 34.5219 43.3705 36.86 43.1477 39.1809C43.041 40.3665 42.836 41.5386 42.3415 42.6395C41.6894 44.0927 40.5563 44.8142 38.9794 44.9226C37.8531 44.9972 36.7302 44.965 35.548 44.9836V44.9836Z" fill="#080808"/>
<path d="M20.0335 27.0321H26.0885C26.3866 27.0321 26.517 27.0795 26.5052 27.4233C26.4781 28.2702 26.4832 29.1306 26.5052 29.9825C26.5052 30.2874 26.429 30.367 26.1224 30.367C23.2431 30.3551 20.379 30.367 17.5065 30.3501C17.1406 30.3501 17.0187 30.4568 16.9983 30.8091C16.934 31.8354 16.8391 32.8602 16.7612 33.8849C16.7612 33.9814 16.6867 34.1118 16.8154 34.1745C16.9441 34.2371 17.0237 34.1609 17.1067 34.0847C17.8723 33.3767 18.8005 33.1769 19.8167 33.2023C21.1429 33.2345 22.4741 33.099 23.7935 33.2768C25.5211 33.5088 26.4713 34.4184 26.8304 36.1206C27.12 37.4975 27.1132 38.8898 27.0336 40.2854C27.0166 41.0309 26.9027 41.7711 26.6949 42.4872C26.2173 43.954 25.1231 44.8381 23.5852 44.916C21.0559 45.0478 18.5215 45.0478 15.9923 44.916C14.0801 44.8144 13.0232 43.7491 12.7742 41.7556C12.6793 41.0154 12.6455 40.2736 12.615 39.5283C12.6065 39.3064 12.6692 39.2184 12.9063 39.2184C14.058 39.2184 15.2098 39.2099 16.3615 39.193C16.5885 39.193 16.6782 39.2675 16.6697 39.4978C16.6553 39.9723 16.7124 40.4462 16.8391 40.9036C16.9763 41.4117 17.2405 41.6455 17.7622 41.6641C19.1172 41.7115 20.4722 41.7166 21.8271 41.6641C22.3691 41.6438 22.6537 41.3948 22.7604 40.8681C23.0005 39.6838 23.0005 38.4633 22.7604 37.2791C22.6723 36.8336 22.3945 36.5203 21.9406 36.505C20.672 36.4627 19.4 36.3357 18.1382 36.6083C17.6247 36.7327 17.1366 36.9447 16.6952 37.235C16.6064 37.2935 16.5051 37.3303 16.3994 37.3423C16.2938 37.3544 16.1868 37.3414 16.0871 37.3045C15.1454 37.0132 14.1986 36.7388 13.2501 36.4729C13.0249 36.4102 12.9114 36.3357 12.9368 36.0664C13.1367 33.1904 13.3258 30.3111 13.5042 27.4284C13.5245 27.1151 13.6346 27.027 13.9446 27.0304C15.9686 27.0388 18.001 27.0321 20.0335 27.0321V27.0321Z" fill="#080808"/>
<path d="M48.4525 35.9948C48.4339 34.4959 48.3746 32.9902 48.6846 31.5099C48.8709 30.6207 49.1741 30.3683 50.0718 30.3615C51.1411 30.3525 52.2103 30.3525 53.2796 30.3615C54.2806 30.3615 54.6007 30.6444 54.782 31.6284C54.9379 32.508 55.0173 33.3994 55.0191 34.2926C55.0343 36.132 55.1038 37.9731 54.8684 39.8074C54.8684 39.8616 54.8684 39.9158 54.8565 39.9768C54.6685 41.3792 54.367 41.6603 52.9511 41.6518C51.8688 41.6518 50.7865 41.7077 49.7059 41.6044C49.4884 41.5972 49.2792 41.519 49.1104 41.3817C48.9415 41.2443 48.8223 41.0554 48.771 40.8439C48.5744 40.1539 48.4701 39.4409 48.461 38.7234C48.4238 37.8088 48.4525 36.901 48.4525 35.9948V35.9948Z" fill="white"/>
<path d="M32.2741 36.0119C32.308 34.4876 32.2742 32.9531 32.5943 31.4389C32.7636 30.6174 33.0804 30.3634 33.9103 30.3549C35.0473 30.3436 36.1844 30.3436 37.3214 30.3549C38.1395 30.3651 38.419 30.6039 38.6222 31.4067C38.8593 32.345 38.8932 33.3088 38.9169 34.2657C38.9593 36.0915 38.9897 37.9208 38.7746 39.7398C38.7746 39.8076 38.7746 39.8753 38.7577 39.9413C38.5341 41.4132 38.2801 41.6435 36.7862 41.6351C35.7175 41.6351 34.6488 41.6927 33.58 41.5843C33.3694 41.574 33.1677 41.4964 33.0046 41.3628C32.8415 41.2292 32.7255 41.0468 32.6739 40.8424C32.4857 40.2067 32.3826 39.5489 32.3673 38.8862C32.3148 37.9343 32.2403 36.974 32.2741 36.0119V36.0119Z" fill="white"/>
</svg>
