<svg width="152" height="31" viewBox="0 0 152 31" fill="none" xmlns="http://www.w3.org/2000/svg">
<path d="M12.5059 5.59178C10.737 5.59178 10.2063 6.37011 10.2063 8.10367V10.9693H14.9471L14.4871 15.6393H10.2063V29.7554H4.51035V15.6393H0.689453V11.0047H4.51035V8.20981C4.51035 3.46906 6.4208 0.992554 11.6922 0.992554C12.789 0.992554 13.9211 1.06331 15.0178 1.20483V5.59178" fill="#3C5A9A"/>
<path d="M15.3362 19.7787C15.3362 14.5426 17.8127 10.5802 23.0487 10.5802C25.879 10.5802 27.6126 12.0308 28.4617 13.8704V11.0048H33.91V29.7909H28.4263V26.9606C27.6479 28.7649 25.8436 30.18 23.0133 30.18C17.8127 30.18 15.3008 26.253 15.3008 20.9816L15.3362 19.7787ZM21.0321 21.0523C21.0321 23.8472 22.0581 25.7223 24.7115 25.7223C27.0465 25.7223 28.214 24.0241 28.214 21.3354V19.4249C28.214 16.7361 27.0111 15.0379 24.7115 15.0379C22.0581 15.0379 21.0321 16.8776 21.0321 19.7079V21.0523V21.0523Z" fill="#3C5A9A"/>
<path d="M45.726 10.5802C47.9195 10.5802 50.0422 11.0402 51.1743 11.8539L49.9007 15.887C48.7332 15.321 47.4242 15.0379 46.1152 15.0379C43.0372 15.0379 41.6928 16.8069 41.6928 19.8494V20.9462C41.6928 23.9888 43.0372 25.7577 46.1152 25.7577C47.4242 25.7577 48.7332 25.4393 49.9007 24.8732L51.1743 28.9064C50.0422 29.6847 47.9548 30.18 45.726 30.18C39.0394 30.18 36.0322 26.6068 36.0322 20.84V19.9556C36.0322 14.1889 39.0394 10.5802 45.726 10.5802" fill="#3C5A9A"/>
<path d="M51.917 21.0877V19.4249C51.917 14.0827 54.9596 10.5802 61.1508 10.5802C66.9883 10.5802 69.571 14.1181 69.571 19.3541V22.3613H57.613C57.7191 24.944 58.8866 26.0761 62.0353 26.0761C64.0873 26.0761 66.1392 25.6869 68.0851 24.944L69.111 28.8356C67.6251 29.614 64.5472 30.2154 61.823 30.2154C54.6058 30.18 51.917 26.6068 51.917 21.0877V21.0877ZM57.613 18.6112H64.4764V18.1513C64.4764 16.0993 63.6627 14.4719 61.1508 14.4719C58.6036 14.4719 57.613 16.0993 57.613 18.6112Z" fill="#3C5A9A"/>
<path d="M90.6577 20.9815C90.6577 26.2176 88.1458 30.18 82.9098 30.18C80.0795 30.18 78.0983 28.7648 77.3199 26.9605V29.7908H71.9424V1.55863L77.6384 1.06332V13.6228C78.4521 11.96 80.2918 10.6156 82.9452 10.6156C88.1458 10.6156 90.6931 14.5426 90.6931 19.814L90.6577 20.9815ZM84.9617 19.6725C84.9617 17.0191 83.9358 15.0379 81.2116 15.0379C78.8766 15.0379 77.6384 16.7007 77.6384 19.3895V21.3707C77.6384 24.0595 78.912 25.7223 81.2116 25.7223C83.9358 25.7223 84.9617 23.7411 84.9617 21.0877V19.6725Z" fill="#3C5A9A"/>
<path d="M92.5322 20.84V19.8848C92.5322 14.4719 95.6102 10.5802 101.872 10.5802C108.134 10.5802 111.212 14.4719 111.212 19.8848V20.84C111.212 26.253 108.134 30.1446 101.872 30.1446C95.6102 30.1446 92.5322 26.2884 92.5322 20.84V20.84ZM105.552 19.4957C105.552 17.0192 104.526 15.0379 101.872 15.0379C99.2188 15.0379 98.1928 17.0192 98.1928 19.4957V21.2646C98.1928 23.7411 99.2188 25.7223 101.872 25.7223C104.526 25.7223 105.552 23.7411 105.552 21.2646V19.4957V19.4957Z" fill="#3C5A9A"/>
<path d="M113.158 20.84V19.8848C113.158 14.4719 116.236 10.5802 122.498 10.5802C128.76 10.5802 131.838 14.4719 131.838 19.8848V20.84C131.838 26.253 128.76 30.1446 122.498 30.1446C116.236 30.1446 113.158 26.2884 113.158 20.84V20.84ZM126.178 19.4957C126.178 17.0192 125.152 15.0379 122.498 15.0379C119.845 15.0379 118.819 17.0192 118.819 19.4957V21.2646C118.819 23.7411 119.845 25.7223 122.498 25.7223C125.152 25.7223 126.178 23.7411 126.178 21.2646V19.4957V19.4957Z" fill="#3C5A9A"/>
<path d="M139.657 19.9556L145.282 10.9694H151.296L145.423 20.274L151.544 29.7908H145.494L139.657 20.5924V29.7908H133.996V1.55863L139.657 1.02795" fill="#3C5A9A"/>
</svg>
