<svg width="162" height="36" viewBox="0 0 162 36" fill="none" xmlns="http://www.w3.org/2000/svg">
<path d="M65.398 20.6546L62.5921 13.0911C62.4776 12.7818 62.0401 12.7818 61.9253 13.0911L59.12 20.6551C59.1 20.7089 59.0934 20.7667 59.1007 20.8235C59.1079 20.8804 59.1288 20.9347 59.1616 20.9818C59.1943 21.0288 59.238 21.0673 59.2888 21.0938C59.3397 21.1203 59.3961 21.1342 59.4535 21.1342H65.0645C65.1218 21.1342 65.1783 21.1203 65.2291 21.0937C65.28 21.0671 65.3236 21.0287 65.3563 20.9816C65.3891 20.9345 65.4099 20.8802 65.4172 20.8233C65.4244 20.7664 65.4177 20.7086 65.3978 20.6549L65.398 20.6546ZM66.6941 24.906H57.8241C57.7515 24.906 57.6807 24.9282 57.6211 24.9696C57.5615 25.0111 57.516 25.0698 57.4908 25.1378L55.7445 29.844C55.7192 29.912 55.6738 29.9707 55.6142 30.0122C55.5546 30.0536 55.4838 30.0758 55.4112 30.0758H51.5667C51.5085 30.0758 51.4513 30.0616 51.4 30.0343C51.3487 30.007 51.3048 29.9676 51.2722 29.9195C51.2397 29.8713 51.2194 29.8159 51.2132 29.7582C51.207 29.7004 51.2151 29.6419 51.2367 29.588L60.088 7.53798C60.1145 7.47212 60.1602 7.4157 60.219 7.37599C60.2779 7.33628 60.3472 7.3151 60.4182 7.31516H64.0995C64.2446 7.31516 64.3752 7.40334 64.4294 7.53798L73.2805 29.5878C73.3023 29.6417 73.3104 29.7002 73.3043 29.7581C73.2981 29.8159 73.2779 29.8714 73.2453 29.9196C73.2127 29.9678 73.1688 30.0073 73.1174 30.0345C73.0661 30.0618 73.0088 30.0761 72.9506 30.0761H69.1067C69.0341 30.076 68.9633 30.0538 68.9037 30.0123C68.8441 29.9708 68.7987 29.9121 68.7735 29.844L67.0269 25.1378C67.0017 25.0698 66.9562 25.0111 66.8966 24.9696C66.8371 24.9282 66.7662 24.906 66.6937 24.906H66.6941ZM75.0818 15.0536H78.3701C78.4644 15.0536 78.5548 15.0911 78.6215 15.1577C78.6881 15.2244 78.7256 15.3149 78.7256 15.4092V29.7203C78.7256 29.8146 78.6881 29.905 78.6215 29.9717C78.5548 30.0384 78.4644 30.0758 78.3701 30.0758H75.0818C74.9875 30.0758 74.8971 30.0384 74.8304 29.9717C74.7637 29.905 74.7263 29.8146 74.7263 29.7203V15.4089C74.7263 15.3146 74.7637 15.2242 74.8304 15.1575C74.8971 15.0908 74.9875 15.0534 75.0818 15.0534V15.0536ZM90.718 18.5348C90.718 18.6291 90.6805 18.7195 90.6138 18.7862C90.5472 18.8529 90.4567 18.8903 90.3624 18.8903H90.2629C88.637 18.8903 87.4444 19.2805 86.6859 20.0608C85.9269 20.8412 85.5481 22.1312 85.5481 23.9303V29.7203C85.5481 29.8146 85.5107 29.905 85.444 29.9717C85.3773 30.0384 85.2869 30.0758 85.1926 30.0758H81.9366C81.8423 30.0758 81.7518 30.0384 81.6851 29.9717C81.6185 29.905 81.581 29.8146 81.581 29.7203V15.4089C81.581 15.3146 81.6185 15.2242 81.6851 15.1575C81.7518 15.0908 81.8423 15.0534 81.9366 15.0534H85.1598C85.2541 15.0534 85.3446 15.0908 85.4113 15.1575C85.4779 15.2242 85.5154 15.3146 85.5154 15.4089V18.2397H85.5806C85.9708 17.0692 86.5885 16.1701 87.4343 15.541C88.2793 14.9126 89.3199 14.598 90.5554 14.598H90.718V18.5345V18.5348ZM99.7089 18.4025C99.6146 18.4025 99.5242 18.44 99.4575 18.5067C99.3908 18.5733 99.3534 18.6638 99.3534 18.7581V24.7106C99.3534 25.3177 99.4719 25.7513 99.7108 26.0113C99.9491 26.2713 100.361 26.4015 100.946 26.4015H101.274C101.368 26.4015 101.458 26.4389 101.525 26.5056C101.592 26.5723 101.629 26.6627 101.629 26.757V29.7525C101.629 29.8468 101.592 29.9372 101.525 30.0039C101.458 30.0706 101.368 30.1081 101.274 30.1081H99.8732C98.4209 30.1081 97.3046 29.7342 96.5243 28.9864C95.7437 28.2385 95.3535 27.128 95.3535 25.6536V18.7581C95.3535 18.6638 95.3161 18.5733 95.2494 18.5067C95.1827 18.44 95.0923 18.4025 94.998 18.4025H92.9454C92.8511 18.4025 92.7607 18.3651 92.694 18.2984C92.6273 18.2317 92.5899 18.1413 92.5899 18.047V15.4089C92.5899 15.3146 92.6273 15.2242 92.694 15.1575C92.7607 15.0908 92.8511 15.0534 92.9454 15.0534H94.9982C95.0925 15.0534 95.183 15.0159 95.2496 14.9492C95.3163 14.8825 95.3538 14.7921 95.3538 14.6978V9.39354C95.3538 9.29924 95.3912 9.2088 95.4579 9.14212C95.5246 9.07544 95.615 9.03798 95.7093 9.03798H98.9976C99.0919 9.03798 99.1823 9.07544 99.249 9.14212C99.3157 9.2088 99.3531 9.29924 99.3531 9.39354V14.6978C99.3531 14.7921 99.3906 14.8825 99.4573 14.9492C99.524 15.0159 99.6144 15.0534 99.7087 15.0534H102.086C102.181 15.0534 102.271 15.0908 102.338 15.1575C102.405 15.2242 102.442 15.3146 102.442 15.4089V18.0472C102.442 18.1415 102.405 18.2319 102.338 18.2986C102.271 18.3653 102.181 18.4027 102.086 18.4027H99.7089V18.4025ZM114.766 25.6211C115.514 24.8408 115.888 23.822 115.888 22.5645C115.888 21.3077 115.514 20.2884 114.766 19.5081C114.018 18.7277 113.037 18.3376 111.823 18.3376C110.609 18.3376 109.629 18.7277 108.881 19.5081C108.133 20.2884 107.759 21.3077 107.759 22.5645C107.759 23.822 108.133 24.8408 108.881 25.6211C109.629 26.4015 110.609 26.7916 111.823 26.7916C113.037 26.7916 114.018 26.4015 114.766 25.6211ZM107.174 29.6205C106.068 28.9921 105.195 28.0759 104.556 26.8729C103.916 25.6699 103.597 24.234 103.597 22.5645C103.597 20.8957 103.916 19.4592 104.556 18.2563C105.195 17.0533 106.068 16.1378 107.174 15.5087C108.279 14.8801 109.493 14.5658 110.815 14.5658C111.986 14.5658 112.988 14.7933 113.823 15.2484C114.657 15.7036 115.324 16.3433 115.823 17.1671H115.888V15.4089C115.888 15.3146 115.925 15.2242 115.992 15.1575C116.058 15.0908 116.149 15.0534 116.243 15.0534H119.499C119.593 15.0534 119.684 15.0908 119.75 15.1575C119.817 15.2242 119.855 15.3146 119.855 15.4089V29.72C119.855 29.8143 119.817 29.9048 119.75 29.9714C119.684 30.0381 119.593 30.0756 119.499 30.0756H116.243C116.149 30.0756 116.058 30.0381 115.992 29.9714C115.925 29.9048 115.888 29.8143 115.888 29.72V27.9621H115.823C115.324 28.7863 114.657 29.4254 113.823 29.8805C112.988 30.3356 111.986 30.5632 110.815 30.5632C109.493 30.5632 108.279 30.2489 107.174 29.6205V29.6205ZM133.395 25.6211C134.143 24.8408 134.517 23.822 134.517 22.5645C134.517 21.3077 134.143 20.2884 133.395 19.5081C132.647 18.7277 131.666 18.3376 130.452 18.3376C129.238 18.3376 128.258 18.7277 127.51 19.5081C126.762 20.2884 126.388 21.3077 126.388 22.5645C126.388 23.822 126.762 24.8408 127.51 25.6211C128.258 26.4015 129.238 26.7916 130.452 26.7916C131.666 26.7916 132.647 26.4015 133.395 25.6211ZM128.453 29.8805C127.618 29.4254 126.951 28.7863 126.453 27.9621H126.388V29.72C126.388 29.8143 126.35 29.9048 126.284 29.9714C126.217 30.0381 126.127 30.0756 126.032 30.0756H122.744C122.65 30.0756 122.559 30.0381 122.493 29.9714C122.426 29.9048 122.389 29.8143 122.389 29.72V7.67001C122.389 7.57571 122.426 7.48528 122.493 7.41859C122.559 7.35191 122.65 7.31445 122.744 7.31445H126.032C126.127 7.31445 126.217 7.35191 126.284 7.41859C126.35 7.48528 126.388 7.57571 126.388 7.67001V17.1668H126.453C126.951 16.3431 127.618 15.7036 128.453 15.2484C129.287 14.7931 130.29 14.5655 131.461 14.5655C132.783 14.5655 133.997 14.8798 135.102 15.5085C136.208 16.1376 137.08 17.053 137.72 18.2558C138.359 19.4595 138.679 20.8959 138.679 22.5647C138.679 24.2342 138.359 25.6699 137.72 26.8732C137.08 28.0761 136.208 28.9923 135.102 29.6205C133.997 30.2491 132.783 30.5637 131.461 30.5637C130.29 30.5637 129.287 30.3361 128.453 29.8807L128.453 29.8805ZM144.219 30.0758H140.931C140.837 30.0758 140.746 30.0384 140.68 29.9717C140.613 29.905 140.575 29.8146 140.575 29.7203V7.67073C140.575 7.57642 140.613 7.48599 140.68 7.41931C140.746 7.35262 140.837 7.31516 140.931 7.31516H144.219C144.314 7.31516 144.404 7.35262 144.471 7.41931C144.537 7.48599 144.575 7.57642 144.575 7.67073V29.7203C144.575 29.8146 144.537 29.905 144.471 29.9717C144.404 30.0384 144.314 30.0758 144.219 30.0758V30.0758ZM151.976 18.5329C151.431 18.9581 151.062 19.5721 150.872 20.3752C150.819 20.5966 150.992 20.809 151.22 20.809H157.478C157.695 20.809 157.865 20.6146 157.83 20.4003C157.705 19.6406 157.38 19.0349 156.853 18.5817C156.235 18.0507 155.428 17.7853 154.431 17.7853C153.433 17.7853 152.615 18.0344 151.976 18.5329V18.5329ZM159.991 16.6631C161.27 18.0616 161.909 20.0398 161.909 22.5972V23.022C161.909 23.1163 161.872 23.2067 161.805 23.2734C161.738 23.3401 161.648 23.3775 161.554 23.3775H151.099C151.047 23.3776 150.996 23.3891 150.948 23.4111C150.901 23.4332 150.859 23.4652 150.826 23.5051C150.792 23.545 150.768 23.5916 150.754 23.6419C150.741 23.6922 150.738 23.7448 150.747 23.7961C150.914 24.7462 151.335 25.5009 152.008 26.0601C152.777 26.7001 153.748 27.0194 154.918 27.0194C156.429 27.0194 157.828 26.4297 159.114 25.2499C159.272 25.1058 159.521 25.1364 159.643 25.3115L161.241 27.6061C161.291 27.6775 161.313 27.7648 161.303 27.8514C161.293 27.938 161.252 28.0179 161.187 28.0759C160.402 28.7628 159.53 29.3423 158.592 29.7994C157.552 30.3086 156.327 30.5637 154.918 30.5637C153.293 30.5637 151.872 30.2327 150.659 29.5719C149.444 28.911 148.502 27.979 147.83 26.7755C147.158 25.5725 146.822 24.1799 146.822 22.5972C146.822 21.0152 147.147 19.6171 147.797 18.4027C148.448 17.1891 149.358 16.2462 150.529 15.5739C151.699 14.9024 153.065 14.566 154.626 14.566C156.923 14.566 158.711 15.2653 159.991 16.6631V16.6631ZM79.1551 9.76285C79.1551 11.104 78.0678 12.1913 76.7264 12.1913C75.3848 12.1913 74.2975 11.104 74.2975 9.76261C74.2975 8.4212 75.385 7.33389 76.7264 7.33389C78.0678 7.33389 79.1551 8.4212 79.1551 9.76261" fill="#333333"/>
<path d="M19.4477 0.901904L3.81247 7.37146C2.94301 7.73129 2.95201 8.96651 3.82693 9.3133L19.5273 15.5394C20.9068 16.0865 22.443 16.0865 23.8225 15.5394L39.5231 9.31306C40.3978 8.96651 40.4073 7.73152 39.5374 7.3717L23.9026 0.901667C22.4762 0.311423 20.8739 0.311423 19.4474 0.901667" fill="#FCB400"/>
<path d="M23.0679 18.9391V34.493C23.0679 35.2326 23.8138 35.7394 24.5015 35.4668L41.9965 28.6761C42.1917 28.5987 42.359 28.4645 42.477 28.2909C42.5949 28.1172 42.6579 27.9122 42.6579 27.7023V12.1486C42.6579 11.4088 41.9119 10.9023 41.2242 11.1749L23.7292 17.9656C23.5341 18.043 23.3668 18.1772 23.2489 18.3508C23.1309 18.5244 23.0679 18.7295 23.0679 18.9394" fill="#18BFFF"/>
<path d="M18.9826 19.7419L13.7904 22.2488L13.2633 22.5036L2.30297 27.7553C1.60844 28.0904 0.721436 27.5841 0.721436 26.8123V12.2139C0.721436 11.9347 0.864608 11.6936 1.05661 11.5123C1.13538 11.4338 1.22474 11.3668 1.3221 11.3132C1.58379 11.156 1.95737 11.1141 2.275 11.2397L18.8954 17.8252C19.7402 18.1603 19.8065 19.3441 18.9826 19.7421" fill="#F82B60"/>
<path d="M18.9826 19.7419L13.7905 22.2488L1.05664 11.512C1.13542 11.4337 1.22479 11.3667 1.32213 11.3132C1.58382 11.156 1.9574 11.1141 2.27503 11.2397L18.8954 17.8252C19.7402 18.1603 19.8066 19.3441 18.9826 19.7421" fill="black" fill-opacity="0.25"/>
</svg>
