<svg width="206" height="39" viewBox="0 0 206 39" fill="none" xmlns="http://www.w3.org/2000/svg">
<path d="M51.752 6.44489V13.432H56.5263V31.8558H64.5957V6.44489H51.752ZM78.2212 16.1018H74.445V13.42H76.3451V6.44489H66.3876V31.8558H74.445V22.2471H78.2212V31.8558H86.3027V6.44489H78.2212V16.1018ZM88.0705 31.8558H103.019V24.8567H95.7792V21.8983H100.385V16.1018H95.7792V13.432H103.019V6.44489H88.0705V31.8558ZM166.576 15.0435C166.576 9.55962 162.523 6.44489 156.775 6.44489H147.792V31.8438H155.861V25.3377L160.479 31.8438H169.583L163.041 22.1027C165.398 20.816 166.576 18.4709 166.576 15.0435ZM155.837 17.8576V13.1313C156.955 13.1313 158.326 13.4681 158.735 14.6947C158.771 14.803 158.795 14.9232 158.831 15.0435C158.831 15.0555 158.831 15.0796 158.844 15.0916C158.856 15.2118 158.88 15.3562 158.88 15.5005C158.88 17.3885 157.16 17.8576 155.837 17.8576V17.8576ZM119.001 21.9224H118.929L118.352 19.8298L116.548 13.444H119.723L121.815 6.44489H105.701L114.937 31.8438H123.21L124.209 29.1259C124.209 29.1259 128.634 17.124 131.051 10.5818V31.8438H146V24.8447H138.76V21.8863H143.354V16.1018H138.76V13.432H146V6.43286H123.667L119.001 21.9224ZM205.685 13.444V6.45691H190.736V31.8558H205.685V24.8567H198.433V21.8983H203.039V16.1258H198.433V13.444" fill="black"/>
<path d="M189.186 26.5283V16.1739H177.785V21.9463H182.03V24.0028C181.706 24.2914 181.008 24.4478 180.287 24.4478C177.328 24.4478 175.139 22.1147 175.139 19.2645C175.139 16.4144 177.268 13.8889 180.226 13.8889C182.018 13.8889 186.264 13.9009 186.264 13.9009V6.37267H184.327C180.72 6.37267 177.124 6.08404 173.817 7.79174C171.207 9.13865 169.138 11.4236 168.044 14.1415C167.407 15.7409 167.082 17.4727 167.082 19.1924C167.082 26.396 172.734 32.4691 180.058 32.4691C183.69 32.4691 187.238 31.1102 189.174 29.4145C189.186 27.6587 189.186 27.3941 189.186 26.5283Z" fill="black"/>
<path d="M42.3069 0.000881742L22.398 34.5103L7.47348 8.62861L27.3749 8.62831L29.864 4.31459H0L19.9059 38.824H24.8872L44.7961 4.31459L42.3069 0.000732422V0.000881742Z" fill="#CECFCF"/>
<path d="M37.3302 0.000298641L22.3982 25.882L12.449 8.62802L7.47363 8.62772L22.3982 34.5094L42.3071 0H37.3302V0.000298641Z" fill="#E70288"/>
<path d="M0 4.31459H29.864L19.9089 21.5685L22.398 25.8824L37.3301 0.000732422H2.48917L0 4.31444V4.31459Z" fill="#382F8E"/>
</svg>
