<svg width="40" height="40" viewBox="0 0 40 40" fill="none" xmlns="http://www.w3.org/2000/svg">
<circle opacity="0.08" cx="20" cy="20" r="20" fill="#153CF5"/>
<path d="M32 17.4914C31.9976 17.0804 31.8687 16.6801 31.6307 16.3449C31.3928 16.0098 31.0573 15.7561 30.67 15.6184C30.5944 15.5911 30.5134 15.5824 30.4337 15.593C30.3541 15.6037 30.2782 15.6334 30.2125 15.6796C30.1467 15.7258 30.0931 15.7872 30.0561 15.8585C30.0191 15.9299 29.9999 16.0091 30 16.0894L30.007 19.9134C30.0072 19.9936 30.0267 20.0726 30.0638 20.1436C30.1009 20.2147 30.1546 20.2758 30.2203 20.3218C30.286 20.3678 30.3617 20.3973 30.4412 20.4079C30.5207 20.4184 30.6016 20.4097 30.677 20.3824C31.0651 20.2428 31.4005 19.9867 31.6373 19.649C31.8742 19.3114 32.0008 18.9088 32 18.4964V17.4914Z" fill="#0D2AB1"/>
<path d="M28.5 11.4963C28.4993 11.2443 28.4347 10.9965 28.3123 10.7762C28.1898 10.5559 28.0136 10.3701 27.8 10.2363C26.966 9.70633 26.331 10.1503 25.074 10.7553C21.9644 12.432 18.5037 13.3528 14.972 13.4433C14.8443 13.4505 14.7242 13.5063 14.6364 13.5993C14.5486 13.6923 14.4998 13.8154 14.5 13.9433V22.5493C14.519 24.0764 14.9583 25.5687 15.7698 26.8625C16.5813 28.1562 17.7335 29.2014 19.1 29.8833C19.2178 29.9427 19.3461 29.9782 19.4777 29.9878C19.6093 29.9973 19.7414 29.9808 19.8665 29.9391C19.9917 29.8973 20.1073 29.8313 20.2068 29.7447C20.3063 29.658 20.3877 29.5526 20.4462 29.4344C20.5048 29.3162 20.5394 29.1876 20.5481 29.056C20.5567 28.9244 20.5392 28.7923 20.4966 28.6675C20.454 28.5427 20.3872 28.4275 20.2999 28.3286C20.2126 28.2297 20.1066 28.1491 19.988 28.0913C18.973 27.5855 18.1137 26.8146 17.5011 25.8603C16.8885 24.906 16.5453 23.8038 16.508 22.6703C19.497 22.9002 22.407 23.7408 25.058 25.1403C26.434 25.7873 26.996 26.1753 27.814 25.6403C28.0249 25.504 28.198 25.3168 28.3174 25.0958C28.4368 24.8749 28.4986 24.6274 28.497 24.3763L28.5 11.4963Z" fill="#153CF5"/>
<path d="M13 14.0133C13 13.8807 12.9473 13.7535 12.8536 13.6598C12.7598 13.566 12.6326 13.5133 12.5 13.5133L11.487 13.5213C10.5585 13.5261 9.66977 13.8991 9.016 14.5585C8.36223 15.2179 7.99683 16.1098 8.00002 17.0383L8.00902 19.0383C8.01352 19.9664 8.38645 20.8547 9.0458 21.5079C9.70515 22.161 10.5969 22.5256 11.525 22.5213H12.5C12.6326 22.5213 12.7598 22.4686 12.8536 22.3749C12.9473 22.2811 13 22.1539 13 22.0213V14.0133Z" fill="#0D2AB1"/>
</svg>
