<svg width="24" height="24" viewBox="0 0 24 24" fill="none" xmlns="http://www.w3.org/2000/svg">
<g clip-path="url(#clip0)">
<path d="M24 9.49611C23.9976 9.08508 23.8687 8.68476 23.6307 8.34962C23.3928 8.01448 23.0573 7.7608 22.67 7.62311C22.5944 7.59579 22.5134 7.58708 22.4337 7.59773C22.3541 7.60838 22.2782 7.63807 22.2125 7.68428C22.1467 7.73049 22.0931 7.79187 22.0561 7.86321C22.0191 7.93455 21.9999 8.01375 22 8.09411L22.007 11.9181C22.0072 11.9983 22.0267 12.0773 22.0638 12.1483C22.1009 12.2194 22.1546 12.2805 22.2203 12.3265C22.286 12.3725 22.3617 12.402 22.4412 12.4126C22.5207 12.4231 22.6016 12.4144 22.677 12.3871C23.0651 12.2475 23.4005 11.9914 23.6373 11.6537C23.8742 11.3161 24.0008 10.9135 24 10.5011V9.49611Z" fill="#0D2AB1"/>
<path d="M20.5 3.5011C20.4993 3.24904 20.4347 3.00129 20.3123 2.78096C20.1898 2.56062 20.0136 2.37489 19.8 2.2411C18.966 1.7111 18.331 2.1551 17.074 2.7601C13.9644 4.43675 10.5037 5.3576 6.972 5.4481C6.8443 5.45526 6.72421 5.51108 6.63641 5.60408C6.54862 5.69709 6.4998 5.8202 6.5 5.9481V14.5541C6.519 16.0812 6.95835 17.5735 7.76982 18.8672C8.58128 20.161 9.7335 21.2062 11.1 21.8881C11.2178 21.9475 11.3461 21.983 11.4777 21.9925C11.6093 22.0021 11.7414 21.9855 11.8665 21.9438C11.9917 21.9021 12.1073 21.836 12.2068 21.7494C12.3063 21.6628 12.3877 21.5574 12.4462 21.4392C12.5048 21.321 12.5394 21.1924 12.5481 21.0608C12.5567 20.9291 12.5392 20.7971 12.4966 20.6723C12.454 20.5474 12.3872 20.4323 12.2999 20.3334C12.2126 20.2345 12.1066 20.1538 11.988 20.0961C10.973 19.5903 10.1137 18.8194 9.50108 17.8651C8.88845 16.9108 8.54531 15.8085 8.508 14.6751C11.497 14.9049 14.407 15.7456 17.058 17.1451C18.434 17.7921 18.996 18.1801 19.814 17.6451C20.0249 17.5088 20.198 17.3215 20.3174 17.1006C20.4368 16.8797 20.4986 16.6322 20.497 16.3811L20.5 3.5011Z" fill="#153CF5"/>
<path d="M5.00002 6.01807C5.00002 5.88546 4.94734 5.75828 4.85357 5.66451C4.75981 5.57074 4.63263 5.51807 4.50002 5.51807L3.48702 5.52607C2.55848 5.53083 1.66977 5.90385 1.016 6.56325C0.362228 7.22264 -0.00317057 8.11452 2.07295e-05 9.04307L0.00902073 11.0431C0.0135189 11.9712 0.386451 12.8595 1.0458 13.5126C1.70515 14.1658 2.59693 14.5303 3.52502 14.5261H4.50002C4.63263 14.5261 4.75981 14.4734 4.85357 14.3796C4.94734 14.2859 5.00002 14.1587 5.00002 14.0261V6.01807Z" fill="#0D2AB1"/>
</g>
<defs>
<clipPath id="clip0">
<rect width="24" height="24" fill="white"/>
</clipPath>
</defs>
</svg>
