<svg width="22" height="22" viewBox="0 0 22 22" fill="none" xmlns="http://www.w3.org/2000/svg">
<path fill-rule="evenodd" clip-rule="evenodd" d="M11 1.375C5.68426 1.375 1.375 5.68426 1.375 11C1.375 16.3157 5.68426 20.625 11 20.625C16.3157 20.625 20.625 16.3157 20.625 11C20.625 5.68426 16.3157 1.375 11 1.375ZM0 11C0 4.92487 4.92487 0 11 0C17.0751 0 22 4.92487 22 11C22 17.0751 17.0751 22 11 22C4.92487 22 0 17.0751 0 11Z" fill="#153CF5"/>
<path fill-rule="evenodd" clip-rule="evenodd" d="M11.5262 7.66717C11.2749 7.5631 10.9985 7.53587 10.7318 7.58892C10.465 7.64198 10.22 7.77293 10.0277 7.96523C9.83543 8.15753 9.70448 8.40253 9.65142 8.66925C9.59837 8.93598 9.6256 9.21244 9.72967 9.46369C9.83374 9.71494 10.01 9.92969 10.2361 10.0808C10.4622 10.2319 10.7281 10.3125 11 10.3125C11.5439 10.3125 12.0756 10.4738 12.5278 10.776C12.9801 11.0781 13.3325 11.5076 13.5407 12.0101C13.7488 12.5126 13.8033 13.0656 13.6972 13.599C13.5911 14.1324 13.3291 14.6225 12.9445 15.007C12.56 15.3916 12.0699 15.6536 11.5365 15.7597C11.0031 15.8658 10.4501 15.8113 9.94762 15.6032C9.44513 15.395 9.01563 15.0426 8.71346 14.5903C8.41129 14.1381 8.25 13.6064 8.25 13.0625C8.25 12.6828 8.55781 12.375 8.9375 12.375C9.3172 12.375 9.625 12.6828 9.625 13.0625C9.625 13.3345 9.70564 13.6003 9.85673 13.8264C10.0078 14.0525 10.2226 14.2288 10.4738 14.3328C10.7251 14.4369 11.0015 14.4641 11.2683 14.4111C11.535 14.358 11.78 14.2271 11.9723 14.0348C12.1646 13.8425 12.2955 13.5975 12.3486 13.3308C12.4016 13.064 12.3744 12.7876 12.2703 12.5363C12.1663 12.2851 11.99 12.0703 11.7639 11.9192C11.5378 11.7681 11.272 11.6875 11 11.6875C10.4561 11.6875 9.92442 11.5262 9.47218 11.224C9.01995 10.9219 8.66747 10.4924 8.45933 9.98988C8.25119 9.48738 8.19673 8.93445 8.30284 8.401C8.40895 7.86755 8.67086 7.37755 9.05546 6.99296C9.44005 6.60836 9.93005 6.34645 10.4635 6.24034C10.997 6.13423 11.5499 6.18869 12.0524 6.39683C12.5549 6.60497 12.9844 6.95745 13.2865 7.40968C13.5887 7.86192 13.75 8.3936 13.75 8.9375C13.75 9.3172 13.4422 9.625 13.0625 9.625C12.6828 9.625 12.375 9.3172 12.375 8.9375C12.375 8.66555 12.2944 8.39971 12.1433 8.17359C11.9922 7.94747 11.7774 7.77124 11.5262 7.66717Z" fill="#153CF5"/>
<path fill-rule="evenodd" clip-rule="evenodd" d="M11 4.8125C11.3797 4.8125 11.6875 5.1203 11.6875 5.5V6.875C11.6875 7.2547 11.3797 7.5625 11 7.5625C10.6203 7.5625 10.3125 7.2547 10.3125 6.875V5.5C10.3125 5.1203 10.6203 4.8125 11 4.8125Z" fill="#153CF5"/>
<path fill-rule="evenodd" clip-rule="evenodd" d="M11 14.4375C11.3797 14.4375 11.6875 14.7453 11.6875 15.125V16.5C11.6875 16.8797 11.3797 17.1875 11 17.1875C10.6203 17.1875 10.3125 16.8797 10.3125 16.5V15.125C10.3125 14.7453 10.6203 14.4375 11 14.4375Z" fill="#153CF5"/>
</svg>
