<svg width="24" height="24" viewBox="0 0 24 24" fill="none" xmlns="http://www.w3.org/2000/svg">
<path d="M8.99277 23.25H2.45077C2.23744 23.2499 2.02657 23.2044 1.83225 23.1164C1.63792 23.0283 1.46461 22.8999 1.32387 22.7395C1.18314 22.5792 1.07822 22.3907 1.01613 22.1866C0.954028 21.9825 0.936179 21.7675 0.96377 21.556L2.82177 7.306C2.86889 6.94473 3.04588 6.61297 3.3197 6.37264C3.59352 6.13231 3.94544 5.99985 4.30977 6H5.42577C5.78992 6.0001 6.14161 6.13266 6.41522 6.37297C6.68883 6.61327 6.86567 6.9449 6.91277 7.306L8.99277 23.25Z" stroke="#05152E" stroke-width="1.5" stroke-linecap="round" stroke-linejoin="round"/>
<path d="M14.2432 6H19.6762C20.0403 6.0001 20.392 6.13266 20.6656 6.37297C20.9392 6.61327 21.1161 6.9449 21.1632 7.306L23.0222 21.556C23.0498 21.7676 23.0319 21.9827 22.9697 22.1869C22.9076 22.391 22.8026 22.5796 22.6617 22.7399C22.5209 22.9003 22.3474 23.0287 22.153 23.1167C21.9586 23.2046 21.7476 23.2501 21.5342 23.25H8.99316" stroke="#05152E" stroke-width="1.5" stroke-linecap="round" stroke-linejoin="round"/>
<path d="M5.42578 6H11.9928" stroke="#05152E" stroke-width="1.5" stroke-linecap="round" stroke-linejoin="round"/>
<path d="M17.9932 10.5V3.75C17.9932 3.35603 17.9156 2.96593 17.7648 2.60195C17.614 2.23797 17.3931 1.90726 17.1145 1.62868C16.8359 1.3501 16.5052 1.12913 16.1412 0.978361C15.7772 0.827597 15.3871 0.75 14.9932 0.75C14.5992 0.75 14.2091 0.827597 13.8451 0.978361C13.4811 1.12913 13.1504 1.3501 12.8718 1.62868C12.5933 1.90726 12.3723 2.23797 12.2215 2.60195C12.0708 2.96593 11.9932 3.35603 11.9932 3.75V10.5" stroke="#05152E" stroke-width="1.5" stroke-linecap="round" stroke-linejoin="round"/>
<path d="M9.57817 1.25391C9.16686 1.52833 8.82975 1.90016 8.59684 2.33632C8.36393 2.77248 8.24243 3.25945 8.24317 3.75391V6.00091" stroke="#05152E" stroke-width="1.5" stroke-linecap="round" stroke-linejoin="round"/>
</svg>
