<svg width="106" height="32" viewBox="0 0 106 32" fill="none" xmlns="http://www.w3.org/2000/svg">
<path d="M15.8115 0C7.07923 0 0 7.07903 0 15.8113C0 24.5439 7.07923 31.6224 15.8115 31.6224C24.5447 31.6224 31.6231 24.5439 31.6231 15.8113C31.6231 7.0796 24.5447 0.000755234 15.8113 0.000755234L15.8115 0V0ZM23.0625 22.8044C22.995 22.915 22.9064 23.0111 22.8017 23.0874C22.6971 23.1637 22.5784 23.2186 22.4524 23.2489C22.3265 23.2792 22.1959 23.2845 22.0679 23.2642C21.94 23.244 21.8173 23.1988 21.7069 23.1311C17.9945 20.8635 13.3211 20.3499 7.81728 21.6074C7.56243 21.6653 7.295 21.6197 7.07376 21.4806C6.85251 21.3414 6.69557 21.1201 6.63741 20.8653C6.60844 20.7392 6.60465 20.6085 6.62624 20.4809C6.64783 20.3533 6.69439 20.2312 6.76325 20.1215C6.8321 20.0119 6.9219 19.917 7.02751 19.8421C7.13311 19.7673 7.25245 19.714 7.37868 19.6853C13.4017 18.3092 18.5681 18.9017 22.7359 21.4488C23.2003 21.7339 23.3476 22.3399 23.0625 22.8044V22.8044ZM24.9978 18.4992C24.641 19.0792 23.882 19.2623 23.3023 18.9055C19.0522 16.2931 12.5736 15.5366 7.54653 17.0625C6.89457 17.2595 6.20598 16.892 6.00811 16.2412C5.91369 15.9283 5.94721 15.5907 6.10132 15.3025C6.25542 15.0143 6.51754 14.799 6.83019 14.7037C12.5724 12.9614 19.7111 13.8054 24.5919 16.8046C25.1715 17.1615 25.3547 17.9205 24.9978 18.4994V18.4992ZM25.164 14.0161C20.068 10.9893 11.6603 10.711 6.79488 12.1877C6.01358 12.4246 5.18735 11.9836 4.95059 11.2023C4.83674 10.8269 4.87663 10.4217 5.06149 10.0757C5.24634 9.72976 5.56104 9.47138 5.93636 9.3574C11.5215 7.66189 20.8062 7.98948 26.6733 11.4724C26.8405 11.5714 26.9866 11.7023 27.1031 11.8577C27.2196 12.0132 27.3044 12.1901 27.3524 12.3784C27.4005 12.5666 27.4109 12.7625 27.3832 12.9548C27.3554 13.1471 27.29 13.332 27.1906 13.4989C26.7753 14.2017 25.8652 14.4334 25.1647 14.0161H25.164ZM43.0178 14.5961C40.2876 13.9451 39.8024 13.4882 39.8024 12.5281C39.8024 11.621 40.6558 11.0106 41.9265 11.0106C43.1575 11.0106 44.3772 11.4741 45.6574 12.4284C45.6951 12.4573 45.7442 12.4688 45.7914 12.4612C45.8152 12.4578 45.838 12.4496 45.8584 12.4371C45.8789 12.4245 45.8965 12.408 45.9104 12.3884L47.2434 10.5093C47.2697 10.4721 47.2808 10.4262 47.2745 10.381C47.2682 10.3358 47.2449 10.2948 47.2094 10.2661C45.6857 9.04398 43.9713 8.44979 41.9661 8.44979C39.0188 8.44979 36.9589 10.2187 36.9589 12.7497C36.9589 15.4639 38.7356 16.4249 41.8056 17.1668C44.4169 17.7685 44.8587 18.2726 44.8587 19.1736C44.8587 20.1724 43.9675 20.7936 42.5326 20.7936C40.939 20.7936 39.6381 20.2555 38.1843 18.998C38.148 18.9674 38.1014 18.9518 38.054 18.9546C38.0049 18.9584 37.9615 18.981 37.9313 19.0169L36.4359 20.7955C36.3736 20.871 36.3811 20.9805 36.4529 21.0447C38.1446 22.5552 40.2253 23.352 42.4721 23.352C45.6479 23.352 47.7003 21.6168 47.7003 18.93C47.7059 16.663 46.3484 15.4074 43.0235 14.5986L43.0178 14.5961ZM54.8864 11.9037C53.5099 11.9037 52.3809 12.4459 51.4481 13.5571V12.3064C51.4483 12.2591 51.4298 12.2137 51.3965 12.1801C51.3632 12.1465 51.3179 12.1275 51.2707 12.1272H48.8256C48.7274 12.1272 48.6481 12.2077 48.6481 12.3064V26.203C48.6481 26.3012 48.7274 26.3824 48.8256 26.3824H51.2707C51.3688 26.3824 51.4481 26.3012 51.4481 26.203V21.8169C52.3809 22.8611 53.5099 23.3727 54.8864 23.3727C57.4447 23.3727 60.0352 21.4034 60.0352 17.6388C60.039 13.8733 57.4485 11.9035 54.8883 11.9035L54.8864 11.9037ZM57.1917 17.6388C57.1917 19.555 56.0117 20.8937 54.3199 20.8937C52.649 20.8937 51.3877 19.4946 51.3877 17.6388C51.3877 15.7828 52.649 14.3841 54.3199 14.3841C55.9834 14.3839 57.1917 15.7524 57.1917 17.6386V17.6388ZM66.6719 11.9037C63.3771 11.9037 60.7961 14.4405 60.7961 17.6797C60.7961 20.8842 63.3601 23.3935 66.6322 23.3935C69.9383 23.3935 72.5268 20.8653 72.5268 17.6388C72.5268 14.4232 69.9553 11.9041 66.6719 11.9041V11.9037ZM66.6719 20.9125C64.9197 20.9125 63.598 19.504 63.598 17.6378C63.598 15.7631 64.8744 14.4028 66.6322 14.4028C68.3957 14.4028 69.7249 15.8107 69.7249 17.6788C69.7249 19.5531 68.441 20.9125 66.6719 20.9125V20.9125ZM79.5619 12.1272H76.8713V9.37704C76.8714 9.35363 76.8669 9.33043 76.8581 9.30877C76.8492 9.28711 76.8362 9.2674 76.8197 9.25078C76.8032 9.23416 76.7836 9.22095 76.762 9.2119C76.7404 9.20285 76.7173 9.19814 76.6939 9.19804H74.2488C74.1506 9.19804 74.0694 9.27848 74.0694 9.37704V12.1272H72.895C72.7968 12.1272 72.7175 12.2077 72.7175 12.3064V14.4073C72.7175 14.5059 72.7968 14.5865 72.895 14.5865H74.0694V20.0233C74.0694 22.2191 75.1626 23.3331 77.3207 23.3331C78.1968 23.3331 78.9237 23.1518 79.6091 22.7629C79.6657 22.7327 79.6997 22.6722 79.6997 22.6081V20.6067C79.6997 20.5463 79.6676 20.4877 79.6148 20.4556C79.589 20.4392 79.5594 20.4298 79.5289 20.4285C79.4984 20.4272 79.4681 20.4339 79.441 20.4481C78.9709 20.6841 78.5159 20.7936 78.0061 20.7936C77.2225 20.7936 76.8713 20.4367 76.8713 19.64V14.5874H79.5619C79.6601 14.5874 79.7394 14.507 79.7394 14.4082V12.3075C79.7402 12.2841 79.7362 12.2607 79.7277 12.2389C79.7192 12.217 79.7063 12.1971 79.6899 12.1804C79.6735 12.1636 79.6539 12.1504 79.6322 12.1414C79.6105 12.1325 79.5872 12.128 79.5638 12.1284L79.5619 12.1272ZM88.9344 12.138V11.8002C88.9344 10.8065 89.3158 10.3634 90.1692 10.3634C90.679 10.3634 91.0887 10.4646 91.5475 10.6175C91.6042 10.6353 91.6627 10.6264 91.708 10.5926C91.731 10.576 91.7497 10.5541 91.7625 10.5289C91.7753 10.5036 91.7819 10.4756 91.7816 10.4472V8.3873C91.7821 8.34882 91.77 8.31126 91.7471 8.28029C91.7243 8.24931 91.692 8.22663 91.6551 8.21567C91.1718 8.07161 90.5525 7.92377 89.6235 7.92377C87.3673 7.92377 86.1721 9.19521 86.1721 11.5993V12.1167H84.9977C84.8995 12.1167 84.8183 12.1971 84.8183 12.2957V14.4073C84.8183 14.5059 84.8995 14.5865 84.9977 14.5865H86.1721V22.9706C86.1721 23.0706 86.2533 23.1499 86.3515 23.1499H88.7947C88.8947 23.1499 88.974 23.0706 88.974 22.9706V14.587H91.2567L94.7535 22.9706C94.357 23.8504 93.9662 24.026 93.4337 24.026C93.0032 24.026 92.5482 23.8976 92.0856 23.6427C92.0418 23.6206 91.9912 23.6159 91.944 23.6295C91.8968 23.6465 91.8572 23.6805 91.8383 23.7258L91.0094 25.544C90.9698 25.6309 91.0037 25.731 91.0868 25.7763C91.9516 26.2445 92.7313 26.4447 93.6962 26.4447C95.5012 26.4447 96.5 25.6026 97.3779 23.3406L101.619 12.3827C101.63 12.3556 101.634 12.3262 101.63 12.2971C101.627 12.2681 101.617 12.2403 101.6 12.2164C101.584 12.1924 101.562 12.1728 101.537 12.1592C101.511 12.1456 101.483 12.1385 101.454 12.1386H98.9092C98.8318 12.1386 98.7638 12.1871 98.7393 12.2586L96.1318 19.7042L93.277 12.2537C93.2642 12.22 93.2415 12.1909 93.2118 12.1703C93.1822 12.1497 93.147 12.1387 93.1109 12.1386H88.9344V12.138ZM83.5004 12.1272H81.0554C80.9572 12.1272 80.876 12.2077 80.876 12.3064V22.9706C80.876 23.0706 80.9572 23.1499 81.0554 23.1499H83.5004C83.5986 23.1499 83.6798 23.0706 83.6798 22.9706V12.3072C83.6799 12.2836 83.6753 12.2603 83.6663 12.2385C83.6573 12.2167 83.644 12.1969 83.6274 12.1803C83.6107 12.1636 83.5909 12.1505 83.5691 12.1415C83.5474 12.1325 83.524 12.1279 83.5004 12.128V12.1272ZM82.2921 7.27124C81.3235 7.27124 80.538 8.05518 80.538 9.02358C80.538 9.99256 81.3235 10.7774 82.2921 10.7774C83.2607 10.7774 84.0442 9.99256 84.0442 9.02358C84.0442 8.05537 83.2588 7.27124 82.2921 7.27124ZM103.707 15.5562C102.74 15.5562 101.987 14.7793 101.987 13.8358C101.987 12.8923 102.75 12.1065 103.716 12.1065C104.683 12.1065 105.436 12.8832 105.436 13.826C105.436 14.7694 104.674 15.5562 103.707 15.5562ZM103.716 12.2775C102.835 12.2775 102.168 12.978 102.168 13.8358C102.168 14.6932 102.831 15.3842 103.707 15.3842C104.589 15.3842 105.255 14.6843 105.255 13.826C105.255 12.9686 104.592 12.2775 103.716 12.2775V12.2775ZM104.098 14.0029L104.585 14.6841H104.173L103.735 14.0591H103.359V14.6841H103.016V12.8783H103.82C104.241 12.8783 104.517 13.093 104.517 13.4544C104.519 13.7504 104.347 13.9313 104.1 14.0029H104.098ZM103.807 13.1882H103.359V13.7593H103.807C104.03 13.7593 104.164 13.65 104.164 13.4734C104.164 13.2877 104.03 13.1882 103.807 13.1882V13.1882Z" fill="#CED3D9"/>
</svg>
