<svg width="40" height="40" viewBox="0 0 40 40" fill="none" xmlns="http://www.w3.org/2000/svg">
<circle opacity="0.08" cx="20" cy="20" r="20" fill="#153CF5"/>
<path d="M15.6159 20.644C15.5306 20.5557 15.4286 20.4853 15.3159 20.4368C15.2031 20.3884 15.0819 20.3629 14.9591 20.3619C14.8364 20.3608 14.7147 20.3842 14.6011 20.4306C14.4876 20.4771 14.3844 20.5457 14.2976 20.6325C14.2108 20.7193 14.1422 20.8225 14.0957 20.9361C14.0492 21.0496 14.0259 21.1713 14.0269 21.2941C14.028 21.4168 14.0535 21.538 14.1019 21.6508C14.1504 21.7636 14.2208 21.8655 14.309 21.9508L14.6353 22.277C14.7219 22.3637 14.7706 22.4812 14.7706 22.6038C14.7706 22.7263 14.7219 22.8438 14.6353 22.9305L9.54198 28.0256C9.28393 28.2841 9.10824 28.6133 9.0371 28.9715C8.96597 29.3298 9.00257 29.7011 9.14229 30.0386C9.282 30.3761 9.51857 30.6646 9.82213 30.8677C10.1257 31.0709 10.4826 31.1795 10.8479 31.1799C11.0909 31.1807 11.3317 31.1331 11.5562 31.04C11.7807 30.9469 11.9845 30.81 12.1556 30.6374L17.248 25.545C17.3347 25.4584 17.4522 25.4097 17.5747 25.4097C17.6973 25.4097 17.8148 25.4584 17.9014 25.545L18.2277 25.8713C18.3135 25.9572 18.4154 26.0253 18.5275 26.0718C18.6397 26.1183 18.7598 26.1422 18.8812 26.1423C19.0026 26.1423 19.1228 26.1184 19.235 26.072C19.3472 26.0256 19.4491 25.9576 19.535 25.8718C19.6209 25.7859 19.689 25.6841 19.7355 25.5719C19.782 25.4598 19.8059 25.3396 19.806 25.2182C19.806 25.0968 19.7821 24.9766 19.7357 24.8644C19.6893 24.7523 19.6213 24.6503 19.5354 24.5645L15.6159 20.644Z" fill="#153CF5"/>
<path d="M27.8849 14.7198H28.0004C28.2279 14.7029 28.4491 14.6371 28.6489 14.5271C28.8487 14.417 29.0225 14.2653 29.1585 14.0821L30.9773 11.6487C31.1242 11.4513 31.1956 11.2079 31.1787 10.9625C31.1617 10.717 31.0575 10.4857 30.8849 10.3104L29.8701 9.29936C29.7 9.12964 29.4757 9.02508 29.2363 9.00397C28.9969 8.98285 28.7577 9.04651 28.5605 9.18383L26.0652 10.9167C25.874 11.0492 25.7144 11.2221 25.5976 11.4232C25.4808 11.6243 25.4098 11.8486 25.3896 12.0803C25.3712 12.2945 25.398 12.5102 25.4681 12.7134C25.496 12.7952 25.5003 12.8831 25.4807 12.9672C25.4611 13.0514 25.4183 13.1283 25.3572 13.1894L18.3249 20.2133C18.1951 20.3433 18.1222 20.5195 18.1222 20.7032C18.1222 20.8869 18.1951 21.063 18.3249 21.193L18.9792 21.8473C19.0436 21.9117 19.1201 21.9628 19.2042 21.9977C19.2883 22.0326 19.3785 22.0505 19.4695 22.0505C19.5606 22.0505 19.6508 22.0326 19.7349 21.9977C19.819 21.9628 19.8955 21.9117 19.9598 21.8473L27.03 14.7845C27.088 14.7258 27.1607 14.6837 27.2405 14.6626C27.3203 14.6414 27.4043 14.6421 27.4838 14.6644C27.6145 14.7006 27.7493 14.7192 27.8849 14.7198V14.7198Z" fill="#153CF5"/>
<path d="M25.8294 23.0036C25.7508 23.0247 25.6681 23.0247 25.5896 23.0036C25.511 22.9825 25.4394 22.941 25.3821 22.8834L23.3118 20.8132C23.2234 20.73 23.1065 20.6837 22.9851 20.6837C22.8637 20.6837 22.7469 20.73 22.6584 20.8132L20.6982 22.7698C20.6115 22.8564 20.5629 22.9739 20.5629 23.0965C20.5629 23.219 20.6115 23.3365 20.6982 23.4232L22.7684 25.4943C22.8258 25.5518 22.8671 25.6234 22.8881 25.702C22.909 25.7805 22.9088 25.8632 22.8876 25.9416C22.7003 26.6467 22.7014 27.3886 22.891 28.0931C23.0806 28.7976 23.4519 29.4399 23.9677 29.9558C24.4836 30.4716 25.1259 30.8429 25.8304 31.0325C26.5349 31.222 27.2768 31.2232 27.9818 31.0359C28.0604 31.015 28.132 30.9739 28.1895 30.9165C28.247 30.8592 28.2884 30.7877 28.3095 30.7092C28.3306 30.6308 28.3306 30.5482 28.3096 30.4697C28.2886 30.3912 28.2473 30.3197 28.1898 30.2623L26.8035 28.8815C26.7295 28.8066 26.683 28.7089 26.6713 28.6043L26.5077 27.1339C26.5001 27.0649 26.5081 26.9952 26.531 26.9297C26.554 26.8643 26.5915 26.8048 26.6406 26.7558C26.6897 26.7068 26.7491 26.6695 26.8146 26.6466C26.8801 26.6238 26.9499 26.6159 27.0188 26.6237L28.4883 26.7873C28.5931 26.7984 28.6909 26.8451 28.7656 26.9195L30.1519 28.3058C30.2093 28.363 30.2808 28.4041 30.3591 28.425C30.4375 28.4459 30.5199 28.4458 30.5982 28.4247C30.6765 28.4036 30.7479 28.3623 30.8051 28.3049C30.8624 28.2476 30.9036 28.1761 30.9245 28.0978C31.1137 27.3925 31.1138 26.6499 30.9249 25.9446C30.7359 25.2393 30.3647 24.5961 29.8483 24.0798C29.332 23.5634 28.6889 23.1922 27.9835 23.0033C27.2782 22.8143 26.5356 22.8144 25.8303 23.0036H25.8294Z" fill="#0D2AB1"/>
<path d="M14.2362 17.2928C14.3147 17.2717 14.3974 17.2717 14.476 17.2928C14.5545 17.3139 14.6261 17.3553 14.6835 17.413L16.7537 19.4832C16.8404 19.5698 16.9579 19.6185 17.0804 19.6185C17.203 19.6185 17.3205 19.5698 17.4071 19.4832L19.3674 17.5229C19.454 17.4363 19.5027 17.3188 19.5027 17.1962C19.5027 17.0737 19.454 16.9562 19.3674 16.8695L17.2971 14.7984C17.2397 14.7409 17.1984 14.6693 17.1775 14.5907C17.1565 14.5122 17.1567 14.4295 17.1779 14.3511C17.3671 13.6457 17.3673 12.9029 17.1783 12.1975C16.9894 11.4921 16.618 10.8488 16.1015 10.3325C15.5851 9.81613 14.9418 9.44487 14.2363 9.25604C13.5308 9.06722 12.7881 9.06749 12.0828 9.25682C12.0044 9.27776 11.933 9.31894 11.8756 9.37622C11.8183 9.4335 11.777 9.50486 11.7559 9.58315C11.7348 9.66144 11.7347 9.74389 11.7556 9.82223C11.7765 9.90057 11.8176 9.97204 11.8748 10.0295L13.2565 11.4158C13.3312 11.4903 13.3782 11.5881 13.3896 11.693L13.5523 13.1579C13.5599 13.2268 13.5519 13.2964 13.529 13.3618C13.506 13.4272 13.4687 13.4865 13.4197 13.5355C13.3707 13.5845 13.3114 13.6219 13.246 13.6448C13.1806 13.6677 13.1109 13.6757 13.0421 13.6681L11.5717 13.5045C11.4669 13.4933 11.3691 13.4467 11.2944 13.3723L9.91457 11.9906C9.85715 11.9334 9.78568 11.8923 9.70734 11.8714C9.629 11.8505 9.54655 11.8506 9.46826 11.8717C9.38997 11.8928 9.31861 11.9341 9.26133 11.9914C9.20405 12.0488 9.16287 12.1203 9.14193 12.1986C8.9528 12.9038 8.95269 13.6465 9.1416 14.3518C9.33052 15.0571 9.7018 15.7003 10.2181 16.2166C10.7344 16.7329 11.3776 17.1042 12.0829 17.2931C12.7883 17.4821 13.5309 17.4819 14.2362 17.2928V17.2928Z" fill="#0D2AB1"/>
</svg>
