<svg width="24" height="24" viewBox="0 0 24 24" fill="none" xmlns="http://www.w3.org/2000/svg">
<g clip-path="url(#clip0)">
<path d="M7.15763 12.5995C7.06538 12.504 6.95503 12.4278 6.83302 12.3754C6.71101 12.323 6.57979 12.2954 6.447 12.2942C6.31421 12.2931 6.18253 12.3184 6.05963 12.3687C5.93673 12.4189 5.82507 12.4932 5.73117 12.5871C5.63727 12.681 5.56302 12.7927 5.51274 12.9156C5.46245 13.0385 5.43715 13.1701 5.4383 13.3029C5.43946 13.4357 5.46704 13.5669 5.51946 13.6889C5.57187 13.811 5.64805 13.9213 5.74357 14.0136L6.09658 14.3666C6.19032 14.4603 6.24298 14.5875 6.24298 14.7201C6.24298 14.8527 6.19032 14.9798 6.09658 15.0736L0.585335 20.5869C0.306106 20.8666 0.116006 21.2227 0.0390322 21.6104C-0.0379414 21.998 0.00166276 22.3998 0.152845 22.765C0.304027 23.1302 0.56001 23.4424 0.888477 23.6622C1.21694 23.882 1.60317 23.9995 1.9984 24C2.2614 24.0008 2.52194 23.9494 2.76487 23.8486C3.0078 23.7478 3.22827 23.5997 3.41346 23.413L8.92371 17.9027C9.01748 17.809 9.14464 17.7563 9.27723 17.7563C9.40981 17.7563 9.53697 17.809 9.63074 17.9027L9.98376 18.2557C10.0766 18.3487 10.1868 18.4224 10.3082 18.4727C10.4295 18.523 10.5596 18.5489 10.6909 18.549C10.8223 18.549 10.9524 18.5232 11.0737 18.473C11.1951 18.4227 11.3054 18.3491 11.3983 18.2562C11.4912 18.1634 11.565 18.0532 11.6153 17.9318C11.6656 17.8105 11.6915 17.6804 11.6915 17.5491C11.6916 17.4177 11.6658 17.2876 11.6155 17.1663C11.5653 17.0449 11.4917 16.9346 11.3988 16.8417L7.15763 12.5995Z" fill="#153CF5"/>
<path d="M20.4333 6.18919H20.5583C20.8045 6.17081 21.0438 6.09968 21.26 5.98061C21.4762 5.86155 21.6643 5.69735 21.8114 5.49916L23.7795 2.86604C23.9384 2.65247 24.0157 2.38909 23.9974 2.12351C23.979 1.85792 23.8663 1.60766 23.6795 1.41797L22.5814 0.323924C22.3973 0.140274 22.1546 0.027141 21.8956 0.00429185C21.6366 -0.0185573 21.3777 0.0503304 21.1644 0.198919L18.4642 2.074C18.2574 2.2173 18.0847 2.4044 17.9583 2.62201C17.832 2.83962 17.7551 3.08239 17.7332 3.33306C17.7133 3.56484 17.7423 3.7982 17.8182 4.01809C17.8483 4.10657 17.8531 4.20173 17.8319 4.29276C17.8106 4.3838 17.7643 4.46707 17.6982 4.53311L10.0889 12.1335C9.9484 12.2741 9.86951 12.4647 9.86951 12.6635C9.86951 12.8622 9.9484 13.0529 10.0889 13.1935L10.7969 13.9015C10.8665 13.9712 10.9492 14.0265 11.0403 14.0642C11.1313 14.102 11.2289 14.1214 11.3274 14.1214C11.4259 14.1214 11.5235 14.102 11.6145 14.0642C11.7056 14.0265 11.7883 13.9712 11.8579 13.9015L19.5083 6.25919C19.5711 6.19564 19.6497 6.15006 19.7361 6.1272C19.8224 6.10433 19.9133 6.10502 19.9993 6.12919C20.1407 6.16836 20.2866 6.18853 20.4333 6.18919V6.18919Z" fill="#153CF5"/>
<path d="M18.2091 15.1527C18.1242 15.1755 18.0347 15.1755 17.9497 15.1527C17.8647 15.1299 17.7872 15.085 17.7251 15.0227L15.485 12.7826C15.3893 12.6926 15.2629 12.6425 15.1315 12.6425C15.0001 12.6425 14.8737 12.6926 14.778 12.7826L12.6569 14.8997C12.5632 14.9934 12.5105 15.1206 12.5105 15.2532C12.5105 15.3858 12.5632 15.5129 12.6569 15.6067L14.897 17.8478C14.9592 17.91 15.0038 17.9875 15.0265 18.0725C15.0491 18.1575 15.049 18.2469 15.026 18.3318C14.8233 19.0948 14.8246 19.8975 15.0297 20.6598C15.2348 21.4221 15.6365 22.1172 16.1947 22.6753C16.7529 23.2335 17.448 23.6353 18.2102 23.8404C18.9725 24.0455 19.7753 24.0468 20.5383 23.8441C20.6232 23.8215 20.7007 23.777 20.7629 23.7149C20.8252 23.6528 20.87 23.5755 20.8928 23.4906C20.9156 23.4057 20.9156 23.3163 20.8929 23.2314C20.8702 23.1465 20.8254 23.0691 20.7633 23.007L19.2632 21.513C19.1832 21.4319 19.1328 21.3262 19.1202 21.213L18.9432 19.6219C18.9349 19.5473 18.9435 19.4718 18.9684 19.401C18.9933 19.3302 19.0338 19.2659 19.0869 19.2128C19.14 19.1598 19.2044 19.1194 19.2753 19.0947C19.3461 19.0699 19.4216 19.0614 19.4962 19.0699L21.0863 19.2469C21.1997 19.2589 21.3055 19.3094 21.3863 19.3899L22.8864 20.8899C22.9485 20.9519 23.0258 20.9964 23.1106 21.0189C23.1954 21.0415 23.2846 21.0414 23.3693 21.0186C23.454 20.9958 23.5312 20.9511 23.5932 20.8891C23.6552 20.827 23.6997 20.7497 23.7224 20.6649C23.927 19.9018 23.9272 19.0982 23.7228 18.335C23.5183 17.5718 23.1166 16.8759 22.5579 16.3172C21.9992 15.7585 21.3033 15.3567 20.5401 15.1523C19.7769 14.9479 18.9733 14.948 18.2101 15.1527H18.2091Z" fill="#0D2AB1"/>
<path d="M5.66461 8.97334C5.74959 8.95051 5.83909 8.9505 5.92408 8.97333C6.00907 8.99615 6.08652 9.041 6.14863 9.10335L8.38873 11.3434C8.4825 11.4372 8.60966 11.4899 8.74224 11.4899C8.87483 11.4899 9.00199 11.4372 9.09576 11.3434L11.2169 9.22235C11.3106 9.12859 11.3633 9.00143 11.3633 8.86884C11.3633 8.73625 11.3106 8.60909 11.2169 8.51532L8.97675 6.27422C8.91458 6.21202 8.86992 6.13451 8.84727 6.04953C8.82462 5.96455 8.82479 5.8751 8.84775 5.7902C9.05248 5.02696 9.05263 4.22326 8.84817 3.45994C8.64371 2.69662 8.24186 2.0006 7.68304 1.44187C7.12421 0.883151 6.42812 0.481428 5.66476 0.277109C4.90141 0.0727909 4.09771 0.0730814 3.3345 0.277952C3.24975 0.300609 3.17246 0.345165 3.11037 0.407145C3.04829 0.469124 3.00361 0.546346 2.98081 0.631057C2.95801 0.715768 2.9579 0.804986 2.98048 0.889754C3.00307 0.974522 3.04756 1.05186 3.10949 1.11399L4.60456 2.61406C4.68541 2.69469 4.73623 2.80056 4.74856 2.91407L4.92457 4.49914C4.93282 4.57364 4.92422 4.64905 4.89939 4.71978C4.87457 4.79051 4.83416 4.85475 4.78116 4.90775C4.72815 4.96076 4.66391 5.00116 4.59318 5.02599C4.52246 5.05081 4.44705 5.05942 4.37255 5.05117L2.78148 4.87416C2.66809 4.86209 2.56224 4.81163 2.48146 4.73115L0.988395 3.23608C0.926261 3.17416 0.848927 3.12967 0.76416 3.10708C0.679392 3.08449 0.590174 3.0846 0.505463 3.1074C0.420752 3.1302 0.34353 3.17488 0.28155 3.23697C0.219571 3.29905 0.175015 3.37635 0.152357 3.4611C-0.0522926 4.22424 -0.0524154 5.02781 0.152001 5.79101C0.356418 6.55422 0.758169 7.25015 1.31686 7.80884C1.87555 8.36753 2.57148 8.76928 3.33469 8.9737C4.09789 9.17812 4.90146 9.17799 5.66461 8.97334V8.97334Z" fill="#0D2AB1"/>
</g>
<defs>
<clipPath id="clip0">
<rect width="24" height="24" fill="white"/>
</clipPath>
</defs>
</svg>
