<svg width="27" height="22" viewBox="0 0 27 22" fill="none" xmlns="http://www.w3.org/2000/svg">
<path d="M18.0406 0.00488346V0H19.3066L19.7692 0.0927858C20.0776 0.153023 20.3575 0.231964 20.6091 0.329634C20.8607 0.427303 21.1042 0.541259 21.3395 0.671476C21.5749 0.801694 21.7883 0.934377 21.9798 1.06948C22.1697 1.20297 22.3402 1.34459 22.4911 1.49434C22.6404 1.64573 22.8733 1.68479 23.1898 1.61154C23.5063 1.53829 23.8472 1.43654 24.2124 1.30633C24.5775 1.17611 24.9387 1.0296 25.2958 0.866815C25.6528 0.704024 25.8704 0.600666 25.9483 0.556715C26.0245 0.511152 26.0651 0.486735 26.07 0.483463L26.0748 0.476138L26.0992 0.463929L26.1235 0.45172L26.1479 0.439512L26.1722 0.427303L26.1771 0.419978L26.1844 0.415094L26.1917 0.410211L26.1966 0.402886L26.2209 0.395561L26.2453 0.390677L26.2404 0.427303L26.2331 0.463929L26.2209 0.500555L26.2087 0.537181L26.1966 0.561598L26.1844 0.586016L26.1722 0.622642C26.1641 0.647059 26.156 0.679607 26.1479 0.720311C26.1398 0.761014 26.0627 0.92378 25.9166 1.20866C25.7705 1.49353 25.5879 1.78246 25.3688 2.07547C25.1497 2.36848 24.9533 2.58985 24.7796 2.73962C24.6044 2.89101 24.4883 2.99681 24.4315 3.05705C24.3747 3.1189 24.3057 3.17586 24.2245 3.22797L24.1028 3.30855L24.0784 3.32075L24.0541 3.33296L24.0493 3.34029L24.0419 3.34517L24.0346 3.35006L24.0298 3.35738L24.0054 3.36959L23.9811 3.3818L23.9762 3.38912L23.9689 3.39401L23.9616 3.39889L23.9567 3.40622L23.9519 3.41354L23.9445 3.41842L23.9372 3.42331L23.9324 3.43063H24.0541L24.7358 3.28413C25.1903 3.18646 25.6244 3.06845 26.0383 2.93008L26.6957 2.71032L26.7687 2.6859L26.8052 2.6737L26.8296 2.66149L26.8539 2.64928L26.8783 2.63707L26.9026 2.62486L26.9513 2.61754L27 2.61265V2.66149L26.9878 2.66637L26.9757 2.6737L26.9708 2.68102L26.9635 2.6859L26.9562 2.69079L26.9513 2.69811L26.9465 2.70544L26.9391 2.71032L26.9318 2.71521L26.927 2.72253L26.9221 2.72986L26.9148 2.73474L26.9026 2.75916L26.8904 2.78357L26.8831 2.78846C26.8799 2.79334 26.7768 2.93169 26.5739 3.20355C26.3711 3.47703 26.2615 3.61537 26.2453 3.61865C26.2291 3.62353 26.2063 3.64795 26.1771 3.6919C26.1495 3.73746 25.9775 3.91898 25.661 4.2364C25.3445 4.55383 25.0345 4.83624 24.731 5.08368C24.4258 5.33274 24.2716 5.63876 24.2684 6.00178C24.2635 6.36315 24.2448 6.77175 24.2124 7.22753C24.1799 7.68332 24.119 8.17572 24.0298 8.70477C23.9405 9.23382 23.8025 9.83205 23.6159 10.4994C23.4292 11.1668 23.202 11.818 22.9342 12.4528C22.6664 13.0877 22.3864 13.6574 22.0942 14.162C21.8021 14.6667 21.5343 15.094 21.2908 15.444C21.0473 15.7939 20.7998 16.1236 20.5482 16.4329C20.2967 16.7421 19.9786 17.0905 19.5939 17.4779C19.2076 17.8637 18.9966 18.0753 18.9609 18.1128C18.9236 18.1486 18.7645 18.2821 18.4837 18.5132C18.2045 18.746 17.9042 18.9787 17.5829 19.2115C17.2631 19.4427 16.9693 19.6356 16.7015 19.7902C16.4337 19.9449 16.1107 20.1215 15.7326 20.3201C15.356 20.5203 14.9486 20.7059 14.5104 20.8768C14.0721 21.0477 13.6096 21.2064 13.1226 21.3529C12.6357 21.4994 12.165 21.6134 11.7106 21.6948C11.2561 21.7762 10.7408 21.8454 10.1646 21.9023L9.30027 21.9878V22H7.71776V21.9878L7.51082 21.9756C7.37287 21.9675 7.25925 21.9593 7.16997 21.9512C7.08072 21.943 6.74391 21.8983 6.1596 21.8169C5.57529 21.7355 5.11678 21.6541 4.78404 21.5727C4.45132 21.4913 3.95627 21.3367 3.29892 21.1088C2.64157 20.8809 2.07917 20.6505 1.61172 20.4178C1.14591 20.1866 0.85375 20.0401 0.735257 19.9782C0.618395 19.918 0.486925 19.8431 0.340848 19.7536L0.121731 19.6193L0.116886 19.612L0.109558 19.6071L0.102254 19.6022L0.097385 19.5949L0.0730388 19.5827L0.0486925 19.5705L0.0438476 19.5632L0.0365194 19.5583L0.0292155 19.5534L0.0243463 19.5461L0.0195014 19.5387L0.0121731 19.5339H0V19.485L0.0243463 19.4899L0.0486925 19.4972L0.158251 19.5094C0.231289 19.5176 0.430125 19.5298 0.754734 19.5461C1.07937 19.5623 1.42426 19.5623 1.78945 19.5461C2.15464 19.5298 2.52797 19.4931 2.90938 19.4362C3.29081 19.3792 3.74122 19.2815 4.2606 19.1432C4.78 19.0048 5.25718 18.8404 5.69218 18.6499C6.12554 18.4579 6.43391 18.3146 6.61734 18.2202C6.79911 18.1274 7.07665 17.9549 7.44996 17.7026L8.00992 17.3241L8.01479 17.3168L8.02209 17.3119L8.02942 17.307L8.03427 17.2997L8.03913 17.2923L8.04644 17.2875L8.05377 17.2826L8.05861 17.2753L8.08296 17.2679L8.1073 17.263L8.11217 17.2386L8.11948 17.2142L8.12681 17.2093L8.13165 17.202L7.93688 17.1898C7.80704 17.1817 7.68124 17.1735 7.55951 17.1654C7.43778 17.1572 7.24708 17.1206 6.98738 17.0555C6.7277 16.9904 6.44772 16.8927 6.14743 16.7625C5.84717 16.6323 5.55501 16.4776 5.27096 16.2986C4.98694 16.1195 4.78161 15.9705 4.655 15.8517C4.53004 15.7345 4.36772 15.5685 4.16808 15.3536C3.97007 15.1371 3.79802 14.9149 3.65194 14.687C3.50586 14.4591 3.36628 14.1962 3.23321 13.8983L3.03111 13.4539L3.01894 13.4173L3.00676 13.3807L2.99946 13.3563L2.99459 13.3319L3.03111 13.3367L3.06763 13.3441L3.33544 13.3807C3.51399 13.4051 3.79397 13.4132 4.17538 13.4051C4.55682 13.397 4.82056 13.3807 4.96664 13.3563C5.11271 13.3319 5.20199 13.3156 5.23445 13.3074L5.28314 13.2952L5.344 13.283L5.40487 13.2708L5.40974 13.2635L5.41704 13.2586L5.42437 13.2537L5.42922 13.2464L5.38052 13.2342L5.33183 13.222L5.28314 13.2098L5.23445 13.1976L5.18575 13.1853C5.1533 13.1772 5.0965 13.1609 5.01533 13.1365C4.93418 13.1121 4.71507 13.0226 4.35798 12.8679C4.00092 12.7133 3.71687 12.5627 3.50586 12.4162C3.29433 12.2693 3.09263 12.1086 2.90207 11.9352C2.71217 11.7594 2.50362 11.5331 2.27638 11.2564C2.04915 10.9797 1.84627 10.6582 1.66772 10.2919C1.48919 9.92564 1.35528 9.57567 1.26601 9.24195C1.17709 8.91021 1.11842 8.57104 1.09074 8.22864L1.04689 7.71587L1.07124 7.72076L1.09558 7.72808L1.11993 7.74029L1.14427 7.7525L1.16862 7.76471L1.19297 7.77691L1.57033 7.94784C1.82193 8.06179 2.13436 8.15946 2.50766 8.24084C2.88099 8.32223 3.10415 8.36701 3.17719 8.37514L3.28674 8.38735H3.50586L3.50102 8.38002L3.49369 8.37514L3.48638 8.37026L3.48151 8.36293L3.47667 8.35561L3.46934 8.35072L3.46204 8.34584L3.45717 8.33851L3.43282 8.3263L3.40848 8.3141L3.40363 8.30677L3.3963 8.30189L3.389 8.297L3.38413 8.28968L3.35978 8.27747L3.33544 8.26526L3.33059 8.25794C3.32572 8.25466 3.25592 8.20258 3.12119 8.10166C2.98809 7.99911 2.84851 7.86645 2.70243 7.70366C2.55636 7.54087 2.41028 7.36995 2.2642 7.1909C2.11786 7.01144 1.98751 6.81943 1.87466 6.61709C1.76106 6.41362 1.64094 6.15477 1.51434 5.84062C1.38937 5.52808 1.29442 5.2131 1.22949 4.89567C1.16458 4.57825 1.12806 4.2649 1.11993 3.9556C1.11182 3.64631 1.11993 3.3818 1.14427 3.16204C1.16862 2.94229 1.21731 2.69404 1.29035 2.41731C1.36339 2.14059 1.46891 1.84758 1.60685 1.53829L1.8138 1.07436L1.82597 1.03774L1.83814 1.00111L1.84547 0.996226L1.85032 0.988901L1.85518 0.981576L1.86249 0.976693L1.86982 0.981576L1.87466 0.988901L1.87953 0.996226L1.88684 1.00111L1.89416 1.00599L1.89901 1.01332L1.90388 1.02064L1.91118 1.02553L1.92335 1.04994L1.93553 1.07436L1.94286 1.07925L1.9477 1.08657L2.27638 1.45283C2.49549 1.697 2.75519 1.96967 3.05546 2.27081C3.35574 2.57195 3.5221 2.72822 3.55455 2.73962C3.58703 2.75264 3.62759 2.79007 3.67629 2.85194C3.72498 2.91218 3.88729 3.05624 4.16321 3.28413C4.43915 3.51202 4.80028 3.77655 5.24662 4.07769C5.69298 4.37883 6.18802 4.67592 6.73174 4.96892C7.27549 5.26193 7.8598 5.52644 8.48467 5.76249C9.10957 5.99853 9.5478 6.15316 9.79937 6.22642C10.051 6.29967 10.4811 6.39326 11.0897 6.50721C11.6984 6.62117 12.1569 6.69442 12.4653 6.72697C12.7737 6.75952 12.9847 6.77825 13.0983 6.78313L13.2687 6.78801L13.2639 6.75139L13.2565 6.71476L13.2078 6.40955C13.1754 6.20608 13.1592 5.9212 13.1592 5.55494C13.1592 5.18868 13.1876 4.85091 13.2444 4.54162C13.3012 4.23233 13.3864 3.91898 13.5 3.60155C13.6136 3.28413 13.7248 3.02936 13.8335 2.83729C13.9439 2.64684 14.0884 2.42952 14.2669 2.18535C14.4455 1.94118 14.6768 1.68887 14.9608 1.42841C15.2448 1.16795 15.5694 0.935989 15.9346 0.732519C16.2998 0.52905 16.6366 0.374391 16.945 0.26859C17.2534 0.16279 17.5131 0.0935916 17.7241 0.0610433C17.9351 0.028495 18.0406 0.00976693 18.0406 0.00488346V0.00488346Z" fill="#1DA1F2"/>
</svg>
